<?xml version="1.0" encoding="UTF-8"?>
<svg id="Layer_1" data-name="Layer 1" xmlns="http://www.w3.org/2000/svg" viewBox="0 0 2006 31.84">
  <defs>
    <style>
      .cls-1 {
        fill: #212121;
      }
    </style>
  </defs>
  <path class="cls-1" d="M2003.66,5.87c2.96.15,1.9-1.58,2.34-1.89-4.96.38-2.22,2.34-2.34,1.89Z"/>
  <polygon class="cls-1" points="1954.77 9.8 1955.63 9.09 1948.42 10.82 1954.77 9.8"/>
  <path class="cls-1" d="M1909.05,9.77c4.32,2.95,16.57-.48,24.71.57l1.34.67,3.67-2.37c-9.9.38-22.76,1.95-29.73,1.13Z"/>
  <path class="cls-1" d="M1884.67,3.4c1.5,1.15-5.27.99,5.68.36-.55-.13-.71-.2-1.03-.29-.99.02-2.34.01-4.65-.07Z"/>
  <path class="cls-1" d="M1889.33,3.46c4.82-.08-3.15-.96,0,0h0Z"/>
  <path class="cls-1" d="M1867.09,4.12l6.34-1.02c-1.32-.68-6.97-.83-4.87-1.32-6.51.56-5.17,1.23-1.47,2.34Z"/>
  <path class="cls-1" d="M1861.08,6.27l3.29-.43c-.58-.28-1.45-.38-3.29.43Z"/>
  <path class="cls-1" d="M1871.34,4.92l-6.97.91c.92.48,1.02,1.43,3.2-.33-.57.87.81.03,3.77-.58Z"/>
  <path class="cls-1" d="M1875.28,5.37c3.56.64,8.15,1.04,1.79,2.06,12.13-.4,10.34-2.48-1.79-2.06Z"/>
  <path class="cls-1" d="M1906.71,12.81l4.76.86,4.11-.99c-2.06.49-9.17-.8-8.87.13Z"/>
  <path class="cls-1" d="M1827.59,2.6c-.4.63,2.13,1.67,2.61,2.47l4.68-.72c-2.41-.43-6.97-.82-7.29-1.75Z"/>
  <path class="cls-1" d="M1830.19,5.07l-7.01,1.08c6.26.13,7.4-.38,7.01-1.08Z"/>
  <polygon class="cls-1" points="1859.95 9.54 1871.46 7.28 1857.73 9.57 1859.95 9.54"/>
  <polygon class="cls-1" points="1800.82 2.52 1804.79 1.07 1797.71 3.26 1800.82 2.52"/>
  <path class="cls-1" d="M1783.06,2.77c2.94-1.2-4.03-2.03-.92-2.77-4.82.22-8.94,1.25-12.65,2.17,3.94-.52,8.14-.38,13.57.6Z"/>
  <path class="cls-1" d="M1763.26,3.53c1.97-.29,4.01-.8,6.23-1.35-2.09.28-4.15.68-6.23,1.35Z"/>
  <path class="cls-1" d="M1811.24,5.83c-.54-.38-1.59-1.37-5.52-1.79l2.76,1.76c.84.01,1.79.02,2.76.03Z"/>
  <path class="cls-1" d="M1808.58,5.86l-.1-.06c-2.99-.04-5.07-.08-5.96-.1.76.02,2.59.06,6.05.16Z"/>
  <path class="cls-1" d="M1811.94,5.84c-.26,0-.44,0-.7,0,.27.17.43.23.7,0Z"/>
  <path class="cls-1" d="M1841.58,7.95c-4.12.99-12.7,2.04-4.4,3.55,2.95-1.21-1.8-2.06,4.4-3.55Z"/>
  <path class="cls-1" d="M1815.36,8.05l7.44.4c-.15-.47-1.49-1.14.55-1.63l-7.99,1.23Z"/>
  <polygon class="cls-1" points="1811.72 8.61 1815.36 8.05 1812.6 7.9 1811.72 8.61"/>
  <path class="cls-1" d="M1776.02,5.18c-3.22.77-6.73.83-10.71.95,4.26.35,8.66.53,12.84.53.59-.55,2.43-1.55-2.14-1.48Z"/>
  <path class="cls-1" d="M1791.84,5.67c-.22.04-.51.06-.71.1.44.15.79.2.71-.1Z"/>
  <path class="cls-1" d="M1726.19,6.12c.22.1.41.22.63.32.05-.1.08-.2.15-.3l-.77-.02Z"/>
  <path class="cls-1" d="M1778.87,6.99c3.2.34,5.11-.09,6.94-.63-2.39.18-4.93.29-7.65.31-.27.25-.31.41.71.33Z"/>
  <path class="cls-1" d="M1752.35,4.35c1.67.37,3.56.68,5.54.97-1.63-.56-4.95-1.43-5.54-.97Z"/>
  <path class="cls-1" d="M1790.05,5.28c.16-.03.31-.06.48-.08-1.05-.38-.92-.19-.48.08Z"/>
  <path class="cls-1" d="M1790.05,5.28c-1.65.25-2.94.69-4.24,1.08,1.95-.14,3.76-.33,5.32-.59-.4-.13-.79-.31-1.08-.49Z"/>
  <path class="cls-1" d="M1714.34,17.44c.56-1.63,8.98-3.14,16.24-1.39,7.15-1.22,2.47-6.6-3.77-9.61-.22.71-.22,1.37-7.58,2.34,2.58.89,16.32,2.09,10.12,3.57-9.74.84-7.98-.58-12.72-1.44,4.03,2.04-12.4,2.96-10.28,5.96l8.55-1.05c.16.47-2.94,1.21-.56,1.63Z"/>
  <path class="cls-1" d="M1740.83,6.61l3.03-.2c-3.45-.29-5.92-.94-10.47-2.22-5.04.8-6.08,1.4-6.43,1.95l14.91.23-1.04.24Z"/>
  <path class="cls-1" d="M1757.45,6.4c-2.36,1.78-9.63,2.53-5.18,4.46,8.88-.12,6.22-1.48,11.53-2.26-14.34.44,4.12-.99-6.24-2,2.82-.3,5.35-.39,7.74-.47-2.58-.22-5.07-.48-7.41-.81.13.04.22.07.33.11h.07s-.01.01-.01.02c.62.22.82.36.12.23-.05.02-.22.03-.3.04-.1.25-.36.46-.65.67-4.15-.37-.65-.46.65-.67.05-.09.16-.17.17-.26-.01,0-.03-.02-.05-.02l-14.36.97c3.04.25,6.84.2,13.59,0Z"/>
  <path class="cls-1" d="M1829.52,15.31c-.45-.16-.43-.28-.46-.41-.93.22-1.28.37.46.41Z"/>
  <path class="cls-1" d="M1823.61,14.24c1.05-.25,1.91-.96,5.31-.78,2.94.53-.01.85.14,1.44,2.05-.47,7.16-1.28.74-2.14l-1.02.24c-5.78-.61-13.21-2.83-12.2-3.07,1.69,1.6,3.18,2.74,7.02,4.31Z"/>
  <path class="cls-1" d="M1790.12,10.77l-11.96.87,6.09,1.54-.31-.92c6.8.36,5.33-.78,6.18-1.49Z"/>
  <polygon class="cls-1" points="1724.82 5.23 1726.41 3.36 1719.5 6.01 1724.82 5.23"/>
  <polygon class="cls-1" points="1709.28 5.46 1709.86 3.83 1705.75 4.81 1709.28 5.46"/>
  <path class="cls-1" d="M832.31,25.72l-3.51.46c1.66-.14,2.73-.3,3.51-.46Z"/>
  <path class="cls-1" d="M857.75,25.83l.62-.8c-1.18.44-1.66.77-.62.8Z"/>
  <path class="cls-1" d="M1327.61,5.64c-5.12-1.52-10.84-3.89-10.22-2.05l1.57,1.79c3.58-.32,6.32-.12,8.65.26Z"/>
  <path class="cls-1" d="M1066.22,16.33c.49.17.99.36,1.5.54,1.24-.61,2.41-1.18,3.46-1.71-1.49.37-3.18.76-4.95,1.17Z"/>
  <path class="cls-1" d="M1062.6,23.74l-6.75-1.15c1.52.4,3.69.79,6.75,1.15Z"/>
  <path class="cls-1" d="M693.38,27.62l-4.1,1.82c6.41-.01,3.59-.93,4.1-1.82Z"/>
  <path class="cls-1" d="M1550.12,6.12c-4.42-.7-7.93-.99-11.02-1.08,5.32,1.03,9.61,2.57,11.02,1.08Z"/>
  <path class="cls-1" d="M842.33,6.72c-2.15.32-3.07.69-3.01,1.09,2.21-.31,3.46-.65,3.01-1.09Z"/>
  <path class="cls-1" d="M1526.34,5.04c.78.18,1.54.27,2.33.42,3.23-.3,6.48-.54,10.42-.43-3.93-.77-8.43-1.24-12.76,0Z"/>
  <path class="cls-1" d="M189.48,26.13c-.37-.08-.81-.12-1.14-.21-.11.24.4.26,1.14.21Z"/>
  <path class="cls-1" d="M42.68,8.07c1.45-.11,3.8-.11,6.03-.14-1.08-.12-2.9-.11-6.03.14Z"/>
  <path class="cls-1" d="M1646.75,4.68c3.3-.12.52-.2,0,0h0Z"/>
  <path class="cls-1" d="M1662.78,11.76c-.7.2-1.23.46-1.32.87.27-.43.73-.71,1.32-.87Z"/>
  <path class="cls-1" d="M1493.51,16.19c-.1,0-.17,0-.29,0,.98.35.81.28.29,0Z"/>
  <path class="cls-1" d="M1651.71,5.49c-1.24-.22-2.66-.4-4.22-.53.68.14,1.96.31,4.22.53Z"/>
  <path class="cls-1" d="M1651.04,4.65c1.14.08,2.03.13,2.88.17.42-.3.05-.49-2.88-.17Z"/>
  <path class="cls-1" d="M1642.16,4.77c1.88-.03,3.64.06,5.34.19-.65-.12-.92-.22-.74-.28-.97.03-2.33.06-4.59.1Z"/>
  <path class="cls-1" d="M459.47,21.34c-.22-.06-.47-.09-.71-.17-3.32.74-1.86.62.71.17Z"/>
  <path class="cls-1" d="M1241.83,24.23c.15-.02.24-.06.38-.09-.15-.02-.35-.04-.49-.06l.11.15Z"/>
  <path class="cls-1" d="M1229.99,25.56c5.04-2.23,7.91-1.95,11.73-1.48l-3.92-5.16-7.81,6.64Z"/>
  <path class="cls-1" d="M771.4,26.23l8.31,1.61c-10.03,2.65-17.29,1.73-9.49,4,1.18-5.6,32.31-.57,33.47-6.17l5.48,1.18c-1.57-.05-1.82.28-3.37.22,10.66,2.68,7.92-4.05,21.65-3.25,4.79.43,8.13,1.24,4.86,1.91l10.66-1.39c3.1.11,2.34,1.08-.74.97l16.26-.45-.12.17c2.32-.88,7.58-2.24,10.15-2.82,4.13.8-2.07.59-1.02,1.29l9.01-1.36c3.67,1.45-3.8,2.86-10.02,2.65,8.41,5.59,7.47-1.41,25.62,1.86l-8.5.71c5.48,3.18,12.12,2.03,21.73,4.01-2.28-1.04-19.25-4.99-9.47-6.39,2.75.42,6.39.62,11.66-.5.05,1.99,5.2,1.5,11.64,1.39l-.44,2.64c6.97-.76,6.41-2.11,10.51-3.29,7.76.26,9.37,2.3,11.2,4.03,12.43.42-8.58-3.28,6.13-3.78,10.34,1.01,17.6-.07,29.97-1.65,7.24.91-1.27,1.61,1.33,2.37l6.42-2.11c1.57.05,1.06.7.81,1.02,5.41-.82.45-2.64,8.94-3.35,2.29-2.91,17.44,4.25,27.96.95,2.59.75-1.25,1.62-.46,2.64,14.43-2.17,12.37-1.57,24.22-4.49l10.09,1.73c-7.42-1.98,2.06-4.33,10.36-6.25-2.63-.96-4.88-1.79-6.39-2.19l13.25-1.42c1.6.43.27,1.34-1.9,2.44.9-.22,1.76-.43,2.43-.63,4.74.97,2.28,2.5-1.11,3.97-1.61-.52-3.22-1.08-4.77-1.63-3.27,1.6-6.33,3.38-5.65,4.92.86-.3,2.52-.57,4.34-.71-.86.43-1.4.82-1.01,1.09.45.28,1.83-.31,4-.98l3.01,2.94.73-1.17,17.33,1.84c12.4-2.96,23.18-7.32,42.86-8.54-4.88,2.16-1.05,3.52-1.31,6.08-5.37-2.71-15.24,1.15-25.44.6,5.32.28,4.15,1.5,2.8,1.93l18.19-2.46c-.41,2.09,3.86,1.57,8.61,2.43-3.59-4.13,13.56-2.75,20.96-4.02.46,1.39-1.31,2.8-10.35,2.47,9.96,3.11,12.87-4.85,22.65-2.21-2.21.03-3.39-.18-4.26.53,5.15-1.23,17.74-.26,14.78.95l-2.2.03c14.64.49,44.56.03,46.74-3.48.15.45-1.92,4.23-2.8,4.94l26.12-11.81c-2.3,3.01,6.53,10.19-5.61,11.89,3.48.43,7.8.93,15.14-.13-2.38-.43-5.93-4.36-2.68-4.63,8.92,3.36,6.19,1.79,17.18,4.66-3.56-.65.4-5.37,6.03-5.22-.88.71.47,4.67-1.59,5.16l14.02-4.64c-3.5.84-.62,3.93,2.52,5.24-1.46-.91,12.12.08,15.85-.38l-5.94-1.08c15.83.7,15.63-6.52,31.33-6.28-1.9.96-4.69,5.9,3.29,6.48,3.66-2.38,16.2-11.43,30.09-13.26l2.66,1.36,10.66-1.55c-6.64,3.58-25.26,11.1-35.43,14.03,5.92,1.08,1.65,1.6,10.52,1.48,3.13,1.27-4.83,1.93-7.44,2.01l20.65.82c-.92-2.78,15.79-2.78,15-5.09l-22.43,2.87c-.91-2.77,12.97-7.87,27.6-7.38,3.72,1.1-2.78,4.94-2.48,5.86,1.9-.96,13.89-1.82,15.23-1.15l-6.21,1.48c8.14,1.04,13.29-3.68,23.08-1.03,3.38.18,10.09,3.57,10.67,1.93-5.51-3.16-6.59-12.96-2.91-15.33,1.18.21,17.74,3.03,21.6,4.59,5.56,2.48-8.35,5.91-3.62,8.05.2-.76,3.28-1.69,4.56-1.99,3.55.65-1.47,2.35,6.24,2,1.29-2.81,15.68.24,3.64-2.38,7.54-.8,8.01.58,16.87.46-2.82-1.82,7.95-6.18,15.51-6.99-.45.71,1.25,1.65,2.07,2.07,15.46.25,23.76,1.53,38.17,1.56,1.33.68,8.28,1.51,5.32,2.72,2.07-.5,3.98-1.45,8.42-1.52,8.6,2.43-9.91.38-3.35,3.3.56-1.63,11.5-2.25,17.83-3.28-1.95-2.52-14.63-.48-20.97.54-.03-3.48,11.01-7.13,26.08-8.74,11.97-.86,5.19,2.25,7.27,1.75,22.49.61,19.16-6.08,37.84-3.57,7.41,2.22.33,4.41,1.98,6.01-9.75.84-14.98-1.41-21.59-1.32l8.14,1.05c-3.1.74-9.61,1.3-13.16.65,6.21,1.99,38,.38,55.35,2.22,3.08-.74,8.4-1.51,5.89-2.41l-5.49.31c-5.05-1.79,10.33-2.47,3.38-3.31,7.37-1.26,15.62-3.23,25.99-2.22l1.95,2.53c-.22-.74-6.78-1.51-9.69-.74,4.32-1.12,15.9,3.42,20.63.11l-7.27-1.75c7.39-1.27,16.54-3.96,25.72-3.16-4.18-2.5-2.12.29-8.65-2.64,5.66,3.64-23.51-.15-14.41,3.67-6.7-3.39-11.6-1.44-20.35-4.33.27.83,3.1,1.6-4.61,1.18-.35.24-1.17.55-1.69.74-.24-.02-.32-.04-.52-.06.15.03.27.07.43.1-.33.13-.36.15.16.03,1.84.36,3.33.8,3.93,1.27-3.83,1.92-16.1,1.86-20.24,2.85-4.58-.4,1.91-.96-.58-1.85l-6.2,1.48c-.61-1.85-12.16-3.08-1.38-4.16l-9.71-.08c-5.71-1.04-13.57-1.45-18.42-.67-4.58-.4-11.56,2.05-7.58.6l-15.22,1.15-.14-.46c-15.02-.23-30.92,3.07-48.09-.28-5.06.47-10.28,1.04-18.74.51l-1.65-1.6c-6.49.56-19.49-1.6-22.28.07-7-4.31-31.51-.94-42.92-1.71l-.43,2.09c-7.86-.12-15.39.48-25.15,1.32l.6,1.85c-8.41,1.52-21.62-1.32-34.93-1.13.91-.71,4.28-.52,6.67-.09-15.89-4.18-33.53,3.04-47.95,0-3.59.67-6.19.44-8.71-.02.33,0,.63-.04.89-.1-.37-.02-.91-.03-1.48-.02-1.59-.32-3.22-.69-4.99-.98,1.5.45,2.94.82,4.2.99-2.77.04-6.97.27-11.09.73l-1.75-1.99c-.33.03-.6.02-.95.06-4.04-.73-3.25.94-1.09,2.44-2.07.33-3.97.72-5.45,1.2-3.28-3.21-10.8,1.08-15.28-2.34-2.78,1.67-20.7,1.26-22.9,4.76-.14-.46-1.35-.67.87-.7-4.59-.4-9.18-.8-13.3.19l-1.95-2.53-10.02,3.4c-6.09-1.54-8.61-2.43-2.57-4.38-14.6,2.99-11.85,1.13-24.27,4.09l.61-1.63c-4.44.06-11.53,2.25-14.21.9-9.93-3.1-49.13-.43-74.62-3.31,4.94,4.81-11.85-2.16-12.86,1.57-1.48-1.14-5.04-1.78-.91-2.77-13.01,1.12-19.54-1.8-28.52,1.34-1.49-1.14,2.78-1.67,1.46-2.34-1.04.25-4.13.99-5.49.31-1.32-.68,1.9-.96,3.96-1.45-13.29.19-14.63,3.7-15.6,6.99-6.73-1.56-10.09-1.34-14.96.82-2.34-1.08-6.25-2.2,2-2.59-4.64-.16-28.37-1.58-28.85,1.06-1.46-.67-6.49-.2-7.72.11-10.42-.16-11.34-.39-21.57-.15l2.84.43c-4.04,3.18-8.51.71-16.76,1.09l.24-.33c-18.92-2.29-8.17,1.1-26.83-1.52l1.02,1.98c-1.74,4.26-16.54-2.51-27.37-.88l3.91,1.13c-5.92,1.46-16.54-5.79-22.48-6.32-1.29-.37,2.05-.59,3.85-.87-15.55-2.51-2.02,2.59-13.61,3.2-2.14-1.4,2.75-3.56-5.05-3.82-3.89-1.13-22.63,4.54-33.27,1.86,2.35,1.08,4.67,2.15-.71,2.96-8.25.38-22.31-4.07-29.76-.68-1.05-.29-1.45-.58-1.49-.84-6.31.88-20.5,1.46-24.3,3.3-5.83-6.84-39.22,3.32-39.08-2.98l-19.4.34.51-.64c-12.4-.42-16.79,1.09-21.15,2.61-2.87-.43-.77-1.02-.54-1.35-18.12-1.27-19.92-1-35.12,2.14l-1.58-2.04c-4.12,1.19-26.2-3.21-43.97-.82.17-.23.54-.63,1.95-.92-20,2.4-47.87-5.67-55.2,1.77l-13.2,1.84c17.07.58-2.54,3.23,4.48,4.47-6.71.44-17.36-2.25-9.11-2.63l1.29.37c3.03-3.88-21.21-1.38-20.76-4.02-33.59.19-66.34-1.96-97.81-2.12l3.63,3.02-10.98-.17c-2.88-.7-3.87-2.36,3.96-2.24-4.12-1.71-13.13,1.43-13.36,2.09-15.33-1.22,5.99-3.52,1.29-3.59l-6.39.23,1.44.35c-5.18,1.23-5.63,2.54-15.05,2.39-5.96-.6-3.06-1.86-5.4-1.98.01-.21-.78-.31-3.6-.09l-13.83-.26,5.53,2.38c-6.13,1.17-13-.13-6.62,2.57-9.37-4.16-51.59-1.49-57.34-2.79-8.58,1.74-17.06,1.71-27.56,1.5,2.61.5,4.17,3.17-4.88,2.85,3.31-5.53-16.58-2.4-23.9-6.38,6.54,2.64-25.74.65-15.48,4.4-7.56-.45-.46-2.07-6.19-3.37-17.98,2.14-39.63-1.39-61.85-.67-.35.73,3.38,1.84-1.39,2.91l-11.73-3.63c-4.39.36-4.04,4.19-12.06,1.67,1.13.61,2.82,1.53-.12,1.76-43.54-3.54-88.97,2.9-133.19-3.75,5.99,1.41,2,1.55-2.58,1.6,2.97.34-.07,1.79.52,2.78l-18.51-2.73c-3.37,2.73-19.85.19-21.78,2.79l5.86-.47c-7.8,3.08,10.91,6.85,9.77,10.8,8.73-3.5,23.02,5.19,37.34.17,3.16.81-2.7,1.27-1.01,2.19,3.63-1.69,8.01-2.05,16.14-1.29l-.92.42c22.83-.41,32.61,1.26,58.26,2.37l-1.9-1.95c5.51.26,6.67.87,9.25,1.36,6.32-2.96-15.48-.17-9.72-3.43,7.31,3.98,38.86.06,43.8,4.58,8.48.02-2.48-2.26,5.99-2.24l2.25,1.22,2.14-1.58c5.56.26,8.36,1.79,8.57,2.82-1.35-.12-3.83.29-5.28.38,7.21,1.44,20.32-.49,22.8-.02l-8.15-.75c23.14-1.14,51.38.46,73.73-2.02l-1.7-.92c17.07-1.71,13.67,1.01,32.41.22l-.68.22c3.75-.92,8.76-1.38,13.89-1.28-4.73,1.08,8.9,2.1,2.7,3.29,18.51-1.83,9.16-1.44,21.38-4.87l2.82,1.53c4.17-1.38,4.51-2.11,13.87-2.51-7.68,1.31,5.97,2.33-2.63,4.07,19.64,3.35,29.16-3.38,38.17,1.51,9.02-4.23-17-2.35-11.94-3.26-4.23-1.38,7.44-3.16,13.61-2.74,6.27.09,10.67,5.42,26.45,5.34-1.57-.02-1.68.3-3.24.28,5.91,1.08,11.57-1.46,18.82.29,4.06-2.56,9.41.15,10.58-3.12l-14.48.76c8.21-.85,15.9-4.68,29.42-2.82-1.05.66-5.08,1.53-7.84,2.01,3.95.96,7.61-.64,11.71.35-1.17,3.27-17.59.71-26.39,3.2,4.24,1.38,16.63-2.37,12.21,1.17,6.35-4.5,15.55.57,26.24-2.87l-.7,1.96c1.69-.31,5.2-1.23,8.31-1.18l-5.63,2.54c8.65-2.17,16.68,1.89,24.98.71-17.38.06-3.9-2.36-11.25-3.79,21.43-2.62,12.32,5.12,36.32,4.18-3.25.28-12.2-1.18-7.12-2.08,4.57.4,10.6,1.15,13.4,2.18,15.9-.41-2.44-2.01,4.33-3.22,5.41,2.39,7.81-.97,14.78-1.73l.05,1.99c18.12,1.28,4.8-4.15,21.11-2.61l-6.89,2.76,8.5-.71-1.75,2.26c9.25-1.68,12.13-1.24,21.19-.61-2.11-1.4,1.18-3.61,9.21-3.67,5.47,1.18-3.06,1.89,8.31,1.61-2.57,1.25-5.38,2.81-10.33.97-.51.65-2.53,1.25-3.06,1.89,5.89,1.36,14.81.31,18.93.29-1.59-.07-3.48-.18-4.45-.47l16.49-2.76c2.6.75.54,1.35-1.5,1.94,3.34-.22,5.65-1.13,10.56-1.3-1.27,1.62-.97,3.29-7.92,4.05l15.71-1.8c1.05.7,8.06,1.93,6.02,2.53,8.71.95,21.36-3.14,32.91-1.88.6-.31,1.8-.61,4.26-.85,10.85.37,20.47,2.35,33.33.13l7.3,2.9c10.07-.66-9.88-3.65,6.89-4.75,11.88-.92,4.43,2.47,8.6,3.28,5.91-1.46,16.17-4.44,27.08-2.08-3.61.55-6.44.12-9.82.33ZM895.64,24.95c-2.41.42-7.21,1.71-8.97.53,2.74-2.28,4.86-1.19,8.97-.53ZM1084.51,20.16c-1.79.66-4.56.33-7.68-.42,2.27-.16,4.83-.09,7.68.42ZM1610.62,6.3c-.1.03-.17.06-.26.1-5.37-.78-3.46-.47.26-.1ZM1621.78,7.16c1.12-.28,1.04-.55.57-.83-.78.5-3.28.54-6.13.4.79.52,2.23.88,5.56.43ZM424.27,7.95l2.17.52c-4.9.57-3.53.05-2.17-.52Z"/>
  <path class="cls-1" d="M1063.09,22.88c-.68-.34-.87-.71-1.03-1.08-.95.33-.97.72,1.03,1.08Z"/>
  <path class="cls-1" d="M694.13,27.28c-.13-.02-.25,0-.38-.02-.21.12-.32.24-.38.36l.76-.34Z"/>
  <path class="cls-1" d="M1449.04,24.04c-2.29-.29-3.58-.65-4.43-1.03-.12.49.92.9,4.43,1.03Z"/>
  <path class="cls-1" d="M1680.87,3.78l-7.14.52c3.45-.1,4.69.34,6.43.65-.16-.47-1.52-1.14.71-1.17Z"/>
  <path class="cls-1" d="M1742.87,16.1c1.04-.24,2.21-.03,3.24-.27l-.29-.92c-4.45.06-7.56.81-2.96,1.2Z"/>
  <path class="cls-1" d="M1687.48,10.39c.57,1.67,5.05,1.11,10.05.8-.3,0-.59.02-.88,0,1.47-2.34-3.86-1.57-9.17-.8Z"/>
  <path class="cls-1" d="M1698.69,11.13c1.54-.08,3.12-.12,4.62-.04.59-.94-1.88-.2-4.62.04Z"/>
  <path class="cls-1" d="M1635.92,6.05c2.37.43,1.49-2.14,2.83-1.46,2.65-2.13-15.82,2.58-2.83,1.46Z"/>
  <polygon class="cls-1" points="1691.53 15.91 1689.74 13.84 1686.93 15.51 1691.53 15.91"/>
  <path class="cls-1" d="M1652.02,14.39l7.99.57c-.12-.35.89-.55,2.14-.71-4.93-.07-10.33-.48-10.14.13Z"/>
  <path class="cls-1" d="M1662.16,14.26c2.57.04,5.01,0,6.43-.34-1.39.02-4.38.09-6.43.34Z"/>
  <polygon class="cls-1" points="1680.6 16.53 1678.24 16.1 1672.59 15.95 1680.6 16.53"/>
  <path class="cls-1" d="M1566.08,13.99l-8.73.59c-.89.71,1.49,1.14,4.74.86,2.09-.49,5.33-.77,3.99-1.45Z"/>
  <path class="cls-1" d="M1592.47,19.65c-2.36-.43-2.52-.89-3.85-1.57l-.27,2.56,4.11-.99Z"/>
  <path class="cls-1" d="M1567.02,20.25c-.87.71-12.66,2.04-1.6,1.88.88-.71,9.62-1.3,1.6-1.88Z"/>
  <polygon class="cls-1" points="1435.55 17.01 1437.77 16.98 1437.45 12.78 1435.55 17.01"/>
  <path class="cls-1" d="M1319.67,27.06c10.34,1.01,2.46-2.59,11.8-1.34,2.43-.99-7.64-1.03-5.15-1.88-6.24,1.05-9.52.46-6.65,3.22Z"/>
  <path class="cls-1" d="M1326.32,23.84c1-.17,2.06-.37,3.19-.64-1.81.26-2.66.46-3.19.64Z"/>
  <polygon class="cls-1" points="18.32 5.81 11.67 4.94 15.97 6.35 18.32 5.81"/>
  <path class="cls-1" d="M5.56,8.93l-1.57-2.68-3.99,2.42c1.5-.12,4.42-.35,5.56.25Z"/>
  <path class="cls-1" d="M914.11,30.34l.51-.64c-1.03-.7-2.59-.75-5.7-.86l5.2,1.5Z"/>
  <polygon class="cls-1" points="823.94 28.34 825.49 28.39 822.59 25.97 823.94 28.34"/>
  <path class="cls-1" d="M748.26,31.43c3.09.1,6.72-.44,9.82-.34-6.73.44-10.66-2.68-9.82.34Z"/>
</svg>