<?xml version="1.0" encoding="UTF-8"?>
<svg id="Layer_1" data-name="Layer 1" xmlns="http://www.w3.org/2000/svg" xmlns:xlink="http://www.w3.org/1999/xlink" viewBox="0 0 2000.34 1232.11">
  <defs>
    <style>
      .cls-1 {
        fill: #141a4f;
      }

      .cls-2 {
        fill: none;
      }

      .cls-3 {
        fill: #0fa1ff;
        fill-rule: evenodd;
        opacity: .41;
      }

      .cls-4 {
        clip-path: url(#clippath);
      }
    </style>
    <clipPath id="clippath">
      <rect class="cls-2" width="1998.99" height="1123.97"/>
    </clipPath>
  </defs>
  <g class="cls-4">
    <rect class="cls-1" x="1.36" y=".63" width="1998.99" height="1123.97"/>
    <path class="cls-3" d="M895.62,1230.32c.05,0,.09-.05.09-.09,0-.04-.04-.09-.09-.09-.06,0-.11.05-.11.09,0,.05.04.09.11.09h0ZM858.65,1230.59c.23,0,.41-.16.41-.36s-.18-.36-.41-.36-.4.16-.4.36.18.36.4.36h0ZM821.7,1230.95c.45,0,.82-.32.82-.72s-.37-.72-.82-.72-.82.32-.82.72.37.72.82.72h0ZM784.75,1231.3c.68,0,1.23-.48,1.23-1.08s-.55-1.07-1.23-1.07-1.24.48-1.24,1.07.56,1.08,1.24,1.08h0ZM747.79,1231.57c.85,0,1.53-.6,1.53-1.34s-.69-1.34-1.53-1.34-1.54.59-1.54,1.34.69,1.34,1.54,1.34h0ZM710.83,1231.75c.97,0,1.75-.69,1.75-1.53s-.79-1.52-1.75-1.52-1.74.69-1.74,1.52.79,1.53,1.74,1.53h0ZM673.88,1231.93c1.07,0,1.95-.75,1.95-1.7s-.88-1.71-1.95-1.71-1.94.77-1.94,1.71.87,1.7,1.94,1.7h0ZM636.92,1232.02c1.14,0,2.05-.8,2.05-1.79s-.92-1.79-2.05-1.79-2.05.8-2.05,1.79.92,1.79,2.05,1.79h0ZM599.97,1232.11c1.19,0,2.15-.85,2.15-1.88s-.97-1.88-2.15-1.88-2.15.85-2.15,1.88.96,1.88,2.15,1.88h0ZM563.01,1232.02c1.13,0,2.05-.8,2.05-1.79s-.92-1.79-2.05-1.79-2.06.8-2.06,1.79.92,1.79,2.06,1.79h0ZM526.05,1231.93c1.07,0,1.95-.75,1.95-1.7s-.88-1.71-1.95-1.71-1.95.77-1.95,1.71.87,1.7,1.95,1.7h0ZM489.09,1231.75c.96,0,1.75-.69,1.75-1.53s-.79-1.52-1.75-1.52-1.74.69-1.74,1.52.78,1.53,1.74,1.53h0ZM452.14,1231.57c.85,0,1.54-.6,1.54-1.34s-.7-1.34-1.54-1.34-1.53.59-1.53,1.34.68,1.34,1.53,1.34h0ZM415.19,1231.21c.62,0,1.12-.44,1.12-.98s-.51-.98-1.12-.98-1.13.44-1.13.98.5.98,1.13.98h0ZM378.23,1230.95c.45,0,.83-.32.83-.72s-.38-.72-.83-.72-.81.32-.81.72.37.72.81.72h0ZM341.27,1230.5c.17,0,.3-.11.3-.27,0-.15-.13-.27-.3-.27s-.3.12-.3.27c0,.15.14.27.3.27h0ZM304.32,1230.32c.06,0,.1-.05.1-.09,0-.04-.04-.09-.1-.09-.05,0-.1.05-.1.09,0,.05.05.09.1.09h0ZM932.57,1198.08c.11,0,.2-.08.2-.18s-.09-.18-.2-.18c-.12,0-.2.08-.2.18s.08.18.2.18h0ZM895.62,1198.62c.44,0,.81-.32.81-.71s-.37-.72-.81-.72-.83.32-.83.72.38.71.83.71h0ZM858.65,1199.07c.73,0,1.33-.52,1.33-1.16s-.6-1.17-1.33-1.17-1.33.52-1.33,1.17.59,1.16,1.33,1.16h0ZM821.7,1199.43c.97,0,1.74-.69,1.74-1.53s-.78-1.53-1.74-1.53-1.74.68-1.74,1.53.78,1.53,1.74,1.53h0ZM784.75,1199.88c1.25,0,2.26-.88,2.26-1.98s-1.01-1.98-2.26-1.98-2.26.89-2.26,1.98,1.01,1.98,2.26,1.98h0ZM747.79,1200.14c1.41,0,2.56-1.01,2.56-2.24s-1.15-2.24-2.56-2.24-2.56,1.01-2.56,2.24,1.15,2.24,2.56,2.24h0ZM710.83,1200.41c1.59,0,2.87-1.13,2.87-2.51s-1.29-2.51-2.87-2.51-2.87,1.12-2.87,2.51,1.29,2.51,2.87,2.51h0ZM673.88,1200.58c1.7,0,3.08-1.19,3.08-2.68s-1.38-2.69-3.08-2.69-3.07,1.21-3.07,2.69,1.38,2.68,3.07,2.68h0ZM636.92,1200.68c1.75,0,3.18-1.25,3.18-2.77s-1.42-2.77-3.18-2.77-3.17,1.24-3.17,2.77,1.42,2.77,3.17,2.77h0ZM599.97,1200.68c1.75,0,3.17-1.25,3.17-2.77s-1.42-2.77-3.17-2.77-3.17,1.24-3.17,2.77,1.42,2.77,3.17,2.77h0ZM563.01,1200.68c1.75,0,3.17-1.25,3.17-2.77s-1.42-2.77-3.17-2.77-3.18,1.24-3.18,2.77,1.42,2.77,3.18,2.77h0ZM526.05,1200.58c1.71,0,3.08-1.19,3.08-2.68s-1.37-2.69-3.08-2.69-3.07,1.21-3.07,2.69,1.38,2.68,3.07,2.68h0ZM489.09,1200.41c1.59,0,2.87-1.13,2.87-2.51s-1.28-2.51-2.87-2.51-2.87,1.12-2.87,2.51,1.28,2.51,2.87,2.51h0ZM452.14,1200.14c1.41,0,2.56-1.01,2.56-2.24s-1.15-2.24-2.56-2.24-2.56,1.01-2.56,2.24,1.15,2.24,2.56,2.24h0ZM415.19,1199.78c1.18,0,2.15-.85,2.15-1.88s-.97-1.88-2.15-1.88-2.16.85-2.16,1.88.97,1.88,2.16,1.88h0ZM378.23,1199.43c.96,0,1.75-.69,1.75-1.53s-.78-1.53-1.75-1.53-1.74.68-1.74,1.53.77,1.53,1.74,1.53h0ZM341.27,1198.98c.68,0,1.24-.48,1.24-1.07s-.56-1.07-1.24-1.07-1.22.48-1.22,1.07.54,1.07,1.22,1.07h0ZM304.32,1198.53c.4,0,.72-.28.72-.62s-.32-.64-.72-.64-.71.28-.71.64.32.62.71.62h0ZM267.36,1198.08c.11,0,.2-.08.2-.18s-.09-.18-.2-.18-.21.08-.21.18.09.18.21.18h0ZM969.53,1165.92c.23,0,.41-.16.41-.35,0-.2-.18-.36-.41-.36s-.41.16-.41.36c0,.19.18.35.41.35h0ZM932.57,1166.47c.56,0,1.02-.4,1.02-.89s-.46-.9-1.02-.9-1.03.41-1.03.9.45.89,1.03.89h0ZM895.62,1167.01c.9,0,1.63-.64,1.63-1.43s-.73-1.44-1.63-1.44-1.65.64-1.65,1.44.73,1.43,1.65,1.43h0ZM858.65,1167.54c1.25,0,2.26-.88,2.26-1.97s-1.01-1.98-2.26-1.98-2.25.88-2.25,1.98,1.01,1.97,2.25,1.97h0ZM821.7,1167.99c1.53,0,2.77-1.08,2.77-2.41s-1.24-2.43-2.77-2.43-2.76,1.08-2.76,2.43,1.23,2.41,2.76,2.41h0ZM784.75,1168.44c1.81,0,3.28-1.28,3.28-2.86s-1.46-2.88-3.28-2.88-3.28,1.29-3.28,2.88,1.47,2.86,3.28,2.86h0ZM747.79,1168.71c1.98,0,3.58-1.4,3.58-3.13s-1.61-3.14-3.58-3.14-3.58,1.41-3.58,3.14,1.6,3.13,3.58,3.13h0ZM710.83,1168.97c2.16,0,3.9-1.52,3.9-3.4s-1.74-3.41-3.9-3.41-3.9,1.52-3.9,3.41,1.74,3.4,3.9,3.4h0ZM673.88,1169.16c2.27,0,4.11-1.61,4.11-3.58s-1.84-3.59-4.11-3.59-4.1,1.61-4.1,3.59,1.83,3.58,4.1,3.58h0ZM636.92,1169.25c2.33,0,4.2-1.65,4.2-3.67s-1.87-3.68-4.2-3.68-4.2,1.65-4.2,3.68,1.87,3.67,4.2,3.67h0ZM599.97,1169.33c2.37,0,4.31-1.67,4.31-3.75s-1.93-3.77-4.31-3.77-4.3,1.68-4.3,3.77,1.92,3.75,4.3,3.75h0ZM563.01,1169.25c2.32,0,4.2-1.65,4.2-3.67s-1.88-3.68-4.2-3.68-4.21,1.65-4.21,3.68,1.88,3.67,4.21,3.67h0ZM526.05,1169.16c2.26,0,4.11-1.61,4.11-3.58s-1.84-3.59-4.11-3.59-4.09,1.61-4.09,3.59,1.83,3.58,4.09,3.58h0ZM489.09,1168.97c2.15,0,3.9-1.52,3.9-3.4s-1.74-3.41-3.9-3.41-3.89,1.52-3.89,3.41,1.74,3.4,3.89,3.4h0ZM452.14,1168.71c1.98,0,3.59-1.4,3.59-3.13s-1.61-3.14-3.59-3.14-3.58,1.41-3.58,3.14,1.59,3.13,3.58,3.13h0ZM415.19,1168.35c1.75,0,3.17-1.25,3.17-2.77s-1.42-2.79-3.17-2.79-3.18,1.24-3.18,2.79,1.42,2.77,3.18,2.77h0ZM378.23,1167.99c1.53,0,2.77-1.08,2.77-2.41s-1.24-2.43-2.77-2.43-2.77,1.08-2.77,2.43,1.25,2.41,2.77,2.41h0ZM341.27,1167.46c1.19,0,2.15-.85,2.15-1.88s-.96-1.89-2.15-1.89-2.15.84-2.15,1.89.97,1.88,2.15,1.88h0ZM304.32,1167.01c.91,0,1.64-.64,1.64-1.43s-.73-1.44-1.64-1.44-1.64.64-1.64,1.44.73,1.43,1.64,1.43h0ZM267.36,1166.47c.57,0,1.03-.4,1.03-.89s-.46-.9-1.03-.9-1.03.41-1.03.9.46.89,1.03.89h0ZM230.4,1165.92c.23,0,.42-.16.42-.35,0-.2-.18-.36-.42-.36-.22,0-.4.16-.4.36,0,.19.18.35.4.35h0ZM1006.48,1133.6c.22,0,.41-.16.41-.36s-.18-.35-.41-.35-.41.16-.41.35c0,.2.18.36.41.36h0ZM969.53,1134.31c.68,0,1.23-.47,1.23-1.08s-.55-1.08-1.23-1.08-1.23.49-1.23,1.08.55,1.08,1.23,1.08h0ZM932.57,1134.95c1.07,0,1.95-.76,1.95-1.71s-.88-1.69-1.95-1.69-1.95.76-1.95,1.69.87,1.71,1.95,1.71h0ZM895.62,1135.48c1.41,0,2.56-1,2.56-2.24s-1.15-2.24-2.56-2.24-2.57,1.01-2.57,2.24,1.16,2.24,2.57,2.24h0ZM858.65,1136.02c1.76,0,3.18-1.25,3.18-2.79s-1.42-2.77-3.18-2.77-3.17,1.24-3.17,2.77,1.42,2.79,3.17,2.79h0ZM821.7,1136.56c2.09,0,3.79-1.48,3.79-3.32s-1.7-3.32-3.79-3.32-3.79,1.49-3.79,3.32,1.7,3.32,3.79,3.32h0ZM784.75,1136.91c2.33,0,4.2-1.65,4.2-3.68s-1.87-3.67-4.2-3.67-4.21,1.65-4.21,3.67,1.88,3.68,4.21,3.68h0ZM747.79,1137.28c2.55,0,4.61-1.81,4.61-4.04s-2.06-4.02-4.61-4.02-4.62,1.8-4.62,4.02,2.07,4.04,4.62,4.04h0ZM710.83,1137.55c2.72,0,4.92-1.93,4.92-4.31s-2.2-4.3-4.92-4.3-4.92,1.93-4.92,4.3,2.2,4.31,4.92,4.31h0ZM673.88,1137.72c2.83,0,5.12-2.01,5.12-4.49s-2.3-4.48-5.12-4.48-5.13,2.01-5.13,4.48,2.3,4.49,5.13,4.49h0ZM636.92,1137.91c2.95,0,5.33-2.09,5.33-4.67s-2.38-4.66-5.33-4.66-5.32,2.09-5.32,4.66,2.38,4.67,5.32,4.67h0ZM599.97,1137.91c2.95,0,5.33-2.09,5.33-4.67s-2.38-4.66-5.33-4.66-5.33,2.09-5.33,4.66,2.39,4.67,5.33,4.67h0ZM563.01,1137.91c2.94,0,5.33-2.09,5.33-4.67s-2.39-4.66-5.33-4.66-5.33,2.09-5.33,4.66,2.39,4.67,5.33,4.67h0ZM526.05,1137.72c2.83,0,5.13-2.01,5.13-4.49s-2.3-4.48-5.13-4.48-5.12,2.01-5.12,4.48,2.3,4.49,5.12,4.49h0ZM489.09,1137.55c2.72,0,4.93-1.93,4.93-4.31s-2.21-4.3-4.93-4.3-4.91,1.93-4.91,4.3,2.2,4.31,4.91,4.31h0ZM452.14,1137.28c2.54,0,4.61-1.81,4.61-4.04s-2.07-4.02-4.61-4.02-4.61,1.8-4.61,4.02,2.07,4.04,4.61,4.04h0ZM415.19,1136.91c2.31,0,4.2-1.65,4.2-3.68s-1.88-3.67-4.2-3.67-4.21,1.65-4.21,3.67,1.88,3.68,4.21,3.68h0ZM378.23,1136.47c2.05,0,3.69-1.45,3.69-3.24s-1.64-3.22-3.69-3.22-3.68,1.44-3.68,3.22,1.65,3.24,3.68,3.24h0ZM341.27,1136.02c1.75,0,3.18-1.25,3.18-2.79s-1.43-2.77-3.18-2.77-3.17,1.24-3.17,2.77,1.42,2.79,3.17,2.79h0ZM304.32,1135.4c1.36,0,2.46-.97,2.46-2.16s-1.1-2.15-2.46-2.15-2.46.97-2.46,2.15,1.11,2.16,2.46,2.16h0ZM267.36,1134.85c1.02,0,1.85-.72,1.85-1.62s-.83-1.61-1.85-1.61-1.84.72-1.84,1.61.82,1.62,1.84,1.62h0ZM230.4,1134.23c.64,0,1.13-.44,1.13-.99s-.5-.98-1.13-.98-1.12.44-1.12.98.49.99,1.12.99h0ZM193.44,1133.6c.23,0,.42-.16.42-.36s-.18-.35-.42-.35c-.22,0-.41.16-.41.35,0,.2.19.36.41.36h0ZM1043.44,1101.28c.22,0,.4-.16.4-.37s-.18-.36-.4-.36c-.23,0-.41.16-.41.36s.18.37.41.37h0ZM1006.48,1101.99c.68,0,1.22-.48,1.22-1.07s-.55-1.08-1.22-1.08-1.23.49-1.23,1.08.55,1.07,1.23,1.07h0ZM969.53,1102.62c1.07,0,1.95-.76,1.95-1.71s-.88-1.7-1.95-1.7-1.95.76-1.95,1.7.87,1.71,1.95,1.71h0ZM932.57,1103.34c1.53,0,2.76-1.09,2.76-2.43s-1.24-2.42-2.76-2.42-2.77,1.08-2.77,2.42,1.24,2.43,2.77,2.43h0ZM895.62,1103.96c1.91,0,3.48-1.36,3.48-3.05s-1.56-3.05-3.48-3.05-3.5,1.36-3.5,3.05,1.57,3.05,3.5,3.05h0ZM858.65,1104.49c2.27,0,4.09-1.6,4.09-3.58s-1.83-3.58-4.09-3.58-4.1,1.6-4.1,3.58,1.84,3.58,4.1,3.58h0ZM821.7,1105.04c2.61,0,4.72-1.85,4.72-4.12s-2.11-4.13-4.72-4.13-4.71,1.85-4.71,4.13,2.11,4.12,4.71,4.12h0ZM784.75,1105.48c2.88,0,5.23-2.05,5.23-4.57s-2.35-4.57-5.23-4.57-5.23,2.04-5.23,4.57,2.34,4.57,5.23,4.57h0ZM747.79,1105.84c3.11,0,5.63-2.2,5.63-4.93s-2.52-4.93-5.63-4.93-5.64,2.2-5.64,4.93,2.52,4.93,5.64,4.93h0ZM710.83,1106.11c3.29,0,5.94-2.33,5.94-5.2s-2.66-5.19-5.94-5.19-5.94,2.32-5.94,5.19,2.66,5.2,5.94,5.2h0ZM673.88,1106.38c3.46,0,6.25-2.45,6.25-5.47s-2.79-5.47-6.25-5.47-6.25,2.45-6.25,5.47,2.8,5.47,6.25,5.47h0ZM636.92,1106.56c3.57,0,6.46-2.53,6.46-5.65s-2.89-5.65-6.46-5.65-6.46,2.53-6.46,5.65,2.9,5.65,6.46,5.65h0ZM599.97,1106.56c3.57,0,6.46-2.53,6.46-5.65s-2.9-5.65-6.46-5.65-6.45,2.53-6.45,5.65,2.88,5.65,6.45,5.65h0ZM563.01,1106.47c3.5,0,6.35-2.48,6.35-5.56s-2.85-5.56-6.35-5.56-6.35,2.49-6.35,5.56,2.84,5.56,6.35,5.56h0ZM526.05,1106.38c3.46,0,6.26-2.45,6.26-5.47s-2.8-5.47-6.26-5.47-6.24,2.45-6.24,5.47,2.79,5.47,6.24,5.47h0ZM489.09,1106.11c3.29,0,5.94-2.33,5.94-5.2s-2.66-5.19-5.94-5.19-5.94,2.32-5.94,5.19,2.66,5.2,5.94,5.2h0ZM452.14,1105.76c3.05,0,5.53-2.17,5.53-4.84s-2.49-4.84-5.53-4.84-5.54,2.17-5.54,4.84,2.47,4.84,5.54,4.84h0ZM415.19,1105.39c2.83,0,5.11-2.01,5.11-4.48s-2.29-4.48-5.11-4.48-5.13,2-5.13,4.48,2.29,4.48,5.13,4.48h0ZM378.23,1104.94c2.54,0,4.62-1.8,4.62-4.03s-2.07-4.03-4.62-4.03-4.61,1.81-4.61,4.03,2.06,4.03,4.61,4.03h0ZM341.27,1104.41c2.21,0,4-1.56,4-3.5s-1.79-3.49-4-3.49-3.99,1.56-3.99,3.49,1.79,3.5,3.99,3.5h0ZM304.32,1103.87c1.87,0,3.39-1.32,3.39-2.96s-1.52-2.96-3.39-2.96-3.38,1.32-3.38,2.96,1.52,2.96,3.38,2.96h0ZM267.36,1103.24c1.47,0,2.66-1.04,2.66-2.33s-1.19-2.33-2.66-2.33-2.67,1.04-2.67,2.33,1.19,2.33,2.67,2.33h0ZM230.4,1102.62c1.08,0,1.95-.76,1.95-1.71s-.87-1.7-1.95-1.7-1.93.76-1.93,1.7.86,1.71,1.93,1.71h0ZM193.44,1101.9c.63,0,1.13-.45,1.13-.99s-.51-.98-1.13-.98-1.12.44-1.12.98.51.99,1.12.99h0ZM156.49,1101.18c.17,0,.31-.12.31-.27s-.15-.27-.31-.27-.3.12-.3.27.13.27.3.27h0ZM1080.4,1068.76c.11,0,.2-.08.2-.17,0-.1-.09-.19-.2-.19-.12,0-.21.08-.21.19,0,.09.09.17.21.17h0ZM1043.44,1069.49c.56,0,1.02-.41,1.02-.9s-.46-.9-1.02-.9-1.04.4-1.04.9.46.9,1.04.9h0ZM1006.48,1070.29c1.07,0,1.94-.77,1.94-1.71s-.87-1.7-1.94-1.7-1.95.76-1.95,1.7.86,1.71,1.95,1.71h0ZM969.53,1071c1.52,0,2.76-1.08,2.76-2.41s-1.24-2.42-2.76-2.42-2.76,1.08-2.76,2.42,1.23,2.41,2.76,2.41h0ZM932.57,1071.64c1.92,0,3.48-1.37,3.48-3.05s-1.55-3.05-3.48-3.05-3.5,1.36-3.5,3.05,1.57,3.05,3.5,3.05h0ZM895.62,1072.35c2.37,0,4.3-1.69,4.3-3.76s-1.93-3.77-4.3-3.77-4.31,1.69-4.31,3.77,1.92,3.76,4.31,3.76h0ZM858.65,1072.88c2.72,0,4.92-1.93,4.92-4.3s-2.2-4.31-4.92-4.31-4.91,1.93-4.91,4.31,2.2,4.3,4.91,4.3h0ZM821.7,1073.42c3.06,0,5.54-2.17,5.54-4.84s-2.48-4.84-5.54-4.84-5.53,2.17-5.53,4.84,2.49,4.84,5.53,4.84h0ZM784.75,1073.96c3.4,0,6.14-2.4,6.14-5.37s-2.74-5.39-6.14-5.39-6.15,2.41-6.15,5.39,2.76,5.37,6.15,5.37h0ZM747.79,1074.41c3.68,0,6.66-2.61,6.66-5.82s-2.98-5.83-6.66-5.83-6.67,2.61-6.67,5.83,2.99,5.82,6.67,5.82h0ZM710.83,1074.68c3.85,0,6.97-2.73,6.97-6.1s-3.12-6.09-6.97-6.09-6.96,2.73-6.96,6.09,3.12,6.1,6.96,6.1h0ZM673.88,1074.95c4.02,0,7.28-2.85,7.28-6.36s-3.26-6.37-7.28-6.37-7.28,2.85-7.28,6.37,3.26,6.36,7.28,6.36h0ZM636.92,1075.13c4.13,0,7.48-2.93,7.48-6.54s-3.35-6.54-7.48-6.54-7.48,2.92-7.48,6.54,3.35,6.54,7.48,6.54h0ZM599.97,1075.13c4.12,0,7.48-2.93,7.48-6.54s-3.35-6.54-7.48-6.54-7.49,2.92-7.49,6.54,3.35,6.54,7.49,6.54h0ZM563.01,1075.13c4.13,0,7.48-2.93,7.48-6.54s-3.34-6.54-7.48-6.54-7.48,2.92-7.48,6.54,3.35,6.54,7.48,6.54h0ZM526.05,1074.95c4.02,0,7.28-2.85,7.28-6.36s-3.26-6.37-7.28-6.37-7.28,2.85-7.28,6.37,3.26,6.36,7.28,6.36h0ZM489.09,1074.68c3.85,0,6.97-2.73,6.97-6.1s-3.13-6.09-6.97-6.09-6.97,2.73-6.97,6.09,3.13,6.1,6.97,6.1h0ZM452.14,1074.32c3.62,0,6.56-2.57,6.56-5.73s-2.94-5.74-6.56-5.74-6.55,2.57-6.55,5.74,2.94,5.73,6.55,5.73h0ZM415.19,1073.96c3.39,0,6.15-2.4,6.15-5.37s-2.76-5.39-6.15-5.39-6.15,2.41-6.15,5.39,2.75,5.37,6.15,5.37h0ZM378.23,1073.42c3.06,0,5.53-2.17,5.53-4.84s-2.47-4.84-5.53-4.84-5.53,2.17-5.53,4.84,2.47,4.84,5.53,4.84h0ZM341.27,1072.88c2.72,0,4.92-1.93,4.92-4.3s-2.21-4.31-4.92-4.31-4.91,1.93-4.91,4.31,2.2,4.3,4.91,4.3h0ZM304.32,1072.26c2.32,0,4.2-1.64,4.2-3.67s-1.88-3.68-4.2-3.68-4.2,1.65-4.2,3.68,1.88,3.67,4.2,3.67h0ZM267.36,1071.64c1.92,0,3.49-1.37,3.49-3.05s-1.57-3.05-3.49-3.05-3.49,1.36-3.49,3.05,1.56,3.05,3.49,3.05h0ZM230.4,1070.92c1.47,0,2.67-1.04,2.67-2.33s-1.2-2.34-2.67-2.34-2.66,1.05-2.66,2.34,1.19,2.33,2.66,2.33h0ZM193.44,1070.2c1.02,0,1.85-.72,1.85-1.61s-.82-1.62-1.85-1.62-1.84.72-1.84,1.62.83,1.61,1.84,1.61h0ZM156.49,1069.49c.57,0,1.03-.41,1.03-.9s-.46-.9-1.03-.9-1.02.4-1.02.9.46.9,1.02.9h0ZM119.54,1068.76c.11,0,.21-.08.21-.17,0-.1-.1-.19-.21-.19s-.21.08-.21.19c0,.09.1.17.21.17h0ZM1117.35,1036.34c.05,0,.1-.03.1-.08s-.05-.09-.1-.09c-.06,0-.11.04-.11.09s.04.08.11.08h0ZM1080.4,1036.97c.45,0,.82-.32.82-.72s-.37-.72-.82-.72-.83.32-.83.72.37.72.83.72h0ZM1043.44,1037.69c.9,0,1.63-.64,1.63-1.43s-.73-1.43-1.63-1.43-1.65.64-1.65,1.43.73,1.43,1.65,1.43h0ZM1006.48,1038.5c1.41,0,2.56-1.01,2.56-2.24s-1.15-2.24-2.56-2.24-2.56,1-2.56,2.24,1.14,2.24,2.56,2.24h0ZM969.53,1039.31c1.93,0,3.49-1.37,3.49-3.05s-1.56-3.05-3.49-3.05-3.48,1.36-3.48,3.05,1.55,3.05,3.48,3.05h0ZM932.57,1040.02c2.37,0,4.3-1.69,4.3-3.77s-1.93-3.76-4.3-3.76-4.31,1.68-4.31,3.76,1.92,3.77,4.31,3.77h0ZM895.62,1040.65c2.77,0,5.02-1.97,5.02-4.39s-2.25-4.39-5.02-4.39-5.03,1.96-5.03,4.39,2.25,4.39,5.03,4.39h0ZM858.65,1041.27c3.17,0,5.74-2.25,5.74-5.02s-2.57-5.03-5.74-5.03-5.73,2.25-5.73,5.03,2.56,5.02,5.73,5.02h0ZM821.7,1041.9c3.56,0,6.45-2.52,6.45-5.64s-2.89-5.65-6.45-5.65-6.46,2.53-6.46,5.65,2.9,5.64,6.46,5.64h0ZM784.75,1042.44c3.9,0,7.07-2.77,7.07-6.18s-3.16-6.18-7.07-6.18-7.08,2.76-7.08,6.18,3.17,6.18,7.08,6.18h0ZM747.79,1042.89c4.18,0,7.58-2.97,7.58-6.63s-3.4-6.63-7.58-6.63-7.58,2.97-7.58,6.63,3.39,6.63,7.58,6.63h0ZM710.83,1043.25c4.42,0,7.99-3.13,7.99-6.99s-3.57-6.99-7.99-6.99-7.99,3.13-7.99,6.99,3.58,6.99,7.99,6.99h0ZM673.88,1043.51c4.59,0,8.3-3.25,8.3-7.26s-3.7-7.26-8.3-7.26-8.3,3.25-8.3,7.26,3.71,7.26,8.3,7.26h0ZM636.92,1043.7c4.7,0,8.51-3.33,8.51-7.44s-3.81-7.44-8.51-7.44-8.5,3.33-8.5,7.44,3.81,7.44,8.5,7.44h0ZM599.97,1043.78c4.76,0,8.6-3.37,8.6-7.53s-3.84-7.53-8.6-7.53-8.61,3.37-8.61,7.53,3.85,7.53,8.61,7.53h0ZM563.01,1043.7c4.7,0,8.5-3.33,8.5-7.44s-3.8-7.44-8.5-7.44-8.51,3.33-8.51,7.44,3.8,7.44,8.51,7.44h0ZM526.05,1043.51c4.59,0,8.3-3.25,8.3-7.26s-3.7-7.26-8.3-7.26-8.3,3.25-8.3,7.26,3.72,7.26,8.3,7.26h0ZM489.09,1043.25c4.42,0,7.99-3.13,7.99-6.99s-3.57-6.99-7.99-6.99-7.99,3.13-7.99,6.99,3.57,6.99,7.99,6.99h0ZM452.14,1042.89c4.18,0,7.58-2.97,7.58-6.63s-3.4-6.63-7.58-6.63-7.58,2.97-7.58,6.63,3.39,6.63,7.58,6.63h0ZM415.19,1042.35c3.84,0,6.96-2.72,6.96-6.09s-3.12-6.1-6.96-6.1-6.97,2.73-6.97,6.1,3.12,6.09,6.97,6.09h0ZM378.23,1041.9c3.57,0,6.46-2.52,6.46-5.64s-2.89-5.65-6.46-5.65-6.45,2.53-6.45,5.65,2.89,5.64,6.45,5.64h0ZM341.27,1041.27c3.17,0,5.74-2.25,5.74-5.02s-2.57-5.03-5.74-5.03-5.74,2.25-5.74,5.03,2.57,5.02,5.74,5.02h0ZM304.32,1040.65c2.77,0,5.02-1.97,5.02-4.39s-2.25-4.39-5.02-4.39-5.02,1.96-5.02,4.39,2.25,4.39,5.02,4.39h0ZM267.36,1039.93c2.32,0,4.21-1.65,4.21-3.68s-1.88-3.68-4.21-3.68-4.2,1.65-4.2,3.68,1.88,3.68,4.2,3.68h0ZM230.4,1039.21c1.87,0,3.39-1.32,3.39-2.96s-1.52-2.96-3.39-2.96-3.38,1.32-3.38,2.96,1.52,2.96,3.38,2.96h0ZM193.44,1038.41c1.36,0,2.46-.97,2.46-2.15s-1.1-2.16-2.46-2.16-2.46.97-2.46,2.16,1.11,2.15,2.46,2.15h0ZM156.49,1037.69c.91,0,1.64-.64,1.64-1.43s-.73-1.43-1.64-1.43-1.64.64-1.64,1.43.73,1.43,1.64,1.43h0ZM119.54,1036.88c.4,0,.72-.28.72-.62s-.32-.63-.72-.63-.72.27-.72.63.32.62.72.62h0ZM1117.35,1004.29c.22,0,.41-.16.41-.37,0-.19-.19-.35-.41-.35s-.42.16-.42.35c0,.21.19.37.42.37h0ZM1080.4,1005.09c.73,0,1.32-.52,1.32-1.17s-.59-1.16-1.32-1.16-1.34.52-1.34,1.16.6,1.17,1.34,1.17h0ZM1043.44,1005.89c1.24,0,2.25-.88,2.25-1.97s-1.01-1.97-2.25-1.97-2.26.88-2.26,1.97,1,1.97,2.26,1.97h0ZM1006.48,1006.7c1.76,0,3.18-1.25,3.18-2.78s-1.42-2.78-3.18-2.78-3.18,1.24-3.18,2.78,1.43,2.78,3.18,2.78h0ZM969.53,1007.51c2.27,0,4.1-1.61,4.1-3.59s-1.83-3.58-4.1-3.58-4.1,1.61-4.1,3.58,1.84,3.59,4.1,3.59h0ZM932.57,1008.23c2.71,0,4.92-1.93,4.92-4.31s-2.21-4.3-4.92-4.3-4.92,1.93-4.92,4.3,2.2,4.31,4.92,4.31h0ZM895.62,1008.94c3.16,0,5.73-2.25,5.73-5.02s-2.57-5.02-5.73-5.02-5.75,2.25-5.75,5.02,2.56,5.02,5.75,5.02h0ZM858.65,1009.66c3.62,0,6.55-2.57,6.55-5.74s-2.94-5.73-6.55-5.73-6.56,2.57-6.56,5.73,2.94,5.74,6.56,5.74h0ZM821.7,1010.29c4.02,0,7.28-2.84,7.28-6.37s-3.26-6.36-7.28-6.36-7.28,2.85-7.28,6.36,3.26,6.37,7.28,6.37h0ZM784.75,1010.92c4.42,0,7.99-3.13,7.99-7s-3.58-6.99-7.99-6.99-7.99,3.13-7.99,6.99,3.57,7,7.99,7h0ZM747.79,1011.46c4.75,0,8.6-3.37,8.6-7.53s-3.85-7.52-8.6-7.52-8.61,3.37-8.61,7.52,3.85,7.53,8.61,7.53h0ZM710.83,1011.81c4.98,0,9.02-3.53,9.02-7.89s-4.04-7.88-9.02-7.88-9.02,3.53-9.02,7.88,4.04,7.89,9.02,7.89h0ZM673.88,1012.17c5.21,0,9.43-3.69,9.43-8.25s-4.22-8.24-9.43-8.24-9.43,3.69-9.43,8.24,4.23,8.25,9.43,8.25h0ZM636.92,1012.35c5.32,0,9.63-3.78,9.63-8.43s-4.31-8.43-9.63-8.43-9.63,3.78-9.63,8.43,4.31,8.43,9.63,8.43h0ZM599.97,1012.44c5.38,0,9.74-3.81,9.74-8.52s-4.36-8.51-9.74-8.51-9.73,3.81-9.73,8.51,4.36,8.52,9.73,8.52h0ZM563.01,1012.35c5.32,0,9.63-3.78,9.63-8.43s-4.32-8.43-9.63-8.43-9.64,3.78-9.64,8.43,4.31,8.43,9.64,8.43h0ZM526.05,1012.17c5.21,0,9.43-3.69,9.43-8.25s-4.22-8.24-9.43-8.24-9.43,3.69-9.43,8.24,4.23,8.25,9.43,8.25h0ZM489.09,1011.81c4.98,0,9.02-3.53,9.02-7.89s-4.04-7.88-9.02-7.88-9.01,3.53-9.01,7.88,4.04,7.89,9.01,7.89h0ZM452.14,1011.37c4.7,0,8.51-3.33,8.51-7.45s-3.81-7.43-8.51-7.43-8.51,3.33-8.51,7.43,3.81,7.45,8.51,7.45h0ZM415.19,1010.83c4.36,0,7.88-3.1,7.88-6.91s-3.53-6.9-7.88-6.9-7.9,3.09-7.9,6.9,3.54,6.91,7.9,6.91h0ZM378.23,1010.29c4.02,0,7.27-2.84,7.27-6.37s-3.26-6.36-7.27-6.36-7.28,2.85-7.28,6.36,3.26,6.37,7.28,6.37h0ZM341.27,1009.57c3.56,0,6.46-2.52,6.46-5.65s-2.9-5.64-6.46-5.64-6.45,2.53-6.45,5.64,2.89,5.65,6.45,5.65h0ZM304.32,1008.94c3.17,0,5.74-2.25,5.74-5.02s-2.57-5.02-5.74-5.02-5.74,2.25-5.74,5.02,2.57,5.02,5.74,5.02h0ZM267.36,1008.14c2.66,0,4.81-1.88,4.81-4.22s-2.15-4.21-4.81-4.21-4.82,1.88-4.82,4.21,2.16,4.22,4.82,4.22h0ZM230.4,1007.42c2.21,0,4-1.56,4-3.5s-1.79-3.49-4-3.49-3.99,1.57-3.99,3.49,1.78,3.5,3.99,3.5h0ZM193.44,1006.61c1.71,0,3.08-1.21,3.08-2.69s-1.37-2.68-3.08-2.68-3.07,1.21-3.07,2.68,1.38,2.69,3.07,2.69h0ZM156.49,1005.81c1.2,0,2.15-.85,2.15-1.89s-.96-1.88-2.15-1.88-2.14.84-2.14,1.88.96,1.89,2.14,1.89h0ZM119.54,1005c.68,0,1.23-.48,1.23-1.08s-.55-1.08-1.23-1.08-1.23.49-1.23,1.08.56,1.08,1.23,1.08h0ZM82.57,1004.19c.18,0,.32-.12.32-.27,0-.14-.15-.27-.32-.27-.15,0-.3.12-.3.27,0,.15.15.27.3.27h0ZM1154.31,971.69c.05,0,.1-.04.1-.09,0-.05-.05-.09-.1-.09-.06,0-.1.04-.1.09,0,.05.04.09.1.09h0ZM1117.35,972.31c.45,0,.82-.32.82-.72s-.37-.72-.82-.72-.83.32-.83.72.37.72.83.72h0ZM1080.4,973.12c.96,0,1.73-.68,1.73-1.53s-.78-1.52-1.73-1.52-1.74.68-1.74,1.52.78,1.53,1.74,1.53h0ZM1043.44,974.02c1.51,0,2.76-1.08,2.76-2.43s-1.25-2.42-2.76-2.42-2.77,1.08-2.77,2.42,1.24,2.43,2.77,2.43h0ZM1006.48,974.91c2.1,0,3.79-1.48,3.79-3.31s-1.69-3.32-3.79-3.32-3.8,1.49-3.8,3.32,1.7,3.31,3.8,3.31h0ZM969.53,975.72c2.61,0,4.72-1.85,4.72-4.13s-2.11-4.12-4.72-4.12-4.71,1.85-4.71,4.12,2.11,4.13,4.71,4.13h0ZM932.57,976.43c3.05,0,5.53-2.17,5.53-4.84s-2.48-4.84-5.53-4.84-5.53,2.17-5.53,4.84,2.48,4.84,5.53,4.84h0ZM895.62,977.24c3.56,0,6.45-2.53,6.45-5.65s-2.89-5.65-6.45-5.65-6.47,2.54-6.47,5.65,2.89,5.65,6.47,5.65h0ZM858.65,977.96c4.02,0,7.28-2.84,7.28-6.37s-3.26-6.36-7.28-6.36-7.28,2.84-7.28,6.36,3.26,6.37,7.28,6.37h0ZM821.7,978.68c4.47,0,8.1-3.17,8.1-7.08s-3.62-7.08-8.1-7.08-8.1,3.18-8.1,7.08,3.62,7.08,8.1,7.08h0ZM784.75,979.3c4.87,0,8.81-3.45,8.81-7.71s-3.94-7.71-8.81-7.71-8.82,3.45-8.82,7.71,3.95,7.71,8.82,7.71h0ZM747.79,979.93c5.26,0,9.53-3.74,9.53-8.34s-4.27-8.33-9.53-8.33-9.53,3.74-9.53,8.33,4.27,8.34,9.53,8.34h0ZM710.83,980.39c5.55,0,10.05-3.93,10.05-8.79s-4.5-8.78-10.05-8.78-10.04,3.93-10.04,8.78,4.5,8.79,10.04,8.79h0ZM673.88,980.74c5.77,0,10.45-4.1,10.45-9.15s-4.68-9.14-10.45-9.14-10.45,4.1-10.45,9.14,4.68,9.15,10.45,9.15h0ZM636.92,980.92c5.9,0,10.66-4.18,10.66-9.33s-4.77-9.31-10.66-9.31-10.66,4.17-10.66,9.31,4.77,9.33,10.66,9.33h0ZM599.97,981.01c5.94,0,10.76-4.21,10.76-9.41s-4.82-9.41-10.76-9.41-10.76,4.22-10.76,9.41,4.82,9.41,10.76,9.41h0ZM563.01,980.92c5.89,0,10.65-4.18,10.65-9.33s-4.77-9.31-10.65-9.31-10.66,4.17-10.66,9.31,4.78,9.33,10.66,9.33h0ZM526.05,980.65c5.73,0,10.35-4.06,10.35-9.06s-4.63-9.05-10.35-9.05-10.35,4.05-10.35,9.05,4.64,9.06,10.35,9.06h0ZM489.09,980.29c5.49,0,9.95-3.9,9.95-8.7s-4.45-8.69-9.95-8.69-9.94,3.89-9.94,8.69,4.45,8.7,9.94,8.7h0ZM452.14,979.84c5.2,0,9.43-3.69,9.43-8.25s-4.23-8.24-9.43-8.24-9.43,3.69-9.43,8.24,4.22,8.25,9.43,8.25h0ZM415.19,979.3c4.86,0,8.81-3.45,8.81-7.71s-3.95-7.71-8.81-7.71-8.82,3.45-8.82,7.71,3.94,7.71,8.82,7.71h0ZM378.23,978.59c4.42,0,7.99-3.13,7.99-7s-3.57-6.99-7.99-6.99-7.99,3.13-7.99,6.99,3.59,7,7.99,7h0ZM341.27,977.96c4.02,0,7.28-2.84,7.28-6.37s-3.26-6.36-7.28-6.36-7.28,2.84-7.28,6.36,3.26,6.37,7.28,6.37h0ZM304.32,977.15c3.51,0,6.35-2.48,6.35-5.56s-2.84-5.56-6.35-5.56-6.35,2.49-6.35,5.56,2.85,5.56,6.35,5.56h0ZM267.36,976.43c3.05,0,5.53-2.17,5.53-4.84s-2.49-4.84-5.53-4.84-5.53,2.17-5.53,4.84,2.48,4.84,5.53,4.84h0ZM230.4,975.63c2.55,0,4.62-1.81,4.62-4.04s-2.06-4.03-4.62-4.03-4.6,1.8-4.6,4.03,2.06,4.04,4.6,4.04h0ZM193.44,974.83c2.05,0,3.7-1.45,3.7-3.23s-1.65-3.22-3.7-3.22-3.69,1.45-3.69,3.22,1.66,3.23,3.69,3.23h0ZM156.49,973.92c1.47,0,2.67-1.04,2.67-2.33s-1.19-2.33-2.67-2.33-2.67,1.05-2.67,2.33,1.2,2.33,2.67,2.33h0ZM119.54,973.12c.97,0,1.74-.68,1.74-1.53s-.78-1.52-1.74-1.52-1.74.68-1.74,1.52.77,1.53,1.74,1.53h0ZM82.57,972.23c.4,0,.72-.28.72-.63s-.32-.62-.72-.62-.71.28-.71.62.33.63.71.63h0ZM1154.31,939.45c.11,0,.21-.08.21-.18s-.1-.17-.21-.17-.2.07-.2.17.09.18.2.18h0ZM1117.35,940.34c.67,0,1.23-.48,1.23-1.07s-.56-1.08-1.23-1.08-1.24.48-1.24,1.08.56,1.07,1.24,1.07h0ZM1080.4,941.24c1.24,0,2.26-.88,2.26-1.97s-1.02-1.97-2.26-1.97-2.26.88-2.26,1.97,1,1.97,2.26,1.97h0ZM1043.44,942.13c1.8,0,3.28-1.28,3.28-2.87s-1.47-2.87-3.28-2.87-3.29,1.28-3.29,2.87,1.48,2.87,3.29,2.87h0ZM1006.48,942.94c2.31,0,4.2-1.64,4.2-3.67s-1.88-3.67-4.2-3.67-4.21,1.64-4.21,3.67,1.88,3.67,4.21,3.67h0ZM969.53,943.84c2.89,0,5.23-2.04,5.23-4.57s-2.34-4.58-5.23-4.58-5.22,2.05-5.22,4.58,2.33,4.57,5.22,4.57h0ZM932.57,944.65c3.4,0,6.14-2.41,6.14-5.38s-2.75-5.37-6.14-5.37-6.15,2.41-6.15,5.37,2.75,5.38,6.15,5.38h0ZM895.62,945.45c3.9,0,7.07-2.77,7.07-6.19s-3.16-6.18-7.07-6.18-7.08,2.77-7.08,6.18,3.16,6.19,7.08,6.19h0ZM858.65,946.26c4.42,0,7.99-3.13,7.99-6.99s-3.57-6.99-7.99-6.99-7.99,3.13-7.99,6.99,3.58,6.99,7.99,6.99h0ZM821.7,946.98c4.87,0,8.81-3.45,8.81-7.71s-3.94-7.71-8.81-7.71-8.82,3.46-8.82,7.71,3.96,7.71,8.82,7.71h0ZM784.75,947.69c5.31,0,9.63-3.76,9.63-8.42s-4.32-8.42-9.63-8.42-9.64,3.77-9.64,8.42,4.32,8.42,9.64,8.42h0ZM747.79,948.32c5.72,0,10.34-4.06,10.34-9.06s-4.63-9.06-10.34-9.06-10.35,4.06-10.35,9.06,4.63,9.06,10.35,9.06h0ZM710.83,948.86c6.05,0,10.96-4.29,10.96-9.59s-4.91-9.59-10.96-9.59-10.96,4.3-10.96,9.59,4.9,9.59,10.96,9.59h0ZM673.88,949.31c6.35,0,11.48-4.49,11.48-10.04s-5.13-10.03-11.48-10.03-11.48,4.49-11.48,10.03,5.14,10.04,11.48,10.04h0ZM636.92,949.58c6.51,0,11.8-4.62,11.8-10.32s-5.28-10.31-11.8-10.31-11.79,4.61-11.79,10.31,5.28,10.32,11.79,10.32h0ZM599.97,949.66c6.57,0,11.89-4.66,11.89-10.4s-5.32-10.4-11.89-10.4-11.89,4.66-11.89,10.4,5.33,10.4,11.89,10.4h0ZM563.01,949.58c6.51,0,11.79-4.62,11.79-10.32s-5.27-10.31-11.79-10.31-11.79,4.61-11.79,10.31,5.28,10.32,11.79,10.32h0ZM526.05,949.22c6.29,0,11.38-4.45,11.38-9.95s-5.1-9.95-11.38-9.95-11.37,4.45-11.37,9.95,5.09,9.95,11.37,9.95h0ZM489.09,948.77c6.01,0,10.86-4.26,10.86-9.51s-4.85-9.5-10.86-9.5-10.86,4.26-10.86,9.5,4.86,9.51,10.86,9.51h0ZM452.14,948.32c5.72,0,10.34-4.06,10.34-9.06s-4.63-9.06-10.34-9.06-10.35,4.06-10.35,9.06,4.64,9.06,10.35,9.06h0ZM415.19,947.69c5.31,0,9.63-3.76,9.63-8.42s-4.31-8.42-9.63-8.42-9.64,3.77-9.64,8.42,4.31,8.42,9.64,8.42h0ZM378.23,946.98c4.87,0,8.82-3.45,8.82-7.71s-3.95-7.71-8.82-7.71-8.81,3.46-8.81,7.71,3.94,7.71,8.81,7.71h0ZM341.27,946.17c4.36,0,7.89-3.1,7.89-6.91s-3.53-6.9-7.89-6.9-7.89,3.09-7.89,6.9,3.53,6.91,7.89,6.91h0ZM304.32,945.36c3.85,0,6.97-2.73,6.97-6.1s-3.13-6.09-6.97-6.09-6.96,2.73-6.96,6.09,3.11,6.1,6.96,6.1h0ZM267.36,944.56c3.34,0,6.05-2.37,6.05-5.29s-2.71-5.28-6.05-5.28-6.05,2.36-6.05,5.28,2.71,5.29,6.05,5.29h0ZM230.4,943.75c2.84,0,5.12-2.01,5.12-4.48s-2.28-4.48-5.12-4.48-5.12,2.01-5.12,4.48,2.29,4.48,5.12,4.48h0ZM193.44,942.86c2.27,0,4.11-1.61,4.11-3.59s-1.84-3.58-4.11-3.58-4.1,1.61-4.1,3.58,1.83,3.59,4.1,3.59h0ZM156.49,942.05c1.76,0,3.18-1.24,3.18-2.78s-1.42-2.77-3.18-2.77-3.17,1.24-3.17,2.77,1.42,2.78,3.17,2.78h0ZM119.54,941.15c1.18,0,2.15-.84,2.15-1.88s-.97-1.88-2.15-1.88-2.14.84-2.14,1.88.96,1.88,2.14,1.88h0ZM82.57,940.25c.64,0,1.13-.43,1.13-.99s-.5-.98-1.13-.98-1.11.44-1.11.98.49.99,1.11.99h0ZM45.63,939.45c.11,0,.21-.08.21-.18s-.1-.17-.21-.17-.21.07-.21.17.1.18.21.18h0ZM1154.31,907.39c.29,0,.52-.21.52-.45s-.23-.45-.52-.45-.52.21-.52.45.23.45.52.45h0ZM1117.35,908.28c.85,0,1.53-.6,1.53-1.34s-.69-1.35-1.53-1.35-1.54.61-1.54,1.35.69,1.34,1.54,1.34h0ZM1080.4,909.18c1.41,0,2.56-1.01,2.56-2.24s-1.15-2.24-2.56-2.24-2.56,1.01-2.56,2.24,1.14,2.24,2.56,2.24h0ZM1043.44,910.07c1.97,0,3.58-1.4,3.58-3.13s-1.61-3.13-3.58-3.13-3.6,1.4-3.6,3.13,1.61,3.13,3.6,3.13h0ZM1006.48,910.97c2.54,0,4.62-1.8,4.62-4.03s-2.08-4.03-4.62-4.03-4.61,1.8-4.61,4.03,2.05,4.03,4.61,4.03h0ZM969.53,911.87c3.11,0,5.64-2.21,5.64-4.93s-2.53-4.93-5.64-4.93-5.63,2.21-5.63,4.93,2.52,4.93,5.63,4.93h0ZM932.57,912.76c3.68,0,6.66-2.61,6.66-5.82s-2.98-5.83-6.66-5.83-6.67,2.61-6.67,5.83,2.99,5.82,6.67,5.82h0ZM895.62,913.57c4.18,0,7.58-2.96,7.58-6.63s-3.4-6.63-7.58-6.63-7.58,2.96-7.58,6.63,3.39,6.63,7.58,6.63h0ZM858.65,914.47c4.75,0,8.61-3.37,8.61-7.53s-3.86-7.53-8.61-7.53-8.61,3.37-8.61,7.53,3.86,7.53,8.61,7.53h0ZM821.7,915.27c5.26,0,9.54-3.73,9.54-8.33s-4.27-8.34-9.54-8.34-9.53,3.74-9.53,8.34,4.27,8.33,9.53,8.33h0ZM784.75,915.99c5.72,0,10.34-4.06,10.34-9.06s-4.63-9.06-10.34-9.06-10.35,4.06-10.35,9.06,4.64,9.06,10.35,9.06h0ZM747.79,916.7c6.17,0,11.16-4.37,11.16-9.76s-4.99-9.77-11.16-9.77-11.17,4.38-11.17,9.77,5,9.76,11.17,9.76h0ZM710.83,917.34c6.56,0,11.9-4.66,11.9-10.4s-5.33-10.4-11.9-10.4-11.89,4.66-11.89,10.4,5.33,10.4,11.89,10.4h0ZM673.88,917.79c6.85,0,12.4-4.86,12.4-10.85s-5.55-10.85-12.4-10.85-12.4,4.86-12.4,10.85,5.55,10.85,12.4,10.85h0ZM636.92,918.15c7.08,0,12.82-5.02,12.82-11.21s-5.73-11.2-12.82-11.2-12.81,5.01-12.81,11.2,5.73,11.21,12.81,11.21h0ZM599.97,918.24c7.13,0,12.91-5.06,12.91-11.3s-5.78-11.3-12.91-11.3-12.92,5.06-12.92,11.3,5.78,11.3,12.92,11.3h0ZM563.01,918.15c7.07,0,12.8-5.02,12.8-11.21s-5.73-11.2-12.8-11.2-12.81,5.01-12.81,11.2,5.73,11.21,12.81,11.21h0ZM526.05,917.79c6.85,0,12.4-4.86,12.4-10.85s-5.55-10.85-12.4-10.85-12.4,4.86-12.4,10.85,5.56,10.85,12.4,10.85h0ZM489.09,917.25c6.51,0,11.79-4.61,11.79-10.31s-5.28-10.31-11.79-10.31-11.77,4.61-11.77,10.31,5.26,10.31,11.77,10.31h0ZM452.14,916.62c6.11,0,11.07-4.34,11.07-9.68s-4.96-9.68-11.07-9.68-11.07,4.34-11.07,9.68,4.96,9.68,11.07,9.68h0ZM415.19,915.91c5.66,0,10.24-4.02,10.24-8.97s-4.58-8.97-10.24-8.97-10.25,4.02-10.25,8.97,4.59,8.97,10.25,8.97h0ZM378.23,915.19c5.21,0,9.43-3.7,9.43-8.25s-4.22-8.25-9.43-8.25-9.42,3.7-9.42,8.25,4.21,8.25,9.42,8.25h0ZM341.27,914.38c4.7,0,8.51-3.33,8.51-7.44s-3.82-7.44-8.51-7.44-8.5,3.33-8.5,7.44,3.8,7.44,8.5,7.44h0ZM304.32,913.48c4.14,0,7.48-2.93,7.48-6.54s-3.34-6.54-7.48-6.54-7.49,2.93-7.49,6.54,3.35,6.54,7.49,6.54h0ZM267.36,912.68c3.62,0,6.56-2.57,6.56-5.74s-2.94-5.74-6.56-5.74-6.55,2.57-6.55,5.74,2.94,5.74,6.55,5.74h0ZM230.4,911.78c3.06,0,5.54-2.16,5.54-4.84s-2.49-4.84-5.54-4.84-5.53,2.17-5.53,4.84,2.48,4.84,5.53,4.84h0ZM193.44,910.88c2.49,0,4.51-1.76,4.51-3.94s-2.02-3.94-4.51-3.94-4.5,1.76-4.5,3.94,2.01,3.94,4.5,3.94h0ZM156.49,909.99c1.94,0,3.49-1.36,3.49-3.05s-1.55-3.05-3.49-3.05-3.48,1.37-3.48,3.05,1.55,3.05,3.48,3.05h0ZM119.54,909.09c1.36,0,2.46-.96,2.46-2.15s-1.09-2.15-2.46-2.15-2.47.96-2.47,2.15,1.11,2.15,2.47,2.15h0ZM82.57,908.19c.8,0,1.45-.56,1.45-1.26s-.64-1.26-1.45-1.26-1.43.56-1.43,1.26.64,1.26,1.43,1.26h0ZM45.63,907.3c.22,0,.41-.16.41-.36s-.18-.36-.41-.36-.42.16-.42.36.19.36.42.36h0ZM1154.31,875.24c.39,0,.71-.29.71-.63s-.32-.63-.71-.63-.72.29-.72.63.32.63.72.63h0ZM1117.35,876.14c.96,0,1.73-.69,1.73-1.53s-.78-1.53-1.73-1.53-1.74.69-1.74,1.53.79,1.53,1.74,1.53h0ZM1080.4,877.12c1.58,0,2.87-1.12,2.87-2.51s-1.29-2.52-2.87-2.52-2.87,1.13-2.87,2.52,1.27,2.51,2.87,2.51h0ZM1043.44,878.02c2.14,0,3.89-1.53,3.89-3.41s-1.74-3.41-3.89-3.41-3.91,1.52-3.91,3.41,1.75,3.41,3.91,3.41h0ZM1006.48,878.91c2.72,0,4.92-1.92,4.92-4.3s-2.2-4.3-4.92-4.3-4.92,1.92-4.92,4.3,2.21,4.3,4.92,4.3h0ZM969.53,879.81c3.28,0,5.94-2.33,5.94-5.2s-2.66-5.2-5.94-5.2-5.95,2.33-5.95,5.2,2.67,5.2,5.95,5.2h0ZM932.57,880.7c3.84,0,6.97-2.73,6.97-6.09s-3.13-6.1-6.97-6.1-6.97,2.73-6.97,6.1,3.12,6.09,6.97,6.09h0ZM895.62,881.6c4.41,0,7.99-3.13,7.99-6.99s-3.58-6.99-7.99-6.99-7.99,3.13-7.99,6.99,3.57,6.99,7.99,6.99h0ZM858.65,882.5c4.99,0,9.02-3.54,9.02-7.89s-4.03-7.89-9.02-7.89-9.02,3.52-9.02,7.89,4.04,7.89,9.02,7.89h0ZM821.7,883.39c5.55,0,10.05-3.93,10.05-8.78s-4.5-8.78-10.05-8.78-10.04,3.92-10.04,8.78,4.49,8.78,10.04,8.78h0ZM784.75,884.2c6.05,0,10.96-4.29,10.96-9.59s-4.92-9.59-10.96-9.59-10.96,4.29-10.96,9.59,4.91,9.59,10.96,9.59h0ZM747.79,885.01c6.56,0,11.89-4.66,11.89-10.4s-5.33-10.4-11.89-10.4-11.9,4.66-11.9,10.4,5.33,10.4,11.9,10.4h0ZM710.83,885.72c7.02,0,12.71-4.98,12.71-11.11s-5.68-11.12-12.71-11.12-12.71,4.98-12.71,11.12,5.69,11.11,12.71,11.11h0ZM673.88,886.26c7.35,0,13.33-5.21,13.33-11.65s-5.97-11.66-13.33-11.66-13.32,5.22-13.32,11.66,5.96,11.65,13.32,11.65h0ZM636.92,886.71c7.65,0,13.84-5.42,13.84-12.1s-6.19-12.1-13.84-12.1-13.83,5.42-13.83,12.1,6.19,12.1,13.83,12.1h0ZM599.97,886.89c7.75,0,14.04-5.5,14.04-12.28s-6.3-12.28-14.04-12.28-14.04,5.5-14.04,12.28,6.29,12.28,14.04,12.28h0ZM563.01,886.71c7.64,0,13.83-5.42,13.83-12.1s-6.2-12.1-13.83-12.1-13.83,5.42-13.83,12.1,6.19,12.1,13.83,12.1h0ZM526.05,886.26c7.36,0,13.33-5.21,13.33-11.65s-5.96-11.66-13.33-11.66-13.32,5.22-13.32,11.66,5.97,11.65,13.32,11.65h0ZM489.09,885.63c6.97,0,12.61-4.94,12.61-11.02s-5.64-11.02-12.61-11.02-12.6,4.93-12.6,11.02,5.64,11.02,12.6,11.02h0ZM452.14,884.92c6.51,0,11.78-4.61,11.78-10.31s-5.27-10.32-11.78-10.32-11.78,4.62-11.78,10.32,5.27,10.31,11.78,10.31h0ZM415.19,884.11c5.99,0,10.86-4.25,10.86-9.5s-4.86-9.51-10.86-9.51-10.86,4.26-10.86,9.51,4.86,9.5,10.86,9.5h0ZM378.23,883.3c5.49,0,9.94-3.89,9.94-8.69s-4.45-8.7-9.94-8.7-9.94,3.9-9.94,8.7,4.44,8.69,9.94,8.69h0ZM341.27,882.5c4.98,0,9.02-3.54,9.02-7.89s-4.04-7.89-9.02-7.89-9.02,3.52-9.02,7.89,4.04,7.89,9.02,7.89h0ZM304.32,881.51c4.36,0,7.89-3.09,7.89-6.9s-3.53-6.91-7.89-6.91-7.89,3.1-7.89,6.91,3.53,6.9,7.89,6.9h0ZM267.36,880.7c3.85,0,6.96-2.73,6.96-6.09s-3.11-6.1-6.96-6.1-6.96,2.73-6.96,6.1,3.11,6.09,6.96,6.09h0ZM230.4,879.81c3.28,0,5.95-2.33,5.95-5.2s-2.67-5.2-5.95-5.2-5.94,2.33-5.94,5.2,2.66,5.2,5.94,5.2h0ZM193.44,878.82c2.67,0,4.82-1.88,4.82-4.21s-2.15-4.22-4.82-4.22-4.81,1.89-4.81,4.22,2.16,4.21,4.81,4.21h0ZM156.49,877.93c2.09,0,3.8-1.49,3.8-3.32s-1.71-3.32-3.8-3.32-3.79,1.48-3.79,3.32,1.7,3.32,3.79,3.32h0ZM119.54,877.03c1.53,0,2.77-1.08,2.77-2.42s-1.24-2.42-2.77-2.42-2.77,1.09-2.77,2.42,1.25,2.42,2.77,2.42h0ZM82.57,876.14c.98,0,1.75-.69,1.75-1.53s-.78-1.53-1.75-1.53-1.73.69-1.73,1.53.78,1.53,1.73,1.53h0ZM45.63,875.15c.33,0,.62-.24.62-.53s-.29-.54-.62-.54c-.35,0-.62.25-.62.54s.28.53.62.53h0ZM1191.27,842.37s.1-.04.1-.09-.06-.09-.1-.09c-.06,0-.11.04-.11.09s.05.09.11.09h0ZM1154.31,843.09c.5,0,.92-.36.92-.81s-.42-.81-.92-.81-.92.36-.92.81.42.81.92.81h0ZM1117.35,843.98c1.07,0,1.94-.76,1.94-1.7s-.87-1.71-1.94-1.71-1.95.76-1.95,1.71.87,1.7,1.95,1.7h0ZM1080.4,844.97c1.69,0,3.07-1.2,3.07-2.69s-1.38-2.69-3.07-2.69-3.09,1.21-3.09,2.69,1.39,2.69,3.09,2.69h0ZM1043.44,845.86c2.26,0,4.09-1.6,4.09-3.58s-1.83-3.59-4.09-3.59-4.11,1.61-4.11,3.59,1.84,3.58,4.11,3.58h0ZM1006.48,846.77c2.83,0,5.12-2.01,5.12-4.48s-2.29-4.48-5.12-4.48-5.13,2-5.13,4.48,2.29,4.48,5.13,4.48h0ZM969.53,847.75c3.45,0,6.25-2.45,6.25-5.47s-2.8-5.47-6.25-5.47-6.26,2.45-6.26,5.47,2.81,5.47,6.26,5.47h0ZM932.57,848.64c4.02,0,7.28-2.85,7.28-6.36s-3.26-6.37-7.28-6.37-7.28,2.85-7.28,6.37,3.26,6.36,7.28,6.36h0ZM895.62,849.54c4.58,0,8.3-3.25,8.3-7.26s-3.72-7.26-8.3-7.26-8.3,3.25-8.3,7.26,3.71,7.26,8.3,7.26h0ZM858.65,850.53c5.21,0,9.43-3.69,9.43-8.25s-4.22-8.25-9.43-8.25-9.43,3.69-9.43,8.25,4.23,8.25,9.43,8.25h0ZM821.7,851.42c5.77,0,10.45-4.1,10.45-9.14s-4.68-9.15-10.45-9.15-10.45,4.1-10.45,9.15,4.68,9.14,10.45,9.14h0ZM784.75,852.32c6.33,0,11.47-4.5,11.47-10.04s-5.13-10.04-11.47-10.04-11.48,4.5-11.48,10.04,5.13,10.04,11.48,10.04h0ZM747.79,853.13c6.85,0,12.4-4.85,12.4-10.85s-5.55-10.85-12.4-10.85-12.4,4.85-12.4,10.85,5.55,10.85,12.4,10.85h0ZM710.83,853.93c7.36,0,13.33-5.22,13.33-11.65s-5.97-11.66-13.33-11.66-13.32,5.22-13.32,11.66,5.97,11.65,13.32,11.65h0ZM673.88,854.74c7.87,0,14.25-5.58,14.25-12.46s-6.38-12.46-14.25-12.46-14.25,5.58-14.25,12.46,6.39,12.46,14.25,12.46h0ZM636.92,855.27c8.21,0,14.86-5.81,14.86-12.99s-6.66-13-14.86-13-14.86,5.82-14.86,13,6.66,12.99,14.86,12.99h0ZM599.97,855.46c8.32,0,15.06-5.9,15.06-13.18s-6.74-13.18-15.06-13.18-15.07,5.9-15.07,13.18,6.75,13.18,15.07,13.18h0ZM563.01,855.27c8.2,0,14.86-5.81,14.86-12.99s-6.66-13-14.86-13-14.87,5.82-14.87,13,6.66,12.99,14.87,12.99h0ZM526.05,854.65c7.82,0,14.15-5.54,14.15-12.37s-6.33-12.37-14.15-12.37-14.14,5.54-14.14,12.37,6.33,12.37,14.14,12.37h0ZM489.09,853.93c7.36,0,13.32-5.22,13.32-11.65s-5.95-11.66-13.32-11.66-13.32,5.22-13.32,11.66,5.96,11.65,13.32,11.65h0ZM452.14,853.13c6.85,0,12.4-4.85,12.4-10.85s-5.55-10.85-12.4-10.85-12.4,4.85-12.4,10.85,5.56,10.85,12.4,10.85h0ZM415.19,852.24c6.27,0,11.37-4.46,11.37-9.95s-5.1-9.95-11.37-9.95-11.37,4.45-11.37,9.95,5.09,9.95,11.37,9.95h0ZM378.23,851.34c5.72,0,10.35-4.06,10.35-9.06s-4.63-9.05-10.35-9.05-10.35,4.05-10.35,9.05,4.64,9.06,10.35,9.06h0ZM341.27,850.44c5.15,0,9.32-3.65,9.32-8.16s-4.17-8.16-9.32-8.16-9.32,3.65-9.32,8.16,4.17,8.16,9.32,8.16h0ZM304.32,849.54c4.59,0,8.31-3.25,8.31-7.26s-3.72-7.26-8.31-7.26-8.29,3.25-8.29,7.26,3.72,7.26,8.29,7.26h0ZM267.36,848.56c3.97,0,7.17-2.81,7.17-6.28s-3.21-6.28-7.17-6.28-7.17,2.81-7.17,6.28,3.21,6.28,7.17,6.28h0ZM230.4,847.66c3.4,0,6.15-2.41,6.15-5.38s-2.75-5.38-6.15-5.38-6.14,2.41-6.14,5.38,2.76,5.38,6.14,5.38h0ZM193.44,846.77c2.83,0,5.12-2.01,5.12-4.48s-2.29-4.48-5.12-4.48-5.12,2-5.12,4.48,2.3,4.48,5.12,4.48h0ZM156.49,845.78c2.21,0,4-1.57,4-3.49s-1.79-3.49-4-3.49-3.99,1.56-3.99,3.49,1.79,3.49,3.99,3.49h0ZM119.54,844.88c1.64,0,2.98-1.16,2.98-2.6s-1.34-2.6-2.98-2.6-2.97,1.16-2.97,2.6,1.33,2.6,2.97,2.6h0ZM82.57,843.89c1.03,0,1.85-.72,1.85-1.61s-.82-1.62-1.85-1.62-1.83.72-1.83,1.62.82,1.61,1.83,1.61h0ZM45.63,843c.45,0,.82-.32.82-.72s-.37-.72-.82-.72-.82.32-.82.72.36.72.82.72h0ZM1191.27,810.04s.1-.04.1-.09c0-.05-.06-.09-.1-.09-.06,0-.11.03-.11.09,0,.05.05.09.11.09h0ZM1154.31,810.85c.57,0,1.02-.4,1.02-.9s-.45-.9-1.02-.9-1.03.4-1.03.9.46.9,1.03.9h0ZM1117.35,811.74c1.13,0,2.04-.8,2.04-1.79s-.91-1.8-2.04-1.8-2.05.81-2.05,1.8.91,1.79,2.05,1.79h0ZM1080.4,812.73c1.75,0,3.17-1.24,3.17-2.77s-1.42-2.78-3.17-2.78-3.18,1.24-3.18,2.78,1.43,2.77,3.18,2.77h0ZM1043.44,813.62c2.31,0,4.19-1.64,4.19-3.67s-1.88-3.68-4.19-3.68-4.21,1.64-4.21,3.68,1.88,3.67,4.21,3.67h0ZM1006.48,814.62c2.93,0,5.33-2.09,5.33-4.66s-2.4-4.66-5.33-4.66-5.33,2.09-5.33,4.66,2.38,4.66,5.33,4.66h0ZM969.53,815.6c3.57,0,6.45-2.53,6.45-5.65s-2.89-5.65-6.45-5.65-6.46,2.53-6.46,5.65,2.89,5.65,6.46,5.65h0ZM932.57,816.5c4.13,0,7.48-2.93,7.48-6.54s-3.35-6.55-7.48-6.55-7.49,2.93-7.49,6.55,3.35,6.54,7.49,6.54h0ZM895.62,817.39c4.7,0,8.5-3.33,8.5-7.44s-3.8-7.44-8.5-7.44-8.52,3.33-8.52,7.44,3.82,7.44,8.52,7.44h0ZM858.65,818.38c5.33,0,9.64-3.77,9.64-8.42s-4.31-8.43-9.64-8.43-9.63,3.77-9.63,8.43,4.32,8.42,9.63,8.42h0ZM821.7,819.27c5.88,0,10.66-4.18,10.66-9.32s-4.78-9.33-10.66-9.33-10.65,4.18-10.65,9.33,4.76,9.32,10.65,9.32h0ZM784.75,820.26c6.51,0,11.78-4.61,11.78-10.31s-5.27-10.31-11.78-10.31-11.79,4.61-11.79,10.31,5.28,10.31,11.79,10.31h0ZM747.79,821.16c7.07,0,12.8-5.02,12.8-11.2s-5.73-11.21-12.8-11.21-12.81,5.02-12.81,11.21,5.73,11.2,12.81,11.2h0ZM710.83,822.05c7.64,0,13.83-5.42,13.83-12.1s-6.19-12.1-13.83-12.1-13.82,5.41-13.82,12.1,6.19,12.1,13.82,12.1h0ZM673.88,822.95c8.21,0,14.86-5.82,14.86-13s-6.65-13-14.86-13-14.86,5.82-14.86,13,6.66,13,14.86,13h0ZM636.92,823.67c8.66,0,15.68-6.14,15.68-13.72s-7.03-13.72-15.68-13.72-15.68,6.14-15.68,13.72,7.02,13.72,15.68,13.72h0ZM599.97,824.02c8.88,0,16.08-6.3,16.08-14.07s-7.2-14.08-16.08-14.08-16.09,6.3-16.09,14.08,7.2,14.07,16.09,14.07h0ZM563.01,823.67c8.66,0,15.67-6.14,15.67-13.72s-7.01-13.72-15.67-13.72-15.68,6.14-15.68,13.72,7.02,13.72,15.68,13.72h0ZM526.05,822.86c8.15,0,14.76-5.78,14.76-12.9s-6.61-12.91-14.76-12.91-14.76,5.78-14.76,12.91,6.61,12.9,14.76,12.9h0ZM489.09,821.96c7.59,0,13.74-5.38,13.74-12.01s-6.15-12.01-13.74-12.01-13.73,5.38-13.73,12.01,6.14,12.01,13.73,12.01h0ZM452.14,821.07c7.01,0,12.71-4.98,12.71-11.12s-5.69-11.12-12.71-11.12-12.71,4.98-12.71,11.12,5.69,11.12,12.71,11.12h0ZM415.19,820.17c6.45,0,11.68-4.58,11.68-10.22s-5.23-10.22-11.68-10.22-11.68,4.58-11.68,10.22,5.22,10.22,11.68,10.22h0ZM378.23,819.19c5.83,0,10.55-4.13,10.55-9.23s-4.72-9.24-10.55-9.24-10.56,4.13-10.56,9.24,4.72,9.23,10.56,9.23h0ZM341.27,818.29c5.27,0,9.53-3.73,9.53-8.33s-4.26-8.34-9.53-8.34-9.53,3.73-9.53,8.34,4.27,8.33,9.53,8.33h0ZM304.32,817.3c4.64,0,8.41-3.29,8.41-7.35s-3.77-7.35-8.41-7.35-8.4,3.29-8.4,7.35,3.76,7.35,8.4,7.35h0ZM267.36,816.41c4.07,0,7.38-2.89,7.38-6.45s-3.3-6.46-7.38-6.46-7.38,2.89-7.38,6.46,3.31,6.45,7.38,6.45h0ZM230.4,815.51c3.52,0,6.36-2.49,6.36-5.56s-2.84-5.56-6.36-5.56-6.34,2.49-6.34,5.56,2.84,5.56,6.34,5.56h0ZM193.44,814.52c2.9,0,5.23-2.05,5.23-4.57s-2.33-4.57-5.23-4.57-5.22,2.04-5.22,4.57,2.33,4.57,5.22,4.57h0ZM156.49,813.62c2.33,0,4.2-1.64,4.2-3.67s-1.88-3.68-4.2-3.68-4.19,1.64-4.19,3.68,1.87,3.67,4.19,3.67h0ZM119.54,812.64c1.7,0,3.08-1.2,3.08-2.69s-1.38-2.7-3.08-2.7-3.08,1.21-3.08,2.7,1.38,2.69,3.08,2.69h0ZM82.57,811.65c1.09,0,1.95-.76,1.95-1.7s-.86-1.71-1.95-1.71-1.93.76-1.93,1.71.86,1.7,1.93,1.7h0ZM45.63,810.76c.5,0,.92-.36.92-.8s-.42-.81-.92-.81-.93.36-.93.81.42.8.93.8h0ZM8.67,810.04c.05,0,.11-.04.11-.09,0-.05-.05-.09-.11-.09-.06,0-.1.03-.1.09,0,.05.04.09.1.09h0ZM1191.27,777.71s.1-.04.1-.09-.06-.09-.1-.09c-.06,0-.11.04-.11.09s.05.09.11.09h0ZM1154.31,778.52c.57,0,1.02-.4,1.02-.9s-.45-.9-1.02-.9-1.03.4-1.03.9.46.9,1.03.9h0ZM1117.35,779.5c1.19,0,2.14-.84,2.14-1.88s-.96-1.88-2.14-1.88-2.15.85-2.15,1.88.96,1.88,2.15,1.88h0ZM1080.4,780.4c1.75,0,3.17-1.24,3.17-2.78s-1.42-2.78-3.17-2.78-3.18,1.25-3.18,2.78,1.43,2.78,3.18,2.78h0ZM1043.44,781.38c2.37,0,4.29-1.68,4.29-3.76s-1.92-3.77-4.29-3.77-4.32,1.68-4.32,3.77,1.93,3.76,4.32,3.76h0ZM1006.48,782.28c2.93,0,5.33-2.09,5.33-4.66s-2.4-4.66-5.33-4.66-5.33,2.08-5.33,4.66,2.38,4.66,5.33,4.66h0ZM969.53,783.27c3.57,0,6.45-2.53,6.45-5.65s-2.89-5.65-6.45-5.65-6.46,2.53-6.46,5.65,2.89,5.65,6.46,5.65h0ZM932.57,784.16c4.13,0,7.48-2.93,7.48-6.54s-3.35-6.55-7.48-6.55-7.49,2.93-7.49,6.55,3.35,6.54,7.49,6.54h0ZM895.62,785.15c4.75,0,8.6-3.37,8.6-7.53s-3.85-7.53-8.6-7.53-8.62,3.37-8.62,7.53,3.86,7.53,8.62,7.53h0ZM858.65,786.14c5.39,0,9.74-3.81,9.74-8.51s-4.36-8.52-9.74-8.52-9.73,3.81-9.73,8.52,4.36,8.51,9.73,8.51h0ZM821.7,787.03c5.95,0,10.76-4.21,10.76-9.41s-4.82-9.42-10.76-9.42-10.75,4.21-10.75,9.42,4.82,9.41,10.75,9.41h0ZM784.75,788.02c6.56,0,11.89-4.66,11.89-10.4s-5.33-10.4-11.89-10.4-11.89,4.66-11.89,10.4,5.32,10.4,11.89,10.4h0ZM747.79,788.92c7.13,0,12.91-5.06,12.91-11.29s-5.78-11.29-12.91-11.29-12.92,5.06-12.92,11.29,5.78,11.29,12.92,11.29h0ZM710.83,789.9c7.76,0,14.04-5.5,14.04-12.28s-6.29-12.28-14.04-12.28-14.04,5.5-14.04,12.28,6.29,12.28,14.04,12.28h0ZM673.88,790.8c8.31,0,15.07-5.9,15.07-13.18s-6.75-13.18-15.07-13.18-15.06,5.9-15.06,13.18,6.74,13.18,15.06,13.18h0ZM636.92,791.7c8.89,0,16.09-6.3,16.09-14.07s-7.2-14.08-16.09-14.08-16.09,6.3-16.09,14.08,7.2,14.07,16.09,14.07h0ZM599.97,792.33c9.28,0,16.81-6.58,16.81-14.7s-7.52-14.7-16.81-14.7-16.81,6.58-16.81,14.7,7.53,14.7,16.81,14.7h0ZM563.01,791.61c8.82,0,15.98-6.27,15.98-13.98s-7.16-13.99-15.98-13.99-15.98,6.26-15.98,13.99,7.15,13.98,15.98,13.98h0ZM526.05,790.71c8.27,0,14.97-5.86,14.97-13.09s-6.7-13.09-14.97-13.09-14.96,5.86-14.96,13.09,6.69,13.09,14.96,13.09h0ZM489.09,789.81c7.7,0,13.95-5.46,13.95-12.19s-6.25-12.19-13.95-12.19-13.94,5.46-13.94,12.19,6.24,12.19,13.94,12.19h0ZM452.14,788.83c7.07,0,12.81-5.02,12.81-11.21s-5.74-11.21-12.81-11.21-12.81,5.01-12.81,11.21,5.73,11.21,12.81,11.21h0ZM415.19,787.93c6.51,0,11.78-4.62,11.78-10.31s-5.27-10.31-11.78-10.31-11.79,4.61-11.79,10.31,5.28,10.31,11.79,10.31h0ZM378.23,786.94c5.89,0,10.66-4.17,10.66-9.32s-4.77-9.33-10.66-9.33-10.65,4.18-10.65,9.33,4.78,9.32,10.65,9.32h0ZM341.27,786.04c5.32,0,9.64-3.77,9.64-8.42s-4.32-8.43-9.64-8.43-9.62,3.77-9.62,8.43,4.31,8.42,9.62,8.42h0ZM304.32,785.06c4.7,0,8.51-3.33,8.51-7.44s-3.81-7.44-8.51-7.44-8.51,3.33-8.51,7.44,3.81,7.44,8.51,7.44h0ZM267.36,784.08c4.07,0,7.38-2.89,7.38-6.46s-3.3-6.46-7.38-6.46-7.38,2.89-7.38,6.46,3.31,6.46,7.38,6.46h0ZM230.4,783.18c3.52,0,6.36-2.49,6.36-5.56s-2.84-5.56-6.36-5.56-6.34,2.49-6.34,5.56,2.84,5.56,6.34,5.56h0ZM193.44,782.2c2.9,0,5.23-2.05,5.23-4.57s-2.33-4.57-5.23-4.57-5.22,2.05-5.22,4.57,2.33,4.57,5.22,4.57h0ZM156.49,781.3c2.33,0,4.2-1.64,4.2-3.67s-1.88-3.67-4.2-3.67-4.19,1.64-4.19,3.67,1.87,3.67,4.19,3.67h0ZM119.54,780.31c1.7,0,3.08-1.21,3.08-2.69s-1.38-2.69-3.08-2.69-3.08,1.21-3.08,2.69,1.38,2.69,3.08,2.69h0ZM82.57,779.41c1.13,0,2.06-.8,2.06-1.79s-.92-1.79-2.06-1.79-2.04.8-2.04,1.79.93,1.79,2.04,1.79h0ZM45.63,778.43c.5,0,.92-.37.92-.81s-.42-.81-.92-.81-.93.36-.93.81.42.81.93.81h0ZM8.67,777.71c.05,0,.11-.04.11-.09s-.05-.09-.11-.09c-.06,0-.1.04-.1.09s.04.09.1.09h0ZM1191.27,745.38s.1-.04.1-.09-.06-.09-.1-.09c-.06,0-.11.04-.11.09s.05.09.11.09h0ZM1154.31,746.19c.57,0,1.02-.4,1.02-.9s-.45-.9-1.02-.9-1.03.4-1.03.9.46.9,1.03.9h0ZM1117.35,747.08c1.13,0,2.04-.8,2.04-1.79s-.91-1.8-2.04-1.8-2.05.8-2.05,1.8.91,1.79,2.05,1.79h0ZM1080.4,748.07c1.75,0,3.17-1.24,3.17-2.77s-1.42-2.78-3.17-2.78-3.18,1.25-3.18,2.78,1.43,2.77,3.18,2.77h0ZM1043.44,748.97c2.31,0,4.19-1.64,4.19-3.67s-1.88-3.67-4.19-3.67-4.21,1.64-4.21,3.67,1.88,3.67,4.21,3.67h0ZM1006.48,749.95c2.93,0,5.33-2.09,5.33-4.66s-2.4-4.66-5.33-4.66-5.33,2.09-5.33,4.66,2.38,4.66,5.33,4.66h0ZM969.53,750.85c3.5,0,6.35-2.49,6.35-5.56s-2.85-5.56-6.35-5.56-6.35,2.49-6.35,5.56,2.84,5.56,6.35,5.56h0ZM932.57,751.84c4.13,0,7.48-2.93,7.48-6.54s-3.35-6.55-7.48-6.55-7.49,2.93-7.49,6.55,3.35,6.54,7.49,6.54h0ZM895.62,752.73c4.7,0,8.5-3.33,8.5-7.44s-3.8-7.44-8.5-7.44-8.52,3.33-8.52,7.44,3.82,7.44,8.52,7.44h0ZM858.65,753.71c5.33,0,9.64-3.77,9.64-8.42s-4.31-8.43-9.64-8.43-9.63,3.77-9.63,8.43,4.32,8.42,9.63,8.42h0ZM821.7,754.62c5.88,0,10.66-4.18,10.66-9.32s-4.78-9.32-10.66-9.32-10.65,4.18-10.65,9.32,4.76,9.32,10.65,9.32h0ZM784.75,755.6c6.51,0,11.78-4.62,11.78-10.31s-5.27-10.31-11.78-10.31-11.79,4.61-11.79,10.31,5.28,10.31,11.79,10.31h0ZM747.79,756.5c7.07,0,12.8-5.02,12.8-11.21s-5.73-11.21-12.8-11.21-12.81,5.02-12.81,11.21,5.73,11.21,12.81,11.21h0ZM710.83,757.39c7.64,0,13.83-5.42,13.83-12.1s-6.19-12.1-13.83-12.1-13.82,5.42-13.82,12.1,6.19,12.1,13.82,12.1h0ZM673.88,758.29c8.21,0,14.86-5.82,14.86-13s-6.65-13-14.86-13-14.86,5.81-14.86,13,6.66,13,14.86,13h0ZM636.92,759.01c8.66,0,15.68-6.14,15.68-13.72s-7.03-13.72-15.68-13.72-15.68,6.14-15.68,13.72,7.02,13.72,15.68,13.72h0ZM599.97,759.28c8.82,0,15.98-6.26,15.98-13.98s-7.16-13.99-15.98-13.99-15.98,6.27-15.98,13.99,7.16,13.98,15.98,13.98h0ZM563.01,758.92c8.6,0,15.58-6.1,15.58-13.62s-6.98-13.63-15.58-13.63-15.58,6.1-15.58,13.63,6.97,13.62,15.58,13.62h0ZM526.05,758.2c8.15,0,14.76-5.78,14.76-12.9s-6.61-12.91-14.76-12.91-14.76,5.78-14.76,12.91,6.61,12.9,14.76,12.9h0ZM489.09,757.31c7.59,0,13.74-5.38,13.74-12.01s-6.15-12.01-13.74-12.01-13.73,5.38-13.73,12.01,6.14,12.01,13.73,12.01h0ZM452.14,756.41c7.01,0,12.71-4.98,12.71-11.12s-5.69-11.12-12.71-11.12-12.71,4.98-12.71,11.12,5.69,11.12,12.71,11.12h0ZM415.19,755.51c6.45,0,11.68-4.58,11.68-10.22s-5.23-10.22-11.68-10.22-11.68,4.58-11.68,10.22,5.22,10.22,11.68,10.22h0ZM378.23,754.53c5.83,0,10.55-4.13,10.55-9.23s-4.72-9.23-10.55-9.23-10.56,4.13-10.56,9.23,4.72,9.23,10.56,9.23h0ZM341.27,753.63c5.27,0,9.53-3.73,9.53-8.33s-4.26-8.34-9.53-8.34-9.53,3.73-9.53,8.34,4.27,8.33,9.53,8.33h0ZM304.32,752.64c4.64,0,8.41-3.29,8.41-7.35s-3.77-7.36-8.41-7.36-8.4,3.29-8.4,7.36,3.76,7.35,8.4,7.35h0ZM267.36,751.75c4.07,0,7.38-2.89,7.38-6.45s-3.3-6.46-7.38-6.46-7.38,2.89-7.38,6.46,3.31,6.45,7.38,6.45h0ZM230.4,750.85c3.52,0,6.36-2.49,6.36-5.56s-2.84-5.56-6.36-5.56-6.34,2.49-6.34,5.56,2.84,5.56,6.34,5.56h0ZM193.44,749.87c2.9,0,5.23-2.05,5.23-4.57s-2.33-4.58-5.23-4.58-5.22,2.05-5.22,4.58,2.33,4.57,5.22,4.57h0ZM156.49,748.88c2.27,0,4.11-1.6,4.11-3.58s-1.84-3.59-4.11-3.59-4.1,1.6-4.1,3.59,1.83,3.58,4.1,3.58h0ZM119.54,747.98c1.7,0,3.08-1.2,3.08-2.69s-1.38-2.69-3.08-2.69-3.08,1.21-3.08,2.69,1.38,2.69,3.08,2.69h0ZM82.57,747c1.09,0,1.95-.76,1.95-1.7s-.86-1.71-1.95-1.71-1.93.76-1.93,1.71.86,1.7,1.93,1.7h0ZM45.63,746.1c.5,0,.92-.36.92-.8s-.42-.81-.92-.81-.93.36-.93.81.42.8.93.8h0ZM8.67,745.38c.05,0,.11-.04.11-.09s-.05-.09-.11-.09c-.06,0-.1.04-.1.09s.04.09.1.09h0ZM1191.27,713.06s.1-.05.1-.09-.06-.09-.1-.09c-.06,0-.11.04-.11.09s.05.09.11.09h0ZM1154.31,713.77c.5,0,.92-.36.92-.81s-.42-.81-.92-.81-.92.36-.92.81.42.81.92.81h0ZM1117.35,714.67c1.07,0,1.94-.76,1.94-1.7s-.87-1.7-1.94-1.7-1.95.76-1.95,1.7.87,1.7,1.95,1.7h0ZM1080.4,715.65c1.69,0,3.07-1.2,3.07-2.68s-1.38-2.69-3.07-2.69-3.09,1.2-3.09,2.69,1.39,2.68,3.09,2.68h0ZM1043.44,716.55c2.26,0,4.09-1.6,4.09-3.58s-1.83-3.59-4.09-3.59-4.11,1.61-4.11,3.59,1.84,3.58,4.11,3.58h0ZM1006.48,717.45c2.83,0,5.12-2.01,5.12-4.48s-2.29-4.48-5.12-4.48-5.13,2.01-5.13,4.48,2.29,4.48,5.13,4.48h0ZM969.53,718.43c3.45,0,6.25-2.45,6.25-5.47s-2.8-5.47-6.25-5.47-6.26,2.45-6.26,5.47,2.81,5.47,6.26,5.47h0ZM932.57,719.33c4.02,0,7.28-2.85,7.28-6.36s-3.26-6.37-7.28-6.37-7.28,2.85-7.28,6.37,3.26,6.36,7.28,6.36h0ZM895.62,720.22c4.58,0,8.3-3.25,8.3-7.26s-3.72-7.27-8.3-7.27-8.3,3.25-8.3,7.27,3.71,7.26,8.3,7.26h0ZM858.65,721.21c5.21,0,9.43-3.69,9.43-8.25s-4.22-8.25-9.43-8.25-9.43,3.69-9.43,8.25,4.23,8.25,9.43,8.25h0ZM821.7,722.02c5.71,0,10.35-4.06,10.35-9.06s-4.64-9.05-10.35-9.05-10.34,4.05-10.34,9.05,4.63,9.06,10.34,9.06h0ZM784.75,722.91c6.28,0,11.37-4.45,11.37-9.95s-5.09-9.95-11.37-9.95-11.38,4.46-11.38,9.95,5.1,9.95,11.38,9.95h0ZM747.79,723.81c6.85,0,12.4-4.86,12.4-10.85s-5.55-10.85-12.4-10.85-12.4,4.86-12.4,10.85,5.55,10.85,12.4,10.85h0ZM710.83,724.62c7.36,0,13.33-5.21,13.33-11.65s-5.97-11.66-13.33-11.66-13.32,5.22-13.32,11.66,5.97,11.65,13.32,11.65h0ZM673.88,725.33c7.82,0,14.14-5.54,14.14-12.37s-6.32-12.37-14.14-12.37-14.15,5.54-14.15,12.37,6.34,12.37,14.15,12.37h0ZM636.92,725.87c8.16,0,14.76-5.78,14.76-12.91s-6.6-12.91-14.76-12.91-14.75,5.78-14.75,12.91,6.6,12.91,14.75,12.91h0ZM599.97,726.05c8.26,0,14.96-5.86,14.96-13.09s-6.7-13.09-14.96-13.09-14.96,5.86-14.96,13.09,6.7,13.09,14.96,13.09h0ZM563.01,725.87c8.15,0,14.76-5.78,14.76-12.91s-6.61-12.91-14.76-12.91-14.76,5.78-14.76,12.91,6.62,12.91,14.76,12.91h0ZM526.05,725.24c7.76,0,14.05-5.5,14.05-12.28s-6.29-12.28-14.05-12.28-14.03,5.5-14.03,12.28,6.29,12.28,14.03,12.28h0ZM489.09,724.53c7.31,0,13.22-5.17,13.22-11.56s-5.92-11.56-13.22-11.56-13.22,5.18-13.22,11.56,5.92,11.56,13.22,11.56h0ZM452.14,723.72c6.79,0,12.3-4.81,12.3-10.76s-5.51-10.76-12.3-10.76-12.3,4.82-12.3,10.76,5.51,10.76,12.3,10.76h0ZM415.19,722.83c6.22,0,11.28-4.42,11.28-9.86s-5.06-9.86-11.28-9.86-11.27,4.42-11.27,9.86,5.05,9.86,11.27,9.86h0ZM378.23,722.02c5.72,0,10.35-4.06,10.35-9.06s-4.63-9.05-10.35-9.05-10.35,4.05-10.35,9.05,4.64,9.06,10.35,9.06h0ZM341.27,721.12c5.15,0,9.32-3.65,9.32-8.15s-4.17-8.16-9.32-8.16-9.32,3.65-9.32,8.16,4.17,8.15,9.32,8.15h0ZM304.32,720.13c4.52,0,8.2-3.21,8.2-7.17s-3.68-7.17-8.2-7.17-8.2,3.21-8.2,7.17,3.67,7.17,8.2,7.17h0ZM267.36,719.24c3.97,0,7.17-2.81,7.17-6.28s-3.21-6.28-7.17-6.28-7.17,2.81-7.17,6.28,3.21,6.28,7.17,6.28h0ZM230.4,718.34c3.4,0,6.15-2.41,6.15-5.38s-2.75-5.38-6.15-5.38-6.14,2.41-6.14,5.38,2.76,5.38,6.14,5.38h0ZM193.44,717.36c2.78,0,5.02-1.97,5.02-4.39s-2.24-4.39-5.02-4.39-5.02,1.96-5.02,4.39,2.26,4.39,5.02,4.39h0ZM156.49,716.46c2.21,0,4-1.56,4-3.5s-1.79-3.49-4-3.49-3.99,1.56-3.99,3.49,1.79,3.5,3.99,3.5h0ZM119.54,715.56c1.64,0,2.98-1.16,2.98-2.6s-1.34-2.6-2.98-2.6-2.97,1.16-2.97,2.6,1.33,2.6,2.97,2.6h0ZM82.57,714.58c1.03,0,1.85-.72,1.85-1.61s-.82-1.62-1.85-1.62-1.83.73-1.83,1.62.82,1.61,1.83,1.61h0ZM45.63,713.68c.45,0,.82-.32.82-.72s-.37-.72-.82-.72-.82.32-.82.72.36.72.82.72h0ZM1154.31,681.26c.39,0,.71-.28.71-.62s-.32-.63-.71-.63-.72.28-.72.63.32.62.72.62h0ZM1117.35,682.16c.96,0,1.73-.68,1.73-1.52s-.78-1.53-1.73-1.53-1.74.68-1.74,1.53.79,1.52,1.74,1.52h0ZM1080.4,683.15c1.58,0,2.87-1.13,2.87-2.51s-1.29-2.52-2.87-2.52-2.87,1.13-2.87,2.52,1.27,2.51,2.87,2.51h0ZM1043.44,684.04c2.14,0,3.89-1.52,3.89-3.4s-1.74-3.41-3.89-3.41-3.91,1.53-3.91,3.41,1.75,3.4,3.91,3.4h0ZM1006.48,684.94c2.72,0,4.92-1.93,4.92-4.3s-2.2-4.31-4.92-4.31-4.92,1.93-4.92,4.31,2.21,4.3,4.92,4.3h0ZM969.53,685.84c3.28,0,5.94-2.33,5.94-5.2s-2.66-5.21-5.94-5.21-5.95,2.33-5.95,5.21,2.67,5.2,5.95,5.2h0ZM932.57,686.73c3.84,0,6.97-2.73,6.97-6.09s-3.13-6.1-6.97-6.1-6.97,2.73-6.97,6.1,3.12,6.09,6.97,6.09h0ZM895.62,687.63c4.41,0,7.99-3.13,7.99-6.99s-3.58-6.99-7.99-6.99-7.99,3.13-7.99,6.99,3.57,6.99,7.99,6.99h0ZM858.65,688.52c4.99,0,9.02-3.53,9.02-7.88s-4.03-7.89-9.02-7.89-9.02,3.53-9.02,7.89,4.04,7.88,9.02,7.88h0ZM821.7,689.33c5.49,0,9.95-3.89,9.95-8.69s-4.45-8.7-9.95-8.7-9.93,3.9-9.93,8.7,4.44,8.69,9.93,8.69h0ZM784.75,690.14c6,0,10.86-4.25,10.86-9.5s-4.86-9.51-10.86-9.51-10.86,4.26-10.86,9.51,4.86,9.5,10.86,9.5h0ZM747.79,690.95c6.51,0,11.78-4.62,11.78-10.31s-5.27-10.32-11.78-10.32-11.79,4.62-11.79,10.32,5.28,10.31,11.79,10.31h0ZM710.83,691.66c6.96,0,12.61-4.93,12.61-11.02s-5.65-11.03-12.61-11.03-12.6,4.94-12.6,11.03,5.65,11.02,12.6,11.02h0ZM673.88,692.29c7.35,0,13.33-5.22,13.33-11.65s-5.97-11.66-13.33-11.66-13.32,5.22-13.32,11.66,5.96,11.65,13.32,11.65h0ZM636.92,692.65c7.59,0,13.73-5.38,13.73-12.01s-6.14-12.02-13.73-12.02-13.72,5.37-13.72,12.02,6.14,12.01,13.72,12.01h0ZM599.97,692.83c7.7,0,13.94-5.46,13.94-12.19s-6.24-12.19-13.94-12.19-13.94,5.45-13.94,12.19,6.24,12.19,13.94,12.19h0ZM563.01,692.65c7.58,0,13.73-5.38,13.73-12.01s-6.14-12.02-13.73-12.02-13.73,5.37-13.73,12.02,6.14,12.01,13.73,12.01h0ZM526.05,692.2c7.31,0,13.22-5.17,13.22-11.56s-5.92-11.57-13.22-11.57-13.21,5.18-13.21,11.57,5.91,11.56,13.21,11.56h0ZM489.09,691.57c6.9,0,12.51-4.9,12.51-10.93s-5.61-10.94-12.51-10.94-12.51,4.89-12.51,10.94,5.6,10.93,12.51,10.93h0ZM452.14,690.95c6.51,0,11.78-4.62,11.78-10.31s-5.27-10.32-11.78-10.32-11.78,4.62-11.78,10.32,5.27,10.31,11.78,10.31h0ZM415.19,690.14c5.99,0,10.86-4.25,10.86-9.5s-4.86-9.51-10.86-9.51-10.86,4.26-10.86,9.51,4.86,9.5,10.86,9.5h0ZM378.23,689.33c5.49,0,9.94-3.89,9.94-8.69s-4.45-8.7-9.94-8.7-9.94,3.9-9.94,8.7,4.44,8.69,9.94,8.69h0ZM341.27,688.43c4.93,0,8.92-3.48,8.92-7.79s-3.99-7.8-8.92-7.8-8.91,3.48-8.91,7.8,4,7.79,8.91,7.79h0ZM304.32,687.54c4.36,0,7.89-3.09,7.89-6.9s-3.53-6.91-7.89-6.91-7.89,3.1-7.89,6.91,3.53,6.9,7.89,6.9h0ZM267.36,686.64c3.79,0,6.87-2.69,6.87-6s-3.08-6.01-6.87-6.01-6.86,2.69-6.86,6.01,3.07,6,6.86,6h0ZM230.4,685.75c3.23,0,5.85-2.29,5.85-5.11s-2.61-5.12-5.85-5.12-5.83,2.29-5.83,5.12,2.61,5.11,5.83,5.11h0ZM193.44,684.85c2.67,0,4.82-1.88,4.82-4.21s-2.15-4.22-4.82-4.22-4.81,1.88-4.81,4.22,2.16,4.21,4.81,4.21h0ZM156.49,683.95c2.09,0,3.8-1.48,3.8-3.31s-1.71-3.32-3.8-3.32-3.79,1.48-3.79,3.32,1.7,3.31,3.79,3.31h0ZM119.54,683.05c1.53,0,2.77-1.08,2.77-2.41s-1.24-2.43-2.77-2.43-2.77,1.08-2.77,2.43,1.25,2.41,2.77,2.41h0ZM82.57,682.07c.92,0,1.65-.64,1.65-1.43s-.73-1.44-1.65-1.44-1.63.64-1.63,1.44.73,1.43,1.63,1.43h0ZM45.63,681.17c.33,0,.62-.24.62-.53s-.29-.54-.62-.54c-.35,0-.62.24-.62.54s.28.53.62.53h0ZM1154.31,648.75c.29,0,.52-.2.52-.45s-.23-.44-.52-.44-.52.2-.52.44.23.45.52.45h0ZM1117.35,649.65c.85,0,1.53-.6,1.53-1.35s-.69-1.34-1.53-1.34-1.54.6-1.54,1.34.69,1.35,1.54,1.35h0ZM1080.4,650.54c1.41,0,2.56-1,2.56-2.24s-1.15-2.24-2.56-2.24-2.56,1.01-2.56,2.24,1.14,2.24,2.56,2.24h0ZM1043.44,651.44c1.97,0,3.58-1.4,3.58-3.14s-1.61-3.13-3.58-3.13-3.6,1.4-3.6,3.13,1.61,3.14,3.6,3.14h0ZM1006.48,652.35c2.54,0,4.62-1.81,4.62-4.04s-2.08-4.03-4.62-4.03-4.61,1.81-4.61,4.03,2.05,4.04,4.61,4.04h0ZM969.53,653.14c3.06,0,5.53-2.16,5.53-4.84s-2.48-4.83-5.53-4.83-5.54,2.17-5.54,4.83,2.49,4.84,5.54,4.84h0ZM932.57,654.04c3.62,0,6.55-2.57,6.55-5.74s-2.94-5.73-6.55-5.73-6.56,2.57-6.56,5.73,2.94,5.74,6.56,5.74h0ZM895.62,654.93c4.18,0,7.58-2.97,7.58-6.63s-3.4-6.63-7.58-6.63-7.58,2.97-7.58,6.63,3.39,6.63,7.58,6.63h0ZM858.65,655.74c4.7,0,8.51-3.33,8.51-7.44s-3.81-7.44-8.51-7.44-8.49,3.33-8.49,7.44,3.79,7.44,8.49,7.44h0ZM821.7,656.55c5.21,0,9.43-3.69,9.43-8.25s-4.22-8.24-9.43-8.24-9.43,3.69-9.43,8.24,4.23,8.25,9.43,8.25h0ZM784.75,657.36c5.72,0,10.34-4.05,10.34-9.06s-4.63-9.05-10.34-9.05-10.35,4.06-10.35,9.05,4.64,9.06,10.35,9.06h0ZM747.79,657.99c6.11,0,11.06-4.33,11.06-9.68s-4.95-9.68-11.06-9.68-11.07,4.34-11.07,9.68,4.96,9.68,11.07,9.68h0ZM710.83,658.61c6.52,0,11.79-4.61,11.79-10.31s-5.27-10.31-11.79-10.31-11.78,4.62-11.78,10.31,5.27,10.31,11.78,10.31h0ZM673.88,659.15c6.85,0,12.4-4.86,12.4-10.85s-5.55-10.85-12.4-10.85-12.4,4.87-12.4,10.85,5.55,10.85,12.4,10.85h0ZM636.92,659.42c7.03,0,12.71-4.97,12.71-11.12s-5.69-11.11-12.71-11.11-12.7,4.98-12.7,11.11,5.68,11.12,12.7,11.12h0ZM599.97,659.51c7.07,0,12.81-5.02,12.81-11.21s-5.74-11.2-12.81-11.2-12.81,5.02-12.81,11.2,5.74,11.21,12.81,11.21h0ZM563.01,659.42c7.02,0,12.71-4.97,12.71-11.12s-5.69-11.11-12.71-11.11-12.71,4.98-12.71,11.11,5.69,11.12,12.71,11.12h0ZM526.05,659.06c6.8,0,12.3-4.81,12.3-10.76s-5.5-10.76-12.3-10.76-12.3,4.82-12.3,10.76,5.51,10.76,12.3,10.76h0ZM489.09,658.61c6.51,0,11.79-4.61,11.79-10.31s-5.28-10.31-11.79-10.31-11.77,4.62-11.77,10.31,5.26,10.31,11.77,10.31h0ZM452.14,657.99c6.11,0,11.07-4.33,11.07-9.68s-4.96-9.68-11.07-9.68-11.07,4.34-11.07,9.68,4.96,9.68,11.07,9.68h0ZM415.19,657.27c5.66,0,10.24-4.01,10.24-8.97s-4.58-8.96-10.24-8.96-10.25,4.01-10.25,8.96,4.59,8.97,10.25,8.97h0ZM378.23,656.46c5.15,0,9.33-3.65,9.33-8.16s-4.19-8.15-9.33-8.15-9.32,3.64-9.32,8.15,4.18,8.16,9.32,8.16h0ZM341.27,655.66c4.65,0,8.41-3.29,8.41-7.36s-3.76-7.35-8.41-7.35-8.4,3.29-8.4,7.35,3.76,7.36,8.4,7.36h0ZM304.32,654.85c4.14,0,7.48-2.94,7.48-6.55s-3.34-6.54-7.48-6.54-7.49,2.93-7.49,6.54,3.35,6.55,7.49,6.55h0ZM267.36,653.95c3.57,0,6.46-2.53,6.46-5.65s-2.89-5.65-6.46-5.65-6.46,2.53-6.46,5.65,2.89,5.65,6.46,5.65h0ZM230.4,653.14c3.06,0,5.54-2.16,5.54-4.84s-2.49-4.83-5.54-4.83-5.53,2.17-5.53,4.83,2.48,4.84,5.53,4.84h0ZM193.44,652.25c2.49,0,4.51-1.77,4.51-3.95s-2.02-3.94-4.51-3.94-4.5,1.77-4.5,3.94,2.01,3.95,4.5,3.95h0ZM156.49,651.35c1.94,0,3.49-1.36,3.49-3.05s-1.55-3.05-3.49-3.05-3.48,1.37-3.48,3.05,1.55,3.05,3.48,3.05h0ZM119.54,650.46c1.36,0,2.46-.97,2.46-2.16s-1.09-2.15-2.46-2.15-2.47.97-2.47,2.15,1.11,2.16,2.47,2.16h0ZM82.57,649.56c.8,0,1.45-.56,1.45-1.26s-.64-1.25-1.45-1.25-1.43.56-1.43,1.25.64,1.26,1.43,1.26h0ZM45.63,648.66c.22,0,.41-.16.41-.36s-.18-.35-.41-.35-.42.16-.42.35.19.36.42.36h0ZM1154.31,616.16c.11,0,.21-.08.21-.18,0-.1-.1-.18-.21-.18s-.2.08-.2.18c0,.1.09.18.2.18h0ZM1117.35,616.97c.62,0,1.12-.45,1.12-.99s-.51-.99-1.12-.99-1.13.44-1.13.99.51.99,1.13.99h0ZM1080.4,617.86c1.18,0,2.14-.85,2.14-1.88s-.96-1.89-2.14-1.89-2.15.85-2.15,1.89.96,1.88,2.15,1.88h0ZM1043.44,618.76c1.75,0,3.17-1.25,3.17-2.78s-1.42-2.78-3.17-2.78-3.19,1.24-3.19,2.78,1.43,2.78,3.19,2.78h0ZM1006.48,619.65c2.31,0,4.2-1.65,4.2-3.67s-1.88-3.68-4.2-3.68-4.21,1.65-4.21,3.68,1.88,3.67,4.21,3.67h0ZM969.53,620.46c2.82,0,5.12-2.01,5.12-4.48s-2.3-4.49-5.12-4.49-5.12,2.01-5.12,4.49,2.29,4.48,5.12,4.48h0ZM932.57,621.36c3.4,0,6.14-2.41,6.14-5.38s-2.75-5.39-6.14-5.39-6.15,2.41-6.15,5.39,2.75,5.38,6.15,5.38h0ZM895.62,622.07c3.84,0,6.96-2.73,6.96-6.1s-3.12-6.09-6.96-6.09-6.97,2.73-6.97,6.09,3.12,6.1,6.97,6.1h0ZM858.65,622.87c4.36,0,7.9-3.09,7.9-6.9s-3.54-6.9-7.9-6.9-7.89,3.09-7.89,6.9,3.53,6.9,7.89,6.9h0ZM821.7,623.68c4.87,0,8.81-3.44,8.81-7.7s-3.94-7.71-8.81-7.71-8.82,3.45-8.82,7.71,3.96,7.7,8.82,7.7h0ZM784.75,624.41c5.31,0,9.63-3.78,9.63-8.43s-4.32-8.43-9.63-8.43-9.64,3.78-9.64,8.43,4.32,8.43,9.64,8.43h0ZM747.79,624.94c5.66,0,10.24-4.02,10.24-8.96s-4.58-8.97-10.24-8.97-10.25,4.02-10.25,8.97,4.58,8.96,10.25,8.96h0ZM710.83,625.48c6,0,10.87-4.26,10.87-9.51s-4.86-9.5-10.87-9.5-10.86,4.26-10.86,9.5,4.86,9.51,10.86,9.51h0ZM673.88,625.92c6.28,0,11.37-4.45,11.37-9.95s-5.09-9.95-11.37-9.95-11.36,4.46-11.36,9.95,5.09,9.95,11.36,9.95h0ZM636.92,626.19c6.45,0,11.69-4.58,11.69-10.21s-5.24-10.22-11.69-10.22-11.69,4.58-11.69,10.22,5.24,10.21,11.69,10.21h0ZM599.97,626.28c6.51,0,11.78-4.61,11.78-10.3s-5.27-10.31-11.78-10.31-11.79,4.61-11.79,10.31,5.28,10.3,11.79,10.3h0ZM563.01,626.19c6.45,0,11.68-4.58,11.68-10.21s-5.23-10.22-11.68-10.22-11.68,4.58-11.68,10.22,5.22,10.21,11.68,10.21h0ZM526.05,625.84c6.23,0,11.28-4.42,11.28-9.86s-5.04-9.86-11.28-9.86-11.27,4.42-11.27,9.86,5.04,9.86,11.27,9.86h0ZM489.09,625.48c6.01,0,10.86-4.26,10.86-9.51s-4.85-9.5-10.86-9.5-10.86,4.26-10.86,9.5,4.86,9.51,10.86,9.51h0ZM452.14,624.94c5.66,0,10.25-4.02,10.25-8.96s-4.59-8.97-10.25-8.97-10.25,4.02-10.25,8.97,4.59,8.96,10.25,8.96h0ZM415.19,624.32c5.26,0,9.52-3.74,9.52-8.34s-4.26-8.34-9.52-8.34-9.54,3.73-9.54,8.34,4.27,8.34,9.54,8.34h0ZM378.23,623.59c4.81,0,8.71-3.41,8.71-7.61s-3.9-7.62-8.71-7.62-8.71,3.41-8.71,7.62,3.91,7.61,8.71,7.61h0ZM341.27,622.79c4.3,0,7.79-3.05,7.79-6.81s-3.49-6.81-7.79-6.81-7.79,3.05-7.79,6.81,3.49,6.81,7.79,6.81h0ZM304.32,622.07c3.85,0,6.97-2.73,6.97-6.1s-3.13-6.09-6.97-6.09-6.96,2.73-6.96,6.09,3.11,6.1,6.96,6.1h0ZM267.36,621.27c3.34,0,6.05-2.37,6.05-5.29s-2.71-5.3-6.05-5.3-6.05,2.37-6.05,5.3,2.71,5.29,6.05,5.29h0ZM230.4,620.37c2.78,0,5.03-1.96,5.03-4.39s-2.25-4.39-5.03-4.39-5.02,1.97-5.02,4.39,2.26,4.39,5.02,4.39h0ZM193.44,619.56c2.27,0,4.11-1.6,4.11-3.58s-1.84-3.59-4.11-3.59-4.1,1.6-4.1,3.59,1.83,3.58,4.1,3.58h0ZM156.49,618.67c1.7,0,3.08-1.21,3.08-2.69s-1.38-2.69-3.08-2.69-3.08,1.2-3.08,2.69,1.39,2.69,3.08,2.69h0ZM119.54,617.77c1.13,0,2.05-.8,2.05-1.79s-.92-1.8-2.05-1.8-2.05.8-2.05,1.8.91,1.79,2.05,1.79h0ZM82.57,616.97c.64,0,1.13-.45,1.13-.99s-.5-.99-1.13-.99-1.11.44-1.11.99.49.99,1.11.99h0ZM45.63,616.16c.11,0,.21-.08.21-.18,0-.1-.1-.18-.21-.18s-.21.08-.21.18c0,.1.1.18.21.18h0ZM1154.31,583.74c.05,0,.1-.05.1-.09,0-.05-.05-.09-.1-.09-.06,0-.1.04-.1.09,0,.05.04.09.1.09h0ZM1117.35,584.36c.45,0,.82-.32.82-.72s-.37-.72-.82-.72-.83.32-.83.72.37.72.83.72h0ZM1080.4,585.17c.96,0,1.73-.69,1.73-1.52s-.78-1.53-1.73-1.53-1.74.68-1.74,1.53.78,1.52,1.74,1.52h0ZM1043.44,586.06c1.51,0,2.76-1.08,2.76-2.42s-1.25-2.42-2.76-2.42-2.77,1.09-2.77,2.42,1.24,2.42,2.77,2.42h0ZM1006.48,586.87c2.04,0,3.68-1.44,3.68-3.22s-1.65-3.23-3.68-3.23-3.69,1.44-3.69,3.23,1.65,3.22,3.69,3.22h0ZM969.53,587.68c2.55,0,4.61-1.81,4.61-4.03s-2.06-4.03-4.61-4.03-4.61,1.81-4.61,4.03,2.07,4.03,4.61,4.03h0ZM932.57,588.49c3.05,0,5.53-2.17,5.53-4.84s-2.48-4.84-5.53-4.84-5.53,2.17-5.53,4.84,2.48,4.84,5.53,4.84h0ZM895.62,589.3c3.56,0,6.45-2.53,6.45-5.65s-2.89-5.65-6.45-5.65-6.47,2.53-6.47,5.65,2.89,5.65,6.47,5.65h0ZM858.65,590.01c4.02,0,7.28-2.85,7.28-6.36s-3.26-6.37-7.28-6.37-7.28,2.85-7.28,6.37,3.26,6.36,7.28,6.36h0ZM821.7,590.64c4.42,0,8-3.13,8-6.99s-3.58-6.99-8-6.99-7.99,3.13-7.99,6.99,3.57,6.99,7.99,6.99h0ZM784.75,591.35c4.87,0,8.81-3.44,8.81-7.71s-3.94-7.71-8.81-7.71-8.82,3.45-8.82,7.71,3.95,7.71,8.82,7.71h0ZM747.79,591.9c5.2,0,9.43-3.69,9.43-8.25s-4.23-8.25-9.43-8.25-9.43,3.7-9.43,8.25,4.21,8.25,9.43,8.25h0ZM710.83,592.35c5.49,0,9.94-3.9,9.94-8.7s-4.45-8.7-9.94-8.7-9.94,3.9-9.94,8.7,4.45,8.7,9.94,8.7h0ZM673.88,592.71c5.72,0,10.35-4.07,10.35-9.06s-4.64-9.05-10.35-9.05-10.35,4.05-10.35,9.05,4.63,9.06,10.35,9.06h0ZM636.92,592.88c5.83,0,10.56-4.13,10.56-9.23s-4.72-9.23-10.56-9.23-10.55,4.13-10.55,9.23,4.72,9.23,10.55,9.23h0ZM599.97,592.97c5.89,0,10.65-4.18,10.65-9.32s-4.76-9.33-10.65-9.33-10.65,4.18-10.65,9.33,4.76,9.32,10.65,9.32h0ZM563.01,592.88c5.82,0,10.55-4.13,10.55-9.23s-4.73-9.23-10.55-9.23-10.55,4.13-10.55,9.23,4.72,9.23,10.55,9.23h0ZM526.05,592.71c5.73,0,10.35-4.07,10.35-9.06s-4.63-9.05-10.35-9.05-10.35,4.05-10.35,9.05,4.64,9.06,10.35,9.06h0ZM489.09,592.35c5.49,0,9.95-3.9,9.95-8.7s-4.45-8.7-9.95-8.7-9.94,3.9-9.94,8.7,4.45,8.7,9.94,8.7h0ZM452.14,591.8c5.15,0,9.32-3.65,9.32-8.16s-4.17-8.16-9.32-8.16-9.33,3.65-9.33,8.16,4.18,8.16,9.33,8.16h0ZM415.19,591.26c4.8,0,8.71-3.41,8.71-7.62s-3.92-7.62-8.71-7.62-8.71,3.41-8.71,7.62,3.89,7.62,8.71,7.62h0ZM378.23,590.64c4.42,0,7.99-3.13,7.99-6.99s-3.57-6.99-7.99-6.99-7.99,3.13-7.99,6.99,3.59,6.99,7.99,6.99h0ZM341.27,589.92c3.96,0,7.17-2.81,7.17-6.27s-3.21-6.28-7.17-6.28-7.17,2.81-7.17,6.28,3.22,6.27,7.17,6.27h0ZM304.32,589.21c3.51,0,6.35-2.49,6.35-5.56s-2.84-5.56-6.35-5.56-6.35,2.49-6.35,5.56,2.85,5.56,6.35,5.56h0ZM267.36,588.4c3,0,5.43-2.13,5.43-4.75s-2.43-4.75-5.43-4.75-5.43,2.12-5.43,4.75,2.43,4.75,5.43,4.75h0ZM230.4,587.6c2.5,0,4.51-1.77,4.51-3.95s-2.01-3.94-4.51-3.94-4.5,1.76-4.5,3.94,2.01,3.95,4.5,3.95h0ZM193.44,586.78c1.99,0,3.59-1.41,3.59-3.13s-1.61-3.14-3.59-3.14-3.58,1.41-3.58,3.14,1.61,3.13,3.58,3.13h0ZM156.49,585.97c1.47,0,2.67-1.04,2.67-2.33s-1.19-2.33-2.67-2.33-2.67,1.05-2.67,2.33,1.2,2.33,2.67,2.33h0ZM119.54,585.08c.9,0,1.64-.64,1.64-1.43s-.73-1.43-1.64-1.43-1.64.64-1.64,1.43.73,1.43,1.64,1.43h0ZM82.57,584.27c.4,0,.72-.28.72-.62s-.32-.63-.72-.63-.71.27-.71.63.33.62.71.62h0ZM1117.35,551.59c.17,0,.3-.12.3-.27,0-.15-.13-.27-.3-.27s-.31.11-.31.27c0,.14.15.27.31.27h0ZM1080.4,552.39c.67,0,1.22-.48,1.22-1.07s-.55-1.08-1.22-1.08-1.24.49-1.24,1.08.56,1.07,1.24,1.07h0ZM1043.44,553.2c1.17,0,2.15-.84,2.15-1.88s-.98-1.88-2.15-1.88-2.15.84-2.15,1.88.96,1.88,2.15,1.88h0ZM1006.48,554.09c1.76,0,3.18-1.24,3.18-2.78s-1.42-2.78-3.18-2.78-3.18,1.25-3.18,2.78,1.43,2.78,3.18,2.78h0ZM969.53,554.81c2.21,0,3.99-1.56,3.99-3.49s-1.79-3.5-3.99-3.5-4,1.57-4,3.5,1.79,3.49,4,3.49h0ZM932.57,555.62c2.71,0,4.92-1.92,4.92-4.3s-2.21-4.31-4.92-4.31-4.92,1.93-4.92,4.31,2.2,4.3,4.92,4.3h0ZM895.62,556.34c3.16,0,5.73-2.25,5.73-5.02s-2.57-5.03-5.73-5.03-5.75,2.25-5.75,5.03,2.56,5.02,5.75,5.02h0ZM858.65,556.97c3.58,0,6.46-2.53,6.46-5.65s-2.88-5.65-6.46-5.65-6.46,2.52-6.46,5.65,2.89,5.65,6.46,5.65h0ZM821.7,557.69c4.02,0,7.28-2.85,7.28-6.37s-3.26-6.37-7.28-6.37-7.28,2.85-7.28,6.37,3.26,6.37,7.28,6.37h0ZM784.75,558.22c4.36,0,7.89-3.09,7.89-6.9s-3.53-6.91-7.89-6.91-7.89,3.1-7.89,6.91,3.53,6.9,7.89,6.9h0ZM747.79,558.76c4.7,0,8.5-3.33,8.5-7.44s-3.8-7.44-8.5-7.44-8.51,3.33-8.51,7.44,3.81,7.44,8.51,7.44h0ZM710.83,559.2c4.98,0,9.02-3.53,9.02-7.88s-4.04-7.89-9.02-7.89-9.02,3.53-9.02,7.89,4.04,7.88,9.02,7.88h0ZM673.88,559.48c5.15,0,9.33-3.66,9.33-8.16s-4.18-8.16-9.33-8.16-9.33,3.65-9.33,8.16,4.18,8.16,9.33,8.16h0ZM636.92,559.66c5.27,0,9.54-3.73,9.54-8.34s-4.27-8.34-9.54-8.34-9.53,3.73-9.53,8.34,4.27,8.34,9.53,8.34h0ZM599.97,559.74c5.32,0,9.63-3.77,9.63-8.42s-4.31-8.42-9.63-8.42-9.64,3.76-9.64,8.42,4.31,8.42,9.64,8.42h0ZM563.01,559.66c5.26,0,9.53-3.73,9.53-8.34s-4.27-8.34-9.53-8.34-9.54,3.73-9.54,8.34,4.27,8.34,9.54,8.34h0ZM526.05,559.48c5.15,0,9.33-3.66,9.33-8.16s-4.18-8.16-9.33-8.16-9.33,3.65-9.33,8.16,4.18,8.16,9.33,8.16h0ZM489.09,559.11c4.93,0,8.93-3.48,8.93-7.79s-4-7.8-8.93-7.8-8.91,3.5-8.91,7.8,3.99,7.79,8.91,7.79h0ZM452.14,558.67c4.64,0,8.4-3.29,8.4-7.35s-3.76-7.35-8.4-7.35-8.4,3.28-8.4,7.35,3.77,7.35,8.4,7.35h0ZM415.19,558.13c4.3,0,7.78-3.05,7.78-6.81s-3.48-6.82-7.78-6.82-7.79,3.05-7.79,6.82,3.49,6.81,7.79,6.81h0ZM378.23,557.59c3.96,0,7.18-2.81,7.18-6.27s-3.21-6.27-7.18-6.27-7.18,2.81-7.18,6.27,3.22,6.27,7.18,6.27h0ZM341.27,556.97c3.56,0,6.46-2.53,6.46-5.65s-2.9-5.65-6.46-5.65-6.45,2.52-6.45,5.65,2.89,5.65,6.45,5.65h0ZM304.32,556.25c3.11,0,5.64-2.21,5.64-4.93s-2.53-4.93-5.64-4.93-5.64,2.21-5.64,4.93,2.53,4.93,5.64,4.93h0ZM267.36,555.54c2.66,0,4.81-1.89,4.81-4.22s-2.15-4.22-4.81-4.22-4.82,1.88-4.82,4.22,2.16,4.22,4.82,4.22h0ZM230.4,554.81c2.21,0,4-1.56,4-3.49s-1.79-3.5-4-3.5-3.99,1.57-3.99,3.5,1.78,3.49,3.99,3.49h0ZM193.44,554.01c1.71,0,3.08-1.21,3.08-2.69s-1.37-2.69-3.08-2.69-3.07,1.2-3.07,2.69,1.38,2.69,3.07,2.69h0ZM156.49,553.2c1.2,0,2.15-.84,2.15-1.88s-.96-1.88-2.15-1.88-2.14.84-2.14,1.88.96,1.88,2.14,1.88h0ZM119.54,552.39c.68,0,1.23-.48,1.23-1.07s-.55-1.08-1.23-1.08-1.23.49-1.23,1.08.56,1.07,1.23,1.07h0ZM82.57,551.59c.18,0,.32-.12.32-.27,0-.15-.15-.27-.32-.27-.15,0-.3.11-.3.27,0,.14.15.27.3.27h0ZM1117.35,519.08c.05,0,.1-.04.1-.09,0-.05-.05-.09-.1-.09-.06,0-.11.04-.11.09,0,.05.04.09.11.09h0ZM1080.4,519.62c.39,0,.71-.28.71-.63s-.32-.62-.71-.62-.72.27-.72.62.32.63.72.63h0ZM1043.44,520.42c.9,0,1.63-.65,1.63-1.43s-.73-1.44-1.63-1.44-1.65.65-1.65,1.44.73,1.43,1.65,1.43h0ZM1006.48,521.14c1.36,0,2.46-.97,2.46-2.15s-1.11-2.15-2.46-2.15-2.46.97-2.46,2.15,1.1,2.15,2.46,2.15h0ZM969.53,521.94c1.87,0,3.38-1.32,3.38-2.95s-1.52-2.96-3.38-2.96-3.39,1.32-3.39,2.96,1.52,2.95,3.39,2.95h0ZM932.57,522.67c2.32,0,4.19-1.65,4.19-3.68s-1.87-3.67-4.19-3.67-4.21,1.64-4.21,3.67,1.88,3.68,4.21,3.68h0ZM895.62,523.38c2.77,0,5.02-1.97,5.02-4.39s-2.25-4.4-5.02-4.4-5.03,1.97-5.03,4.4,2.25,4.39,5.03,4.39h0ZM858.65,524.01c3.17,0,5.74-2.25,5.74-5.02s-2.57-5.02-5.74-5.02-5.73,2.25-5.73,5.02,2.56,5.02,5.73,5.02h0ZM821.7,524.54c3.51,0,6.35-2.49,6.35-5.55s-2.84-5.56-6.35-5.56-6.35,2.49-6.35,5.56,2.85,5.55,6.35,5.55h0ZM784.75,525.08c3.84,0,6.97-2.73,6.97-6.09s-3.13-6.1-6.97-6.1-6.97,2.73-6.97,6.1,3.13,6.09,6.97,6.09h0ZM747.79,525.53c4.12,0,7.48-2.93,7.48-6.54s-3.35-6.55-7.48-6.55-7.49,2.92-7.49,6.55,3.35,6.54,7.49,6.54h0ZM710.83,525.89c4.36,0,7.9-3.09,7.9-6.9s-3.54-6.91-7.9-6.91-7.89,3.1-7.89,6.91,3.53,6.9,7.89,6.9h0ZM673.88,526.25c4.59,0,8.3-3.25,8.3-7.26s-3.7-7.26-8.3-7.26-8.3,3.25-8.3,7.26,3.71,7.26,8.3,7.26h0ZM636.92,526.34c4.64,0,8.41-3.29,8.41-7.35s-3.76-7.35-8.41-7.35-8.4,3.29-8.4,7.35,3.77,7.35,8.4,7.35h0ZM599.97,526.43c4.7,0,8.5-3.32,8.5-7.44s-3.8-7.44-8.5-7.44-8.51,3.32-8.51,7.44,3.81,7.44,8.51,7.44h0ZM563.01,526.34c4.64,0,8.39-3.29,8.39-7.35s-3.76-7.35-8.39-7.35-8.4,3.29-8.4,7.35,3.76,7.35,8.4,7.35h0ZM526.05,526.16c4.53,0,8.2-3.21,8.2-7.17s-3.67-7.17-8.2-7.17-8.19,3.21-8.19,7.17,3.67,7.17,8.19,7.17h0ZM489.09,525.89c4.36,0,7.89-3.09,7.89-6.9s-3.53-6.91-7.89-6.91-7.89,3.1-7.89,6.91,3.53,6.9,7.89,6.9h0ZM452.14,525.53c4.13,0,7.48-2.93,7.48-6.54s-3.35-6.55-7.48-6.55-7.49,2.92-7.49,6.55,3.35,6.54,7.49,6.54h0ZM415.19,525.08c3.84,0,6.96-2.73,6.96-6.09s-3.12-6.1-6.96-6.1-6.97,2.73-6.97,6.1,3.12,6.09,6.97,6.09h0ZM378.23,524.54c3.52,0,6.36-2.49,6.36-5.55s-2.84-5.56-6.36-5.56-6.35,2.49-6.35,5.56,2.84,5.55,6.35,5.55h0ZM341.27,523.92c3.12,0,5.64-2.2,5.64-4.93s-2.52-4.93-5.64-4.93-5.63,2.21-5.63,4.93,2.53,4.93,5.63,4.93h0ZM304.32,523.29c2.71,0,4.92-1.93,4.92-4.3s-2.21-4.31-4.92-4.31-4.92,1.93-4.92,4.31,2.2,4.3,4.92,4.3h0ZM267.36,522.58c2.26,0,4.09-1.61,4.09-3.59s-1.84-3.59-4.09-3.59-4.1,1.61-4.1,3.59,1.83,3.59,4.1,3.59h0ZM230.4,521.86c1.81,0,3.28-1.29,3.28-2.87s-1.47-2.87-3.28-2.87-3.28,1.29-3.28,2.87,1.47,2.87,3.28,2.87h0ZM193.44,521.14c1.36,0,2.46-.97,2.46-2.15s-1.1-2.15-2.46-2.15-2.46.97-2.46,2.15,1.11,2.15,2.46,2.15h0ZM156.49,520.33c.85,0,1.54-.6,1.54-1.34s-.69-1.35-1.54-1.35-1.53.6-1.53,1.35.69,1.34,1.53,1.34h0ZM119.54,519.53c.34,0,.62-.24.62-.54s-.28-.54-.62-.54-.62.24-.62.54.29.54.62.54h0ZM1080.4,486.84c.11,0,.2-.08.2-.18s-.09-.18-.2-.18c-.12,0-.21.08-.21.18s.09.18.21.18h0ZM1043.44,487.56c.56,0,1.02-.4,1.02-.9s-.46-.89-1.02-.89-1.04.4-1.04.89.46.9,1.04.9h0ZM1006.48,488.27c1.02,0,1.84-.72,1.84-1.62s-.82-1.61-1.84-1.61-1.85.72-1.85,1.61.83,1.62,1.85,1.62h0ZM969.53,488.99c1.47,0,2.67-1.05,2.67-2.33s-1.2-2.34-2.67-2.34-2.67,1.06-2.67,2.34,1.19,2.33,2.67,2.33h0ZM932.57,489.71c1.92,0,3.48-1.36,3.48-3.05s-1.55-3.04-3.48-3.04-3.5,1.37-3.5,3.04,1.57,3.05,3.5,3.05h0ZM895.62,490.34c2.31,0,4.19-1.65,4.19-3.68s-1.88-3.68-4.19-3.68-4.21,1.65-4.21,3.68,1.88,3.68,4.21,3.68h0ZM858.65,490.87c2.66,0,4.82-1.89,4.82-4.22s-2.16-4.21-4.82-4.21-4.81,1.88-4.81,4.21,2.15,4.22,4.81,4.22h0ZM821.7,491.5c3.06,0,5.54-2.17,5.54-4.84s-2.48-4.83-5.54-4.83-5.53,2.17-5.53,4.83,2.49,4.84,5.53,4.84h0ZM784.75,491.95c3.34,0,6.04-2.36,6.04-5.29s-2.7-5.29-6.04-5.29-6.04,2.37-6.04,5.29,2.7,5.29,6.04,5.29h0ZM747.79,492.4c3.62,0,6.55-2.57,6.55-5.74s-2.93-5.73-6.55-5.73-6.56,2.57-6.56,5.73,2.94,5.74,6.56,5.74h0ZM710.83,492.76c3.85,0,6.97-2.73,6.97-6.1s-3.12-6.09-6.97-6.09-6.96,2.73-6.96,6.09,3.12,6.1,6.96,6.1h0ZM673.88,492.93c3.95,0,7.17-2.81,7.17-6.27s-3.22-6.27-7.17-6.27-7.17,2.81-7.17,6.27,3.22,6.27,7.17,6.27h0ZM636.92,493.12c4.08,0,7.38-2.89,7.38-6.46s-3.3-6.45-7.38-6.45-7.38,2.89-7.38,6.45,3.3,6.46,7.38,6.46h0ZM599.97,493.12c4.08,0,7.38-2.89,7.38-6.46s-3.3-6.45-7.38-6.45-7.38,2.89-7.38,6.45,3.3,6.46,7.38,6.46h0ZM563.01,493.12c4.07,0,7.37-2.89,7.37-6.46s-3.3-6.45-7.37-6.45-7.38,2.89-7.38,6.45,3.3,6.46,7.38,6.46h0ZM526.05,492.93c3.96,0,7.18-2.81,7.18-6.27s-3.22-6.27-7.18-6.27-7.17,2.81-7.17,6.27,3.22,6.27,7.17,6.27h0ZM489.09,492.67c3.8,0,6.87-2.69,6.87-6.01s-3.07-6.01-6.87-6.01-6.87,2.69-6.87,6.01,3.08,6.01,6.87,6.01h0ZM452.14,492.31c3.56,0,6.46-2.53,6.46-5.65s-2.9-5.65-6.46-5.65-6.45,2.53-6.45,5.65,2.89,5.65,6.45,5.65h0ZM415.19,491.95c3.34,0,6.05-2.36,6.05-5.29s-2.71-5.29-6.05-5.29-6.05,2.37-6.05,5.29,2.71,5.29,6.05,5.29h0ZM378.23,491.41c3,0,5.43-2.14,5.43-4.76s-2.42-4.75-5.43-4.75-5.43,2.14-5.43,4.75,2.44,4.76,5.43,4.76h0ZM341.27,490.87c2.67,0,4.82-1.89,4.82-4.22s-2.15-4.21-4.82-4.21-4.82,1.88-4.82,4.21,2.16,4.22,4.82,4.22h0ZM304.32,490.25c2.27,0,4.11-1.61,4.11-3.59s-1.84-3.58-4.11-3.58-4.1,1.61-4.1,3.58,1.83,3.59,4.1,3.59h0ZM267.36,489.62c1.88,0,3.38-1.33,3.38-2.96s-1.51-2.96-3.38-2.96-3.38,1.33-3.38,2.96,1.52,2.96,3.38,2.96h0ZM230.4,488.9c1.43,0,2.56-1,2.56-2.24s-1.13-2.24-2.56-2.24-2.56,1.01-2.56,2.24,1.15,2.24,2.56,2.24h0ZM193.44,488.18c.97,0,1.74-.68,1.74-1.52s-.78-1.53-1.74-1.53-1.73.69-1.73,1.53.78,1.52,1.73,1.52h0ZM156.49,487.47c.51,0,.92-.36.92-.81s-.41-.8-.92-.8-.92.36-.92.8.42.81.92.81h0ZM119.54,486.84c.11,0,.21-.08.21-.18s-.1-.18-.21-.18-.21.08-.21.18.1.18.21.18h0ZM1043.44,454.69c.22,0,.4-.16.4-.36s-.18-.36-.4-.36c-.23,0-.41.16-.41.36s.18.36.41.36h0ZM1006.48,455.31c.63,0,1.12-.43,1.12-.98s-.5-.98-1.12-.98-1.14.44-1.14.98.51.98,1.14.98h0ZM969.53,456.04c1.07,0,1.95-.76,1.95-1.71s-.88-1.7-1.95-1.7-1.95.76-1.95,1.7.87,1.71,1.95,1.71h0ZM932.57,456.66c1.47,0,2.67-1.05,2.67-2.33s-1.19-2.33-2.67-2.33-2.67,1.04-2.67,2.33,1.19,2.33,2.67,2.33h0ZM895.62,457.29c1.86,0,3.37-1.33,3.37-2.96s-1.51-2.96-3.37-2.96-3.39,1.33-3.39,2.96,1.52,2.96,3.39,2.96h0ZM858.65,457.83c2.21,0,3.99-1.57,3.99-3.5s-1.79-3.5-3.99-3.5-4,1.57-4,3.5,1.8,3.5,4,3.5h0ZM821.7,458.36c2.55,0,4.61-1.81,4.61-4.03s-2.07-4.03-4.61-4.03-4.61,1.81-4.61,4.03,2.07,4.03,4.61,4.03h0ZM784.75,458.81c2.82,0,5.12-2,5.12-4.48s-2.3-4.48-5.12-4.48-5.13,2.01-5.13,4.48,2.29,4.48,5.13,4.48h0ZM747.79,459.17c3.05,0,5.53-2.17,5.53-4.84s-2.47-4.84-5.53-4.84-5.53,2.17-5.53,4.84,2.48,4.84,5.53,4.84h0ZM710.83,459.53c3.29,0,5.94-2.33,5.94-5.2s-2.66-5.2-5.94-5.2-5.94,2.33-5.94,5.2,2.66,5.2,5.94,5.2h0ZM673.88,459.71c3.4,0,6.14-2.41,6.14-5.38s-2.74-5.37-6.14-5.37-6.14,2.4-6.14,5.37,2.75,5.38,6.14,5.38h0ZM636.92,459.89c3.51,0,6.36-2.49,6.36-5.56s-2.85-5.56-6.36-5.56-6.35,2.49-6.35,5.56,2.85,5.56,6.35,5.56h0ZM599.97,459.89c3.5,0,6.35-2.49,6.35-5.56s-2.85-5.56-6.35-5.56-6.35,2.49-6.35,5.56,2.84,5.56,6.35,5.56h0ZM563.01,459.89c3.5,0,6.35-2.49,6.35-5.56s-2.85-5.56-6.35-5.56-6.35,2.49-6.35,5.56,2.84,5.56,6.35,5.56h0ZM526.05,459.71c3.4,0,6.15-2.41,6.15-5.38s-2.76-5.37-6.15-5.37-6.14,2.4-6.14,5.37,2.75,5.38,6.14,5.38h0ZM489.09,459.44c3.23,0,5.84-2.29,5.84-5.11s-2.61-5.11-5.84-5.11-5.84,2.29-5.84,5.11,2.61,5.11,5.84,5.11h0ZM452.14,459.17c3.05,0,5.53-2.17,5.53-4.84s-2.49-4.84-5.53-4.84-5.54,2.17-5.54,4.84,2.47,4.84,5.54,4.84h0ZM415.19,458.72c2.77,0,5.02-1.97,5.02-4.39s-2.25-4.39-5.02-4.39-5.03,1.97-5.03,4.39,2.25,4.39,5.03,4.39h0ZM378.23,458.28c2.49,0,4.51-1.77,4.51-3.95s-2.02-3.94-4.51-3.94-4.51,1.76-4.51,3.94,2.02,3.95,4.51,3.95h0ZM341.27,457.83c2.21,0,4-1.57,4-3.5s-1.79-3.5-4-3.5-3.99,1.57-3.99,3.5,1.79,3.5,3.99,3.5h0ZM304.32,457.2c1.81,0,3.29-1.28,3.29-2.87s-1.47-2.87-3.29-2.87-3.28,1.28-3.28,2.87,1.47,2.87,3.28,2.87h0ZM267.36,456.57c1.42,0,2.56-1,2.56-2.24s-1.14-2.24-2.56-2.24-2.56,1.01-2.56,2.24,1.16,2.24,2.56,2.24h0ZM230.4,455.94c1.03,0,1.85-.72,1.85-1.62s-.82-1.62-1.85-1.62-1.84.72-1.84,1.62.82,1.62,1.84,1.62h0ZM193.44,455.31c.63,0,1.13-.43,1.13-.98s-.51-.98-1.13-.98-1.12.44-1.12.98.51.98,1.12.98h0ZM156.49,454.6c.17,0,.31-.12.31-.27,0-.14-.15-.27-.31-.27s-.3.12-.3.27c0,.15.13.27.3.27h0ZM1006.48,422.36c.22,0,.41-.16.41-.36s-.18-.36-.41-.36-.41.16-.41.36.18.36.41.36h0ZM969.53,422.98c.62,0,1.12-.44,1.12-.98s-.5-.98-1.12-.98-1.13.43-1.13.98.52.98,1.13.98h0ZM932.57,423.62c1.01,0,1.84-.72,1.84-1.62s-.83-1.62-1.84-1.62-1.85.73-1.85,1.62.83,1.62,1.85,1.62h0ZM895.62,424.15c1.35,0,2.46-.96,2.46-2.15s-1.11-2.15-2.46-2.15-2.47.96-2.47,2.15,1.1,2.15,2.47,2.15h0ZM858.65,424.69c1.7,0,3.08-1.21,3.08-2.69s-1.38-2.69-3.08-2.69-3.07,1.2-3.07,2.69,1.37,2.69,3.07,2.69h0ZM821.7,425.23c2.04,0,3.69-1.45,3.69-3.23s-1.65-3.23-3.69-3.23-3.69,1.44-3.69,3.23,1.66,3.23,3.69,3.23h0ZM784.75,425.59c2.27,0,4.1-1.61,4.1-3.59s-1.84-3.58-4.1-3.58-4.11,1.6-4.11,3.58,1.84,3.59,4.11,3.59h0ZM747.79,425.94c2.49,0,4.51-1.76,4.51-3.94s-2.01-3.94-4.51-3.94-4.51,1.76-4.51,3.94,2.02,3.94,4.51,3.94h0ZM710.83,426.22c2.66,0,4.82-1.89,4.82-4.22s-2.16-4.21-4.82-4.21-4.81,1.88-4.81,4.21,2.15,4.22,4.81,4.22h0ZM673.88,426.49c2.83,0,5.12-2.02,5.12-4.49s-2.3-4.48-5.12-4.48-5.13,2.01-5.13,4.48,2.3,4.49,5.13,4.49h0ZM636.92,426.58c2.89,0,5.23-2.05,5.23-4.58s-2.35-4.57-5.23-4.57-5.22,2.05-5.22,4.57,2.34,4.58,5.22,4.58h0ZM599.97,426.58c2.89,0,5.22-2.05,5.22-4.58s-2.34-4.57-5.22-4.57-5.23,2.05-5.23,4.57,2.34,4.58,5.23,4.58h0ZM563.01,426.58c2.89,0,5.22-2.05,5.22-4.58s-2.33-4.57-5.22-4.57-5.23,2.05-5.23,4.57,2.33,4.58,5.23,4.58h0ZM526.05,426.39c2.78,0,5.02-1.96,5.02-4.39s-2.24-4.39-5.02-4.39-5.02,1.97-5.02,4.39,2.25,4.39,5.02,4.39h0ZM489.09,426.22c2.67,0,4.82-1.89,4.82-4.22s-2.15-4.21-4.82-4.21-4.82,1.88-4.82,4.21,2.16,4.22,4.82,4.22h0ZM452.14,425.94c2.49,0,4.5-1.76,4.5-3.94s-2.01-3.94-4.5-3.94-4.51,1.76-4.51,3.94,2.03,3.94,4.51,3.94h0ZM415.19,425.59c2.26,0,4.09-1.61,4.09-3.59s-1.84-3.58-4.09-3.58-4.1,1.6-4.1,3.58,1.83,3.59,4.1,3.59h0ZM378.23,425.13c1.98,0,3.59-1.4,3.59-3.13s-1.61-3.13-3.59-3.13-3.58,1.4-3.58,3.13,1.61,3.13,3.58,3.13h0ZM341.27,424.69c1.7,0,3.08-1.21,3.08-2.69s-1.37-2.69-3.08-2.69-3.07,1.2-3.07,2.69,1.37,2.69,3.07,2.69h0ZM304.32,424.15c1.36,0,2.46-.96,2.46-2.15s-1.1-2.15-2.46-2.15-2.46.96-2.46,2.15,1.11,2.15,2.46,2.15h0ZM267.36,423.53c.96,0,1.74-.69,1.74-1.53s-.78-1.52-1.74-1.52-1.74.68-1.74,1.52.78,1.53,1.74,1.53h0ZM230.4,422.98c.64,0,1.13-.44,1.13-.98s-.5-.98-1.13-.98-1.12.43-1.12.98.49.98,1.12.98h0ZM193.44,422.36c.23,0,.42-.16.42-.36s-.18-.36-.42-.36c-.22,0-.41.16-.41.36s.19.36.41.36h0ZM969.53,389.94c.18,0,.31-.12.31-.27,0-.16-.13-.27-.31-.27-.17,0-.3.12-.3.27,0,.14.14.27.3.27h0ZM932.57,390.57c.56,0,1.02-.4,1.02-.89s-.46-.9-1.02-.9-1.03.4-1.03.9.45.89,1.03.89h0ZM895.62,391.11c.9,0,1.63-.64,1.63-1.43s-.73-1.44-1.63-1.44-1.65.65-1.65,1.44.73,1.43,1.65,1.43h0ZM858.65,391.55c1.19,0,2.15-.84,2.15-1.87s-.97-1.88-2.15-1.88-2.15.84-2.15,1.88.97,1.87,2.15,1.87h0ZM821.7,392c1.47,0,2.67-1.05,2.67-2.33s-1.19-2.33-2.67-2.33-2.66,1.04-2.66,2.33,1.19,2.33,2.66,2.33h0ZM784.75,392.45c1.75,0,3.17-1.24,3.17-2.78s-1.42-2.78-3.17-2.78-3.17,1.24-3.17,2.78,1.42,2.78,3.17,2.78h0ZM747.79,392.72c1.92,0,3.48-1.36,3.48-3.04s-1.56-3.05-3.48-3.05-3.49,1.37-3.49,3.05,1.56,3.04,3.49,3.04h0ZM710.83,392.99c2.1,0,3.79-1.49,3.79-3.32s-1.69-3.32-3.79-3.32-3.79,1.48-3.79,3.32,1.7,3.32,3.79,3.32h0ZM673.88,393.17c2.2,0,4-1.57,4-3.5s-1.8-3.5-4-3.5-4,1.56-4,3.5,1.79,3.5,4,3.5h0ZM636.92,393.35c2.33,0,4.2-1.65,4.2-3.67s-1.87-3.68-4.2-3.68-4.2,1.64-4.2,3.68,1.87,3.67,4.2,3.67h0ZM599.97,393.35c2.32,0,4.2-1.65,4.2-3.67s-1.88-3.68-4.2-3.68-4.21,1.64-4.21,3.68,1.88,3.67,4.21,3.67h0ZM563.01,393.26c2.26,0,4.1-1.6,4.1-3.58s-1.84-3.59-4.1-3.59-4.1,1.61-4.1,3.59,1.84,3.58,4.1,3.58h0ZM526.05,393.17c2.21,0,4-1.57,4-3.5s-1.79-3.5-4-3.5-3.99,1.56-3.99,3.5,1.79,3.5,3.99,3.5h0ZM489.09,392.99c2.09,0,3.8-1.49,3.8-3.32s-1.71-3.32-3.8-3.32-3.79,1.48-3.79,3.32,1.7,3.32,3.79,3.32h0ZM452.14,392.72c1.92,0,3.49-1.36,3.49-3.04s-1.56-3.05-3.49-3.05-3.49,1.37-3.49,3.05,1.56,3.04,3.49,3.04h0ZM415.19,392.36c1.7,0,3.07-1.2,3.07-2.68s-1.37-2.7-3.07-2.7-3.08,1.21-3.08,2.7,1.38,2.68,3.08,2.68h0ZM378.23,392c1.47,0,2.66-1.05,2.66-2.33s-1.19-2.33-2.66-2.33-2.66,1.04-2.66,2.33,1.18,2.33,2.66,2.33h0ZM341.27,391.55c1.19,0,2.15-.84,2.15-1.87s-.96-1.88-2.15-1.88-2.15.84-2.15,1.88.97,1.87,2.15,1.87h0ZM304.32,391.01c.86,0,1.54-.6,1.54-1.34s-.69-1.35-1.54-1.35-1.53.6-1.53,1.35.69,1.34,1.53,1.34h0ZM267.36,390.47c.51,0,.92-.36.92-.8s-.42-.81-.92-.81-.92.35-.92.81.41.8.92.8h0ZM230.4,389.94c.17,0,.31-.12.31-.27,0-.16-.14-.27-.31-.27s-.31.12-.31.27c0,.14.14.27.31.27h0ZM932.57,357.52c.11,0,.2-.09.2-.18,0-.11-.09-.18-.2-.18-.12,0-.2.08-.2.18,0,.09.08.18.2.18h0ZM895.62,357.97c.39,0,.71-.28.71-.62s-.32-.63-.71-.63-.72.28-.72.63.31.62.72.62h0ZM858.65,358.42c.69,0,1.23-.48,1.23-1.07s-.54-1.07-1.23-1.07-1.23.48-1.23,1.07.55,1.07,1.23,1.07h0ZM821.7,358.86c.97,0,1.74-.68,1.74-1.52s-.78-1.53-1.74-1.53-1.74.69-1.74,1.53.78,1.52,1.74,1.52h0ZM784.75,359.22c1.19,0,2.15-.84,2.15-1.88s-.96-1.88-2.15-1.88-2.15.84-2.15,1.88.96,1.88,2.15,1.88h0ZM747.79,359.5c1.36,0,2.46-.96,2.46-2.15s-1.1-2.16-2.46-2.16-2.47.97-2.47,2.16,1.1,2.15,2.47,2.15h0ZM710.83,359.76c1.53,0,2.77-1.08,2.77-2.41s-1.24-2.43-2.77-2.43-2.76,1.08-2.76,2.43,1.24,2.41,2.76,2.41h0ZM673.88,359.94c1.65,0,2.97-1.16,2.97-2.59s-1.32-2.61-2.97-2.61-2.97,1.17-2.97,2.61,1.33,2.59,2.97,2.59h0ZM636.92,360.03c1.7,0,3.08-1.2,3.08-2.68s-1.38-2.69-3.08-2.69-3.07,1.21-3.07,2.69,1.39,2.68,3.07,2.68h0ZM599.97,360.03c1.7,0,3.07-1.2,3.07-2.68s-1.37-2.69-3.07-2.69-3.08,1.21-3.08,2.69,1.38,2.68,3.08,2.68h0ZM563.01,360.03c1.7,0,3.07-1.2,3.07-2.68s-1.37-2.69-3.07-2.69-3.08,1.21-3.08,2.69,1.38,2.68,3.08,2.68h0ZM526.05,359.94c1.65,0,2.97-1.16,2.97-2.59s-1.32-2.61-2.97-2.61-2.97,1.17-2.97,2.61,1.33,2.59,2.97,2.59h0ZM489.09,359.76c1.53,0,2.77-1.08,2.77-2.41s-1.23-2.43-2.77-2.43-2.76,1.08-2.76,2.43,1.24,2.41,2.76,2.41h0ZM452.14,359.5c1.36,0,2.46-.96,2.46-2.15s-1.1-2.16-2.46-2.16-2.46.97-2.46,2.16,1.11,2.15,2.46,2.15h0ZM415.19,359.14c1.12,0,2.05-.81,2.05-1.79s-.92-1.8-2.05-1.8-2.06.81-2.06,1.8.92,1.79,2.06,1.79h0ZM378.23,358.78c.91,0,1.64-.65,1.64-1.43s-.73-1.44-1.64-1.44-1.63.65-1.63,1.44.73,1.43,1.63,1.43h0ZM341.27,358.42c.68,0,1.24-.48,1.24-1.07s-.56-1.07-1.24-1.07-1.22.48-1.22,1.07.54,1.07,1.22,1.07h0ZM304.32,357.88c.34,0,.62-.24.62-.53s-.28-.54-.62-.54-.61.24-.61.54.27.53.61.53h0ZM267.36,357.52c.11,0,.2-.09.2-.18,0-.11-.09-.18-.2-.18s-.21.08-.21.18c0,.09.09.18.21.18h0ZM858.65,325.28c.18,0,.31-.12.31-.26,0-.16-.14-.28-.31-.28-.17,0-.3.12-.3.28,0,.14.14.26.3.26h0ZM821.7,325.64c.39,0,.71-.28.71-.62s-.32-.64-.71-.64-.71.28-.71.64.31.62.71.62h0ZM784.75,326c.62,0,1.12-.44,1.12-.98s-.51-.99-1.12-.99-1.13.44-1.13.99.51.98,1.13.98h0ZM747.79,326.27c.79,0,1.43-.56,1.43-1.25s-.64-1.26-1.43-1.26-1.44.56-1.44,1.26.65,1.25,1.44,1.25h0ZM710.83,326.54c.97,0,1.75-.68,1.75-1.52s-.79-1.53-1.75-1.53-1.74.69-1.74,1.53.79,1.52,1.74,1.52h0ZM673.88,326.63c1.02,0,1.85-.72,1.85-1.61s-.83-1.63-1.85-1.63-1.85.73-1.85,1.63.83,1.61,1.85,1.61h0ZM636.92,326.72c1.08,0,1.95-.76,1.95-1.7s-.88-1.71-1.95-1.71-1.95.76-1.95,1.71.88,1.7,1.95,1.7h0ZM599.97,326.8c1.13,0,2.05-.8,2.05-1.78s-.91-1.8-2.05-1.8-2.06.8-2.06,1.8.92,1.78,2.06,1.78h0ZM563.01,326.72c1.07,0,1.95-.76,1.95-1.7s-.87-1.71-1.95-1.71-1.95.76-1.95,1.71.87,1.7,1.95,1.7h0ZM526.05,326.63c1.02,0,1.85-.72,1.85-1.61s-.83-1.63-1.85-1.63-1.85.73-1.85,1.63.83,1.61,1.85,1.61h0ZM489.09,326.45c.92,0,1.65-.64,1.65-1.42s-.73-1.44-1.65-1.44-1.63.65-1.63,1.44.73,1.42,1.63,1.42h0ZM452.14,326.27c.79,0,1.44-.56,1.44-1.25s-.65-1.26-1.44-1.26-1.43.56-1.43,1.26.64,1.25,1.43,1.25h0ZM415.19,326c.62,0,1.12-.44,1.12-.98s-.51-.99-1.12-.99-1.13.44-1.13.99.5.98,1.13.98h0ZM378.23,325.64c.4,0,.72-.28.72-.62s-.32-.64-.72-.64-.72.28-.72.64.32.62.72.62h0ZM341.27,325.28c.17,0,.3-.12.3-.26,0-.16-.13-.28-.3-.28s-.3.12-.3.28c0,.14.14.26.3.26Z"/>
  </g>
</svg>