<?xml version="1.0" encoding="UTF-8"?>
<svg id="Layer_1" data-name="Layer 1" xmlns="http://www.w3.org/2000/svg" viewBox="0 0 2001 1133.79">
  <defs>
    <style>
      .cls-1 {
        fill: #141a4f;
      }

      .cls-2 {
        fill: #0fa1ff;
        fill-rule: evenodd;
        opacity: .41;
      }
    </style>
  </defs>
  <rect class="cls-1" width="2001" height="1127.35"/>
  <path class="cls-2" d="M1408.7,1131.55c.08,0,.14-.06.14-.12,0-.05-.06-.12-.14-.12-.09,0-.16.06-.16.12,0,.06.07.12.16.12h0ZM1352.11,1131.89c.35,0,.63-.2.63-.45s-.28-.45-.63-.45-.61.2-.61.45.27.45.61.45h0ZM1295.53,1132.33c.7,0,1.26-.4,1.26-.89s-.56-.89-1.26-.89-1.25.4-1.25.89.56.89,1.25.89h0ZM1238.96,1132.78c1.04,0,1.88-.6,1.88-1.34s-.84-1.34-1.88-1.34-1.89.6-1.89,1.34.85,1.34,1.89,1.34h0ZM1182.39,1133.11c1.29,0,2.35-.75,2.35-1.68s-1.06-1.67-2.35-1.67-2.36.74-2.36,1.67,1.06,1.68,2.36,1.68h0ZM1125.8,1133.34c1.48,0,2.68-.85,2.68-1.9s-1.2-1.9-2.68-1.9-2.67.86-2.67,1.9,1.2,1.9,2.67,1.9h0ZM1069.23,1133.56c1.64,0,2.99-.93,2.99-2.12s-1.35-2.13-2.99-2.13-2.98.96-2.98,2.13,1.34,2.12,2.98,2.12h0ZM1012.65,1133.67c1.74,0,3.14-1,3.14-2.24s-1.4-2.23-3.14-2.23-3.14,1-3.14,2.23,1.4,2.24,3.14,2.24h0ZM956.08,1133.79c1.82,0,3.3-1.06,3.3-2.35s-1.48-2.35-3.3-2.35-3.29,1.06-3.29,2.35,1.47,2.35,3.29,2.35h0ZM899.51,1133.67c1.73,0,3.14-1,3.14-2.24s-1.41-2.23-3.14-2.23-3.15,1-3.15,2.23,1.42,2.24,3.15,2.24h0ZM842.92,1133.56c1.64,0,2.99-.93,2.99-2.12s-1.35-2.13-2.99-2.13-2.98.96-2.98,2.13,1.34,2.12,2.98,2.12h0ZM786.35,1133.34c1.46,0,2.67-.85,2.67-1.9s-1.21-1.9-2.67-1.9-2.67.86-2.67,1.9,1.2,1.9,2.67,1.9h0ZM729.78,1133.11c1.29,0,2.36-.75,2.36-1.68s-1.07-1.67-2.36-1.67-2.35.74-2.35,1.67,1.04,1.68,2.35,1.68h0ZM673.21,1132.66c.94,0,1.72-.55,1.72-1.23s-.78-1.23-1.72-1.23-1.72.55-1.72,1.23.76,1.23,1.72,1.23h0ZM616.62,1132.33c.69,0,1.26-.4,1.26-.89s-.58-.89-1.26-.89-1.25.4-1.25.89.56.89,1.25.89h0ZM560.04,1131.77c.26,0,.46-.14.46-.33,0-.18-.2-.33-.46-.33s-.47.15-.47.33c0,.19.21.33.47.33h0ZM503.47,1131.55c.09,0,.16-.06.16-.12,0-.05-.06-.12-.16-.12-.08,0-.16.06-.16.12,0,.06.08.12.16.12h0ZM1465.27,1091.37c.17,0,.31-.1.31-.22s-.14-.23-.31-.23c-.19,0-.31.1-.31.23s.12.22.31.22h0ZM1408.7,1092.04c.68,0,1.24-.4,1.24-.89s-.56-.89-1.24-.89-1.27.4-1.27.89.57.89,1.27.89h0ZM1352.11,1092.6c1.12,0,2.04-.65,2.04-1.45s-.92-1.45-2.04-1.45-2.04.64-2.04,1.45.91,1.45,2.04,1.45h0ZM1295.53,1093.05c1.48,0,2.67-.86,2.67-1.9s-1.19-1.9-2.67-1.9-2.67.85-2.67,1.9,1.2,1.9,2.67,1.9h0ZM1238.96,1093.61c1.91,0,3.45-1.1,3.45-2.46s-1.55-2.46-3.45-2.46-3.46,1.1-3.46,2.46,1.55,2.46,3.46,2.46h0ZM1182.39,1093.94c2.16,0,3.92-1.26,3.92-2.79s-1.76-2.8-3.92-2.8-3.92,1.26-3.92,2.8,1.76,2.79,3.92,2.79h0ZM1125.8,1094.28c2.43,0,4.4-1.41,4.4-3.12s-1.97-3.13-4.4-3.13-4.39,1.4-4.39,3.13,1.97,3.12,4.39,3.12h0ZM1069.23,1094.49c2.6,0,4.71-1.49,4.71-3.34s-2.11-3.36-4.71-3.36-4.7,1.5-4.7,3.36,2.11,3.34,4.7,3.34h0ZM1012.65,1094.61c2.69,0,4.86-1.55,4.86-3.46s-2.18-3.46-4.86-3.46-4.85,1.54-4.85,3.46,2.18,3.46,4.85,3.46h0ZM956.08,1094.61c2.68,0,4.85-1.55,4.85-3.46s-2.17-3.46-4.85-3.46-4.86,1.54-4.86,3.46,2.17,3.46,4.86,3.46h0ZM899.51,1094.61c2.69,0,4.86-1.55,4.86-3.46s-2.17-3.46-4.86-3.46-4.87,1.54-4.87,3.46,2.17,3.46,4.87,3.46h0ZM842.92,1094.49c2.62,0,4.71-1.49,4.71-3.34s-2.09-3.36-4.71-3.36-4.69,1.5-4.69,3.36,2.11,3.34,4.69,3.34h0ZM786.35,1094.28c2.43,0,4.39-1.41,4.39-3.12s-1.96-3.13-4.39-3.13-4.39,1.4-4.39,3.13,1.96,3.12,4.39,3.12h0ZM729.78,1093.94c2.16,0,3.92-1.26,3.92-2.79s-1.76-2.8-3.92-2.8-3.93,1.26-3.93,2.8,1.76,2.79,3.93,2.79h0ZM673.21,1093.5c1.81,0,3.29-1.06,3.29-2.35s-1.48-2.35-3.29-2.35-3.31,1.06-3.31,2.35,1.49,2.35,3.31,2.35h0ZM616.62,1093.05c1.47,0,2.67-.86,2.67-1.9s-1.2-1.9-2.67-1.9-2.66.85-2.66,1.9,1.18,1.9,2.66,1.9h0ZM560.04,1092.49c1.04,0,1.89-.6,1.89-1.34s-.85-1.34-1.89-1.34-1.87.6-1.87,1.34.83,1.34,1.87,1.34h0ZM503.47,1091.93c.61,0,1.11-.35,1.11-.78s-.5-.79-1.11-.79-1.09.35-1.09.79.49.78,1.09.78h0ZM446.89,1091.37c.17,0,.31-.1.31-.22s-.13-.23-.31-.23-.32.1-.32.23.14.22.32.22h0ZM1521.84,1051.3c.35,0,.63-.2.63-.43,0-.25-.28-.45-.63-.45s-.63.2-.63.45c0,.23.28.43.63.43h0ZM1465.27,1051.97c.85,0,1.56-.49,1.56-1.11s-.71-1.13-1.56-1.13-1.57.51-1.57,1.13.69,1.11,1.57,1.11h0ZM1408.7,1052.65c1.37,0,2.49-.8,2.49-1.78s-1.12-1.79-2.49-1.79-2.52.8-2.52,1.79,1.12,1.78,2.52,1.78h0ZM1352.11,1053.31c1.91,0,3.46-1.09,3.46-2.45s-1.55-2.46-3.46-2.46-3.44,1.1-3.44,2.46,1.55,2.45,3.44,2.45h0ZM1295.53,1053.87c2.34,0,4.24-1.35,4.24-3.01s-1.9-3.02-4.24-3.02-4.23,1.35-4.23,3.02,1.89,3.01,4.23,3.01h0ZM1238.96,1054.43c2.77,0,5.01-1.59,5.01-3.57s-2.24-3.59-5.01-3.59-5.02,1.61-5.02,3.59,2.25,3.57,5.02,3.57h0ZM1182.39,1054.77c3.03,0,5.48-1.75,5.48-3.9s-2.46-3.92-5.48-3.92-5.48,1.76-5.48,3.92,2.44,3.9,5.48,3.9h0ZM1125.8,1055.1c3.31,0,5.97-1.9,5.97-4.23s-2.66-4.25-5.97-4.25-5.96,1.9-5.96,4.25,2.67,4.23,5.96,4.23h0ZM1069.23,1055.33c3.47,0,6.29-2.01,6.29-4.46s-2.82-4.48-6.29-4.48-6.27,2-6.27,4.48,2.8,4.46,6.27,4.46h0ZM1012.65,1055.44c3.57,0,6.43-2.05,6.43-4.58s-2.87-4.59-6.43-4.59-6.43,2.05-6.43,4.59,2.87,4.58,6.43,4.58h0ZM956.08,1055.54c3.63,0,6.59-2.09,6.59-4.68s-2.96-4.7-6.59-4.7-6.59,2.1-6.59,4.7,2.95,4.68,6.59,4.68h0ZM899.51,1055.44c3.55,0,6.43-2.05,6.43-4.58s-2.88-4.59-6.43-4.59-6.44,2.05-6.44,4.59,2.88,4.58,6.44,4.58h0ZM842.92,1055.33c3.47,0,6.29-2.01,6.29-4.46s-2.82-4.48-6.29-4.48-6.26,2-6.26,4.48,2.8,4.46,6.26,4.46h0ZM786.35,1055.1c3.3,0,5.97-1.9,5.97-4.23s-2.67-4.25-5.97-4.25-5.95,1.9-5.95,4.25,2.66,4.23,5.95,4.23h0ZM729.78,1054.77c3.03,0,5.5-1.75,5.5-3.9s-2.47-3.92-5.5-3.92-5.48,1.76-5.48,3.92,2.44,3.9,5.48,3.9h0ZM673.21,1054.32c2.67,0,4.85-1.55,4.85-3.46s-2.18-3.47-4.85-3.47-4.88,1.55-4.88,3.47,2.17,3.46,4.88,3.46h0ZM616.62,1053.87c2.34,0,4.24-1.35,4.24-3.01s-1.89-3.02-4.24-3.02-4.24,1.35-4.24,3.02,1.91,3.01,4.24,3.01h0ZM560.04,1053.21c1.83,0,3.29-1.06,3.29-2.35s-1.47-2.35-3.29-2.35-3.3,1.05-3.3,2.35,1.48,2.35,3.3,2.35h0ZM503.47,1052.65c1.39,0,2.51-.8,2.51-1.78s-1.12-1.79-2.51-1.79-2.5.8-2.5,1.79,1.12,1.78,2.5,1.78h0ZM446.89,1051.97c.87,0,1.57-.49,1.57-1.11s-.7-1.13-1.57-1.13-1.57.51-1.57,1.13.71,1.11,1.57,1.11h0ZM390.31,1051.3c.36,0,.64-.2.64-.43,0-.25-.28-.45-.64-.45-.33,0-.61.2-.61.45,0,.23.28.43.61.43h0ZM1578.42,1011.01c.34,0,.62-.2.62-.45s-.28-.43-.62-.43-.63.2-.63.43c0,.25.28.45.63.45h0ZM1521.84,1011.9c1.04,0,1.89-.59,1.89-1.34s-.85-1.34-1.89-1.34-1.88.61-1.88,1.34.84,1.34,1.88,1.34h0ZM1465.27,1012.69c1.64,0,2.99-.95,2.99-2.13s-1.35-2.11-2.99-2.11-2.99.94-2.99,2.11,1.34,2.13,2.99,2.13h0ZM1408.7,1013.36c2.16,0,3.92-1.24,3.92-2.79s-1.76-2.79-3.92-2.79-3.93,1.25-3.93,2.79,1.77,2.79,3.93,2.79h0ZM1352.11,1014.03c2.7,0,4.87-1.55,4.87-3.47s-2.18-3.45-4.87-3.45-4.86,1.55-4.86,3.45,2.17,3.47,4.86,3.47h0ZM1295.53,1014.7c3.2,0,5.81-1.85,5.81-4.13s-2.6-4.13-5.81-4.13-5.8,1.85-5.8,4.13,2.6,4.13,5.8,4.13h0ZM1238.96,1015.14c3.57,0,6.43-2.05,6.43-4.58s-2.86-4.58-6.43-4.58-6.44,2.05-6.44,4.58,2.87,4.58,6.44,4.58h0ZM1182.39,1015.6c3.9,0,7.06-2.25,7.06-5.04s-3.16-5.02-7.06-5.02-7.07,2.24-7.07,5.02,3.17,5.04,7.07,5.04h0ZM1125.8,1015.93c4.16,0,7.54-2.41,7.54-5.37s-3.37-5.35-7.54-5.35-7.53,2.4-7.53,5.35,3.37,5.37,7.53,5.37h0ZM1069.23,1016.15c4.33,0,7.84-2.5,7.84-5.59s-3.52-5.59-7.84-5.59-7.85,2.51-7.85,5.59,3.52,5.59,7.85,5.59h0ZM1012.65,1016.38c4.51,0,8.16-2.6,8.16-5.82s-3.65-5.8-8.16-5.8-8.15,2.61-8.15,5.8,3.64,5.82,8.15,5.82h0ZM956.08,1016.38c4.51,0,8.16-2.6,8.16-5.82s-3.65-5.8-8.16-5.8-8.16,2.61-8.16,5.8,3.66,5.82,8.16,5.82h0ZM899.51,1016.38c4.5,0,8.15-2.6,8.15-5.82s-3.66-5.8-8.15-5.8-8.17,2.61-8.17,5.8,3.66,5.82,8.17,5.82h0ZM842.92,1016.15c4.34,0,7.85-2.5,7.85-5.59s-3.51-5.59-7.85-5.59-7.85,2.51-7.85,5.59,3.52,5.59,7.85,5.59h0ZM786.35,1015.93c4.17,0,7.55-2.41,7.55-5.37s-3.38-5.35-7.55-5.35-7.52,2.4-7.52,5.35,3.37,5.37,7.52,5.37h0ZM729.78,1015.6c3.9,0,7.06-2.25,7.06-5.04s-3.16-5.02-7.06-5.02-7.06,2.24-7.06,5.02,3.17,5.04,7.06,5.04h0ZM673.21,1015.14c3.54,0,6.43-2.05,6.43-4.58s-2.88-4.58-6.43-4.58-6.44,2.05-6.44,4.58,2.89,4.58,6.44,4.58h0ZM616.62,1014.59c3.14,0,5.65-1.81,5.65-4.03s-2.51-4.02-5.65-4.02-5.64,1.8-5.64,4.02,2.52,4.03,5.64,4.03h0ZM560.04,1014.03c2.68,0,4.87-1.55,4.87-3.47s-2.19-3.45-4.87-3.45-4.86,1.55-4.86,3.45,2.17,3.47,4.86,3.47h0ZM503.47,1013.25c2.08,0,3.76-1.21,3.76-2.69s-1.68-2.68-3.76-2.68-3.76,1.21-3.76,2.68,1.69,2.69,3.76,2.69h0ZM446.89,1012.58c1.56,0,2.83-.9,2.83-2.01s-1.27-2-2.83-2-2.81.9-2.81,2,1.25,2.01,2.81,2.01h0ZM390.31,1011.8c.97,0,1.74-.55,1.74-1.23s-.76-1.23-1.74-1.23-1.71.55-1.71,1.23.76,1.23,1.71,1.23h0ZM333.73,1011.01c.36,0,.64-.2.64-.45s-.28-.43-.64-.43c-.33,0-.63.2-.63.43,0,.25.29.45.63.45h0ZM1635.01,970.73c.33,0,.61-.21.61-.46s-.28-.45-.61-.45c-.36,0-.63.2-.63.45s.27.46.63.46h0ZM1578.42,971.61c1.04,0,1.88-.6,1.88-1.34s-.84-1.34-1.88-1.34-1.89.61-1.89,1.34.84,1.34,1.89,1.34h0ZM1521.84,972.4c1.64,0,2.99-.95,2.99-2.12s-1.35-2.12-2.99-2.12-2.99.95-2.99,2.12,1.34,2.12,2.99,2.12h0ZM1465.27,973.3c2.34,0,4.23-1.36,4.23-3.02s-1.89-3.01-4.23-3.01-4.24,1.35-4.24,3.01,1.9,3.02,4.24,3.02h0ZM1408.7,974.08c2.93,0,5.32-1.7,5.32-3.8s-2.39-3.8-5.32-3.8-5.35,1.69-5.35,3.8,2.4,3.8,5.35,3.8h0ZM1352.11,974.74c3.47,0,6.27-1.99,6.27-4.46s-2.8-4.47-6.27-4.47-6.27,1.99-6.27,4.47,2.82,4.46,6.27,4.46h0ZM1295.53,975.41c3.99,0,7.22-2.3,7.22-5.14s-3.23-5.14-7.22-5.14-7.22,2.3-7.22,5.14,3.23,5.14,7.22,5.14h0ZM1238.96,975.97c4.41,0,8-2.56,8-5.7s-3.59-5.69-8-5.69-8.01,2.55-8.01,5.69,3.59,5.7,8.01,5.7h0ZM1182.39,976.42c4.76,0,8.62-2.75,8.62-6.15s-3.86-6.14-8.62-6.14-8.63,2.75-8.63,6.14,3.85,6.15,8.63,6.15h0ZM1125.8,976.76c5.03,0,9.1-2.9,9.1-6.48s-4.07-6.47-9.1-6.47-9.09,2.9-9.09,6.47,4.07,6.48,9.09,6.48h0ZM1069.23,977.09c5.29,0,9.57-3.05,9.57-6.81s-4.27-6.81-9.57-6.81-9.57,3.05-9.57,6.81,4.29,6.81,9.57,6.81h0ZM1012.65,977.32c5.46,0,9.89-3.16,9.89-7.04s-4.43-7.04-9.89-7.04-9.88,3.15-9.88,7.04,4.43,7.04,9.88,7.04h0ZM956.08,977.32c5.46,0,9.89-3.16,9.89-7.04s-4.43-7.04-9.89-7.04-9.87,3.15-9.87,7.04,4.41,7.04,9.87,7.04h0ZM899.51,977.2c5.36,0,9.73-3.09,9.73-6.93s-4.36-6.93-9.73-6.93-9.72,3.11-9.72,6.93,4.35,6.93,9.72,6.93h0ZM842.92,977.09c5.3,0,9.58-3.05,9.58-6.81s-4.28-6.81-9.58-6.81-9.55,3.05-9.55,6.81,4.27,6.81,9.55,6.81h0ZM786.35,976.76c5.03,0,9.1-2.9,9.1-6.48s-4.07-6.47-9.1-6.47-9.1,2.9-9.1,6.47,4.07,6.48,9.1,6.48h0ZM729.78,976.31c4.67,0,8.47-2.7,8.47-6.04s-3.81-6.04-8.47-6.04-8.48,2.71-8.48,6.04,3.79,6.04,8.48,6.04h0ZM673.21,975.86c4.33,0,7.83-2.5,7.83-5.59s-3.5-5.59-7.83-5.59-7.85,2.5-7.85,5.59,3.51,5.59,7.85,5.59h0ZM616.62,975.3c3.89,0,7.07-2.24,7.07-5.03s-3.17-5.03-7.07-5.03-7.06,2.25-7.06,5.03,3.16,5.03,7.06,5.03h0ZM560.04,974.64c3.39,0,6.12-1.95,6.12-4.36s-2.73-4.35-6.12-4.35-6.11,1.95-6.11,4.35,2.74,4.36,6.11,4.36h0ZM503.47,973.96c2.87,0,5.19-1.64,5.19-3.68s-2.32-3.69-5.19-3.69-5.18,1.65-5.18,3.69,2.32,3.68,5.18,3.68h0ZM446.89,973.18c2.25,0,4.07-1.3,4.07-2.91s-1.82-2.91-4.07-2.91-4.08,1.3-4.08,2.91,1.83,2.91,4.08,2.91h0ZM390.31,972.4c1.65,0,2.99-.95,2.99-2.12s-1.34-2.12-2.99-2.12-2.96.95-2.96,2.12,1.32,2.12,2.96,2.12h0ZM333.73,971.51c.96,0,1.74-.56,1.74-1.24s-.78-1.23-1.74-1.23-1.72.55-1.72,1.23.78,1.24,1.72,1.24h0ZM277.16,970.61c.25,0,.48-.15.48-.33s-.23-.33-.48-.33-.47.15-.47.33.2.33.47.33h0ZM1691.58,930.2c.17,0,.31-.1.31-.21,0-.13-.14-.23-.31-.23-.19,0-.32.11-.32.23,0,.12.14.21.32.21h0ZM1635.01,931.11c.85,0,1.56-.51,1.56-1.12s-.71-1.12-1.56-1.12-1.59.5-1.59,1.12.71,1.12,1.59,1.12h0ZM1578.42,932.11c1.64,0,2.97-.96,2.97-2.12s-1.33-2.12-2.97-2.12-2.98.95-2.98,2.12,1.32,2.12,2.98,2.12h0ZM1521.84,933c2.33,0,4.23-1.35,4.23-3.01s-1.89-3.01-4.23-3.01-4.23,1.35-4.23,3.01,1.88,3.01,4.23,3.01h0ZM1465.27,933.79c2.95,0,5.33-1.7,5.33-3.8s-2.38-3.8-5.33-3.8-5.35,1.7-5.35,3.8,2.41,3.8,5.35,3.8h0ZM1408.7,934.68c3.63,0,6.58-2.1,6.58-4.69s-2.95-4.7-6.58-4.7-6.59,2.1-6.59,4.7,2.95,4.69,6.59,4.69h0ZM1352.11,935.35c4.16,0,7.54-2.4,7.54-5.36s-3.37-5.37-7.54-5.37-7.52,2.41-7.52,5.37,3.37,5.36,7.52,5.36h0ZM1295.53,936.02c4.69,0,8.48-2.7,8.48-6.03s-3.79-6.04-8.48-6.04-8.47,2.7-8.47,6.04,3.8,6.03,8.47,6.03h0ZM1238.96,936.68c5.2,0,9.41-2.99,9.41-6.69s-4.2-6.71-9.41-6.71-9.42,3-9.42,6.71,4.22,6.69,9.42,6.69h0ZM1182.39,937.25c5.63,0,10.19-3.25,10.19-7.26s-4.56-7.26-10.19-7.26-10.21,3.25-10.21,7.26,4.58,7.26,10.21,7.26h0ZM1125.8,937.59c5.9,0,10.68-3.4,10.68-7.6s-4.78-7.6-10.68-7.6-10.66,3.4-10.66,7.6,4.77,7.6,10.66,7.6h0ZM1069.23,937.92c6.15,0,11.14-3.55,11.14-7.93s-4.99-7.94-11.14-7.94-11.14,3.55-11.14,7.94,4.99,7.93,11.14,7.93h0ZM1012.65,938.14c6.33,0,11.45-3.65,11.45-8.15s-5.13-8.16-11.45-8.16-11.44,3.64-11.44,8.16,5.13,8.15,11.44,8.15h0ZM956.08,938.14c6.31,0,11.45-3.65,11.45-8.15s-5.14-8.16-11.45-8.16-11.46,3.64-11.46,8.16,5.14,8.15,11.46,8.15h0ZM899.51,938.14c6.33,0,11.45-3.65,11.45-8.15s-5.12-8.16-11.45-8.16-11.46,3.64-11.46,8.16,5.13,8.15,11.46,8.15h0ZM842.92,937.92c6.15,0,11.14-3.55,11.14-7.93s-4.99-7.94-11.14-7.94-11.14,3.55-11.14,7.94,4.99,7.93,11.14,7.93h0ZM786.35,937.59c5.89,0,10.68-3.4,10.68-7.6s-4.79-7.6-10.68-7.6-10.67,3.4-10.67,7.6,4.79,7.6,10.67,7.6h0ZM729.78,937.13c5.55,0,10.05-3.2,10.05-7.14s-4.5-7.16-10.05-7.16-10.03,3.2-10.03,7.16,4.5,7.14,10.03,7.14h0ZM673.21,936.68c5.19,0,9.41-2.99,9.41-6.69s-4.23-6.71-9.41-6.71-9.41,3-9.41,6.71,4.21,6.69,9.41,6.69h0ZM616.62,936.02c4.68,0,8.47-2.7,8.47-6.03s-3.79-6.04-8.47-6.04-8.47,2.7-8.47,6.04,3.79,6.03,8.47,6.03h0ZM560.04,935.35c4.16,0,7.54-2.4,7.54-5.36s-3.38-5.37-7.54-5.37-7.52,2.41-7.52,5.37,3.37,5.36,7.52,5.36h0ZM503.47,934.57c3.55,0,6.43-2.04,6.43-4.58s-2.88-4.58-6.43-4.58-6.43,2.05-6.43,4.58,2.88,4.58,6.43,4.58h0ZM446.89,933.79c2.94,0,5.34-1.7,5.34-3.8s-2.4-3.8-5.34-3.8-5.34,1.7-5.34,3.8,2.39,3.8,5.34,3.8h0ZM390.31,932.89c2.25,0,4.08-1.3,4.08-2.9s-1.83-2.91-4.08-2.91-4.07,1.3-4.07,2.91,1.81,2.9,4.07,2.9h0ZM333.73,932c1.56,0,2.83-.9,2.83-2.01s-1.26-2.02-2.83-2.02-2.81.9-2.81,2.02,1.27,2.01,2.81,2.01h0ZM277.16,931.11c.87,0,1.58-.51,1.58-1.12s-.71-1.12-1.58-1.12-1.56.5-1.56,1.12.71,1.12,1.56,1.12h0ZM220.59,930.2c.17,0,.32-.1.32-.21,0-.13-.15-.23-.32-.23s-.32.11-.32.23c0,.12.15.21.32.21h0ZM1748.15,889.8c.08,0,.16-.04.16-.1s-.08-.12-.16-.12c-.09,0-.16.05-.16.12s.07.1.16.1h0ZM1691.58,890.59c.69,0,1.25-.4,1.25-.89s-.56-.89-1.25-.89-1.27.4-1.27.89.56.89,1.27.89h0ZM1635.01,891.48c1.37,0,2.49-.8,2.49-1.79s-1.12-1.79-2.49-1.79-2.53.8-2.53,1.79,1.12,1.79,2.53,1.79h0ZM1578.42,892.49c2.16,0,3.91-1.26,3.91-2.8s-1.76-2.79-3.91-2.79-3.93,1.25-3.93,2.79,1.75,2.8,3.93,2.8h0ZM1521.84,893.5c2.95,0,5.34-1.71,5.34-3.8s-2.39-3.8-5.34-3.8-5.33,1.7-5.33,3.8,2.38,3.8,5.33,3.8h0ZM1465.27,894.39c3.63,0,6.58-2.1,6.58-4.69s-2.95-4.69-6.58-4.69-6.59,2.1-6.59,4.69,2.94,4.69,6.59,4.69h0ZM1408.7,895.17c4.24,0,7.69-2.45,7.69-5.48s-3.44-5.47-7.69-5.47-7.7,2.45-7.7,5.47,3.44,5.48,7.7,5.48h0ZM1352.11,895.95c4.86,0,8.79-2.81,8.79-6.25s-3.94-6.26-8.79-6.26-8.78,2.8-8.78,6.26,3.92,6.25,8.78,6.25h0ZM1295.53,896.73c5.46,0,9.88-3.15,9.88-7.03s-4.42-7.04-9.88-7.04-9.89,3.15-9.89,7.04,4.43,7.03,9.89,7.03h0ZM1238.96,897.4c5.98,0,10.82-3.45,10.82-7.71s-4.85-7.71-10.82-7.71-10.84,3.44-10.84,7.71,4.86,7.71,10.84,7.71h0ZM1182.39,897.96c6.4,0,11.61-3.7,11.61-8.27s-5.2-8.27-11.61-8.27-11.6,3.7-11.6,8.27,5.19,8.27,11.6,8.27h0ZM1125.8,898.41c6.76,0,12.24-3.9,12.24-8.72s-5.47-8.71-12.24-8.71-12.23,3.9-12.23,8.71,5.48,8.72,12.23,8.72h0ZM1069.23,898.74c7.03,0,12.7-4.05,12.7-9.04s-5.67-9.04-12.7-9.04-12.7,4.05-12.7,9.04,5.69,9.04,12.7,9.04h0ZM1012.65,898.97c7.19,0,13.03-4.15,13.03-9.28s-5.83-9.27-13.03-9.27-13.02,4.15-13.02,9.27,5.84,9.28,13.02,9.28h0ZM956.08,899.08c7.28,0,13.17-4.2,13.17-9.38s-5.88-9.39-13.17-9.39-13.18,4.2-13.18,9.39,5.9,9.38,13.18,9.38h0ZM899.51,898.97c7.19,0,13.01-4.15,13.01-9.28s-5.82-9.27-13.01-9.27-13.02,4.15-13.02,9.27,5.82,9.28,13.02,9.28h0ZM842.92,898.74c7.03,0,12.7-4.05,12.7-9.04s-5.67-9.04-12.7-9.04-12.7,4.05-12.7,9.04,5.7,9.04,12.7,9.04h0ZM786.35,898.41c6.77,0,12.24-3.9,12.24-8.72s-5.47-8.71-12.24-8.71-12.23,3.9-12.23,8.71,5.47,8.72,12.23,8.72h0ZM729.78,897.96c6.4,0,11.61-3.7,11.61-8.27s-5.21-8.27-11.61-8.27-11.61,3.7-11.61,8.27,5.19,8.27,11.61,8.27h0ZM673.21,897.29c5.88,0,10.66-3.39,10.66-7.59s-4.78-7.6-10.66-7.6-10.68,3.4-10.68,7.6,4.78,7.59,10.68,7.59h0ZM616.62,896.73c5.47,0,9.89-3.15,9.89-7.03s-4.43-7.04-9.89-7.04-9.88,3.15-9.88,7.04,4.42,7.03,9.88,7.03h0ZM560.04,895.95c4.86,0,8.79-2.81,8.79-6.25s-3.93-6.26-8.79-6.26-8.78,2.8-8.78,6.26,3.93,6.25,8.78,6.25h0ZM503.47,895.17c4.24,0,7.69-2.45,7.69-5.48s-3.44-5.47-7.69-5.47-7.68,2.45-7.68,5.47,3.44,5.48,7.68,5.48h0ZM446.89,894.28c3.55,0,6.44-2.06,6.44-4.58s-2.89-4.58-6.44-4.58-6.43,2.05-6.43,4.58,2.88,4.58,6.43,4.58h0ZM390.31,893.38c2.87,0,5.19-1.65,5.19-3.68s-2.32-3.69-5.19-3.69-5.17,1.64-5.17,3.69,2.32,3.68,5.17,3.68h0ZM333.73,892.38c2.08,0,3.76-1.21,3.76-2.68s-1.68-2.69-3.76-2.69-3.76,1.21-3.76,2.69,1.69,2.68,3.76,2.68h0ZM277.16,891.48c1.39,0,2.51-.8,2.51-1.79s-1.12-1.79-2.51-1.79-2.51.8-2.51,1.79,1.12,1.79,2.51,1.79h0ZM220.59,890.48c.61,0,1.1-.35,1.1-.78s-.5-.78-1.1-.78-1.1.34-1.1.78.5.78,1.1.78h0ZM1748.15,849.85c.33,0,.63-.2.63-.46,0-.24-.29-.44-.63-.44s-.64.2-.64.44c0,.26.29.46.64.46h0ZM1691.58,850.85c1.12,0,2.03-.65,2.03-1.45s-.91-1.45-2.03-1.45-2.05.65-2.05,1.45.92,1.45,2.05,1.45h0ZM1635.01,851.86c1.9,0,3.44-1.09,3.44-2.46s-1.54-2.45-3.44-2.45-3.46,1.1-3.46,2.45,1.54,2.46,3.46,2.46h0ZM1578.42,852.87c2.69,0,4.87-1.55,4.87-3.47s-2.18-3.46-4.87-3.46-4.88,1.55-4.88,3.46,2.19,3.47,4.88,3.47h0ZM1521.84,853.87c3.47,0,6.27-2,6.27-4.47s-2.8-4.47-6.27-4.47-6.28,2-6.28,4.47,2.81,4.47,6.28,4.47h0ZM1465.27,854.77c4.15,0,7.53-2.4,7.53-5.37s-3.38-5.36-7.53-5.36-7.53,2.41-7.53,5.36,3.37,5.37,7.53,5.37h0ZM1408.7,855.66c4.84,0,8.78-2.8,8.78-6.26s-3.94-6.25-8.78-6.25-8.8,2.8-8.8,6.25,3.93,6.26,8.8,6.26h0ZM1352.11,856.55c5.54,0,10.03-3.2,10.03-7.15s-4.5-7.14-10.03-7.14-10.05,3.2-10.05,7.14,4.5,7.15,10.05,7.15h0ZM1295.53,857.33c6.15,0,11.14-3.54,11.14-7.94s-4.99-7.93-11.14-7.93-11.14,3.56-11.14,7.93,4.99,7.94,11.14,7.94h0ZM1238.96,858.12c6.76,0,12.24-3.9,12.24-8.72s-5.47-8.71-12.24-8.71-12.24,3.9-12.24,8.71,5.47,8.72,12.24,8.72h0ZM1182.39,858.79c7.27,0,13.17-4.2,13.17-9.39s-5.9-9.38-13.17-9.38-13.19,4.2-13.19,9.38,5.9,9.39,13.19,9.39h0ZM1125.8,859.24c7.63,0,13.81-4.4,13.81-9.84s-6.18-9.83-13.81-9.83-13.81,4.4-13.81,9.83,6.19,9.84,13.81,9.84h0ZM1069.23,859.68c7.98,0,14.44-4.6,14.44-10.28s-6.46-10.27-14.44-10.27-14.44,4.6-14.44,10.27,6.47,10.28,14.44,10.28h0ZM1012.65,859.91c8.14,0,14.75-4.71,14.75-10.51s-6.6-10.5-14.75-10.5-14.74,4.71-14.74,10.5,6.6,10.51,14.74,10.51h0ZM956.08,860.02c8.23,0,14.91-4.75,14.91-10.62s-6.67-10.6-14.91-10.6-14.9,4.75-14.9,10.6,6.67,10.62,14.9,10.62h0ZM899.51,859.91c8.14,0,14.75-4.71,14.75-10.51s-6.61-10.5-14.75-10.5-14.75,4.71-14.75,10.5,6.6,10.51,14.75,10.51h0ZM842.92,859.68c7.98,0,14.44-4.6,14.44-10.28s-6.46-10.27-14.44-10.27-14.44,4.6-14.44,10.27,6.47,10.28,14.44,10.28h0ZM786.35,859.24c7.62,0,13.81-4.4,13.81-9.84s-6.19-9.83-13.81-9.83-13.79,4.4-13.79,9.83,6.18,9.84,13.79,9.84h0ZM729.78,858.68c7.19,0,13.02-4.15,13.02-9.28s-5.83-9.27-13.02-9.27-13.03,4.15-13.03,9.27,5.83,9.28,13.03,9.28h0ZM673.21,858.01c6.67,0,12.07-3.86,12.07-8.61s-5.4-8.6-12.07-8.6-12.09,3.85-12.09,8.6,5.41,8.61,12.09,8.61h0ZM616.62,857.33c6.15,0,11.14-3.54,11.14-7.94s-4.99-7.93-11.14-7.93-11.15,3.56-11.15,7.93,4.99,7.94,11.15,7.94h0ZM560.04,856.44c5.46,0,9.89-3.14,9.89-7.04s-4.43-7.03-9.89-7.03-9.88,3.15-9.88,7.03,4.42,7.04,9.88,7.04h0ZM503.47,855.66c4.86,0,8.79-2.8,8.79-6.26s-3.94-6.25-8.79-6.25-8.78,2.8-8.78,6.25,3.94,6.26,8.78,6.26h0ZM446.89,854.66c4.07,0,7.37-2.35,7.37-5.26s-3.3-5.24-7.37-5.24-7.38,2.34-7.38,5.24,3.31,5.26,7.38,5.26h0ZM390.31,853.76c3.39,0,6.12-1.95,6.12-4.36s-2.73-4.35-6.12-4.35-6.11,1.96-6.11,4.35,2.73,4.36,6.11,4.36h0ZM333.73,852.75c2.62,0,4.72-1.5,4.72-3.35s-2.1-3.34-4.72-3.34-4.7,1.5-4.7,3.34,2.11,3.35,4.7,3.35h0ZM277.16,851.76c1.83,0,3.3-1.05,3.3-2.36s-1.47-2.34-3.3-2.34-3.28,1.05-3.28,2.34,1.47,2.36,3.28,2.36h0ZM220.59,850.75c1.04,0,1.88-.6,1.88-1.35s-.84-1.34-1.88-1.34-1.88.61-1.88,1.34.85,1.35,1.88,1.35h0ZM164,849.74c.27,0,.5-.15.5-.34,0-.18-.23-.33-.5-.33-.24,0-.46.15-.46.33,0,.19.23.34.46.34h0ZM1804.72,809.23c.08,0,.16-.05.16-.12,0-.06-.08-.11-.16-.11-.09,0-.15.05-.15.11,0,.07.06.12.15.12h0ZM1748.15,810c.69,0,1.25-.4,1.25-.89s-.56-.9-1.25-.9-1.27.4-1.27.9.56.89,1.27.89h0ZM1691.58,811.01c1.47,0,2.65-.85,2.65-1.9s-1.19-1.89-2.65-1.89-2.67.85-2.67,1.89,1.19,1.9,2.67,1.9h0ZM1635.01,812.13c2.31,0,4.23-1.35,4.23-3.02s-1.91-3.01-4.23-3.01-4.25,1.35-4.25,3.01,1.89,3.02,4.25,3.02h0ZM1578.42,813.24c3.21,0,5.8-1.85,5.8-4.13s-2.59-4.13-5.8-4.13-5.81,1.85-5.81,4.13,2.6,4.13,5.81,4.13h0ZM1521.84,814.25c3.99,0,7.22-2.3,7.22-5.14s-3.23-5.13-7.22-5.13-7.22,2.3-7.22,5.13,3.23,5.14,7.22,5.14h0ZM1465.27,815.14c4.67,0,8.47-2.7,8.47-6.03s-3.8-6.03-8.47-6.03-8.47,2.71-8.47,6.03,3.79,6.03,8.47,6.03h0ZM1408.7,816.15c5.45,0,9.87-3.16,9.87-7.04s-4.42-7.04-9.87-7.04-9.9,3.16-9.9,7.04,4.43,7.04,9.9,7.04h0ZM1352.11,817.04c6.15,0,11.14-3.54,11.14-7.93s-4.99-7.92-11.14-7.92-11.14,3.54-11.14,7.92,4.99,7.93,11.14,7.93h0ZM1295.53,817.94c6.85,0,12.4-3.95,12.4-8.83s-5.55-8.82-12.4-8.82-12.39,3.96-12.39,8.82,5.55,8.83,12.39,8.83h0ZM1238.96,818.72c7.46,0,13.49-4.3,13.49-9.61s-6.03-9.6-13.49-9.6-13.5,4.3-13.5,9.6,6.04,9.61,13.5,9.61h0ZM1182.39,819.51c8.05,0,14.58-4.65,14.58-10.39s-6.54-10.38-14.58-10.38-14.59,4.65-14.59,10.38,6.54,10.39,14.59,10.39h0ZM1125.8,820.07c8.5,0,15.38-4.9,15.38-10.96s-6.88-10.94-15.38-10.94-15.37,4.9-15.37,10.94,6.88,10.96,15.37,10.96h0ZM1069.23,820.51c8.84,0,16-5.1,16-11.4s-7.16-11.39-16-11.39-15.99,5.1-15.99,11.39,7.16,11.4,15.99,11.4h0ZM1012.65,820.74c9.02,0,16.32-5.2,16.32-11.63s-7.3-11.61-16.32-11.61-16.31,5.2-16.31,11.61,7.3,11.63,16.31,11.63h0ZM956.08,820.84c9.09,0,16.47-5.25,16.47-11.73s-7.38-11.72-16.47-11.72-16.47,5.25-16.47,11.72,7.38,11.73,16.47,11.73h0ZM899.51,820.74c9.01,0,16.31-5.2,16.31-11.63s-7.3-11.61-16.31-11.61-16.32,5.2-16.32,11.61,7.31,11.63,16.32,11.63h0ZM842.92,820.4c8.77,0,15.85-5.06,15.85-11.29s-7.08-11.28-15.85-11.28-15.84,5.04-15.84,11.28,7.1,11.29,15.84,11.29h0ZM786.35,819.95c8.41,0,15.23-4.86,15.23-10.84s-6.82-10.83-15.23-10.83-15.22,4.85-15.22,10.83,6.82,10.84,15.22,10.84h0ZM729.78,819.39c7.97,0,14.44-4.6,14.44-10.28s-6.47-10.27-14.44-10.27-14.44,4.6-14.44,10.27,6.46,10.28,14.44,10.28h0ZM673.21,818.72c7.44,0,13.48-4.3,13.48-9.61s-6.04-9.6-13.48-9.6-13.5,4.3-13.5,9.6,6.04,9.61,13.5,9.61h0ZM616.62,817.83c6.76,0,12.23-3.91,12.23-8.72s-5.46-8.71-12.23-8.71-12.24,3.9-12.24,8.71,5.5,8.72,12.24,8.72h0ZM560.04,817.04c6.15,0,11.14-3.54,11.14-7.93s-4.99-7.92-11.14-7.92-11.14,3.54-11.14,7.92,4.99,7.93,11.14,7.93h0ZM503.47,816.04c5.38,0,9.73-3.1,9.73-6.93s-4.35-6.92-9.73-6.92-9.72,3.11-9.72,6.92,4.36,6.93,9.72,6.93h0ZM446.89,815.14c4.67,0,8.47-2.7,8.47-6.03s-3.8-6.03-8.47-6.03-8.47,2.71-8.47,6.03,3.79,6.03,8.47,6.03h0ZM390.31,814.15c3.91,0,7.07-2.25,7.07-5.04s-3.16-5.02-7.07-5.02-7.05,2.25-7.05,5.02,3.15,5.04,7.05,5.04h0ZM333.73,813.14c3.13,0,5.66-1.8,5.66-4.03s-2.52-4.02-5.66-4.02-5.64,1.81-5.64,4.02,2.53,4.03,5.64,4.03h0ZM277.16,812.02c2.26,0,4.08-1.3,4.08-2.91s-1.83-2.9-4.08-2.9-4.08,1.3-4.08,2.9,1.84,2.91,4.08,2.91h0ZM220.59,811.01c1.48,0,2.67-.85,2.67-1.9s-1.19-1.89-2.67-1.89-2.66.85-2.66,1.89,1.18,1.9,2.66,1.9h0ZM164,809.9c.61,0,1.11-.35,1.11-.79s-.5-.78-1.11-.78-1.09.35-1.09.78.51.79,1.09.79h0ZM1804.72,769.05c.17,0,.32-.1.32-.23s-.15-.22-.32-.22-.31.09-.31.22.14.23.31.23h0ZM1748.15,770.16c1.02,0,1.88-.59,1.88-1.34s-.86-1.34-1.88-1.34-1.9.6-1.9,1.34.86,1.34,1.9,1.34h0ZM1691.58,771.28c1.89,0,3.46-1.1,3.46-2.46s-1.56-2.45-3.46-2.45-3.46,1.09-3.46,2.45,1.54,2.46,3.46,2.46h0ZM1635.01,772.39c2.76,0,5.02-1.6,5.02-3.57s-2.26-3.57-5.02-3.57-5.04,1.6-5.04,3.57,2.26,3.57,5.04,3.57h0ZM1578.42,773.4c3.54,0,6.43-2.04,6.43-4.58s-2.88-4.58-6.43-4.58-6.44,2.05-6.44,4.58,2.88,4.58,6.44,4.58h0ZM1521.84,774.52c4.42,0,8.01-2.55,8.01-5.7s-3.59-5.7-8.01-5.7-7.99,2.56-7.99,5.7,3.57,5.7,7.99,5.7h0ZM1465.27,775.53c5.2,0,9.41-3,9.41-6.71s-4.21-6.7-9.41-6.7-9.42,3.01-9.42,6.7,4.21,6.71,9.42,6.71h0ZM1408.7,776.53c5.98,0,10.82-3.45,10.82-7.71s-4.85-7.71-10.82-7.71-10.84,3.45-10.84,7.71,4.85,7.71,10.84,7.71h0ZM1352.11,777.53c6.77,0,12.24-3.9,12.24-8.71s-5.47-8.71-12.24-8.71-12.23,3.9-12.23,8.71,5.48,8.71,12.23,8.71h0ZM1295.53,778.43c7.46,0,13.49-4.3,13.49-9.61s-6.03-9.61-13.49-9.61-13.5,4.31-13.5,9.61,6.06,9.61,13.5,9.61h0ZM1238.96,779.32c8.14,0,14.74-4.69,14.74-10.5s-6.61-10.5-14.74-10.5-14.76,4.7-14.76,10.5,6.62,10.5,14.76,10.5h0ZM1182.39,780.11c8.75,0,15.83-5.06,15.83-11.29s-7.08-11.29-15.83-11.29-15.85,5.06-15.85,11.29,7.08,11.29,15.85,11.29h0ZM1125.8,780.78c9.27,0,16.79-5.35,16.79-11.95s-7.52-11.96-16.79-11.96-16.77,5.35-16.77,11.96,7.5,11.95,16.77,11.95h0ZM1069.23,781.34c9.72,0,17.57-5.59,17.57-12.51s-7.86-12.51-17.57-12.51-17.57,5.6-17.57,12.51,7.87,12.51,17.57,12.51h0ZM1012.65,781.68c9.97,0,18.06-5.75,18.06-12.86s-8.09-12.85-18.06-12.85-18.05,5.75-18.05,12.85,8.09,12.86,18.05,12.86h0ZM956.08,781.78c10.05,0,18.2-5.8,18.2-12.96s-8.15-12.96-18.2-12.96-18.2,5.8-18.2,12.96,8.15,12.96,18.2,12.96h0ZM899.51,781.68c9.97,0,18.05-5.75,18.05-12.86s-8.07-12.85-18.05-12.85-18.05,5.75-18.05,12.85,8.08,12.86,18.05,12.86h0ZM842.92,781.22c9.62,0,17.42-5.55,17.42-12.4s-7.8-12.4-17.42-12.4-17.4,5.55-17.4,12.4,7.79,12.4,17.4,12.4h0ZM786.35,780.67c9.19,0,16.62-5.31,16.62-11.85s-7.43-11.84-16.62-11.84-16.62,5.3-16.62,11.84,7.44,11.85,16.62,11.85h0ZM729.78,780.11c8.75,0,15.84-5.06,15.84-11.29s-7.08-11.29-15.84-11.29-15.85,5.06-15.85,11.29,7.11,11.29,15.85,11.29h0ZM673.21,779.32c8.14,0,14.74-4.69,14.74-10.5s-6.6-10.5-14.74-10.5-14.76,4.7-14.76,10.5,6.6,10.5,14.76,10.5h0ZM616.62,778.43c7.45,0,13.5-4.3,13.5-9.61s-6.04-9.61-13.5-9.61-13.48,4.31-13.48,9.61,6.03,9.61,13.48,9.61h0ZM560.04,777.43c6.67,0,12.07-3.86,12.07-8.61s-5.4-8.6-12.07-8.6-12.08,3.85-12.08,8.6,5.4,8.61,12.08,8.61h0ZM503.47,776.42c5.89,0,10.67-3.4,10.67-7.6s-4.79-7.59-10.67-7.59-10.66,3.4-10.66,7.59,4.77,7.6,10.66,7.6h0ZM446.89,775.42c5.11,0,9.26-2.96,9.26-6.6s-4.15-6.59-9.26-6.59-9.26,2.95-9.26,6.59,4.15,6.6,9.26,6.6h0ZM390.31,774.41c4.35,0,7.84-2.5,7.84-5.59s-3.49-5.59-7.84-5.59-7.83,2.51-7.83,5.59,3.51,5.59,7.83,5.59h0ZM333.73,773.3c3.47,0,6.29-2,6.29-4.48s-2.82-4.47-6.29-4.47-6.27,2.01-6.27,4.47,2.8,4.48,6.27,4.48h0ZM277.16,772.29c2.7,0,4.87-1.55,4.87-3.47s-2.17-3.46-4.87-3.46-4.86,1.55-4.86,3.46,2.17,3.47,4.86,3.47h0ZM220.59,771.17c1.81,0,3.29-1.05,3.29-2.35s-1.48-2.34-3.29-2.34-3.28,1.05-3.28,2.34,1.47,2.35,3.28,2.35h0ZM164,770.05c.97,0,1.74-.54,1.74-1.23s-.76-1.23-1.74-1.23-1.7.55-1.7,1.23.76,1.23,1.7,1.23h0ZM107.44,769.05c.17,0,.32-.1.32-.23s-.15-.22-.32-.22-.32.09-.32.22.15.23.32.23h0ZM1804.72,729.09c.44,0,.79-.26.79-.56s-.35-.56-.79-.56-.79.26-.79.56.35.56.79.56h0ZM1748.15,730.21c1.29,0,2.35-.75,2.35-1.67s-1.05-1.68-2.35-1.68-2.36.76-2.36,1.68,1.06,1.67,2.36,1.67h0ZM1691.58,731.33c2.16,0,3.92-1.25,3.92-2.79s-1.76-2.8-3.92-2.8-3.92,1.25-3.92,2.8,1.74,2.79,3.92,2.79h0ZM1635.01,732.43c3.01,0,5.48-1.75,5.48-3.9s-2.47-3.91-5.48-3.91-5.51,1.75-5.51,3.91,2.47,3.9,5.51,3.9h0ZM1578.42,733.56c3.89,0,7.07-2.25,7.07-5.02s-3.18-5.03-7.07-5.03-7.06,2.25-7.06,5.03,3.14,5.02,7.06,5.02h0ZM1521.84,734.68c4.76,0,8.64-2.76,8.64-6.15s-3.87-6.15-8.64-6.15-8.62,2.75-8.62,6.15,3.86,6.15,8.62,6.15h0ZM1465.27,735.79c5.63,0,10.2-3.25,10.2-7.26s-4.56-7.26-10.2-7.26-10.2,3.25-10.2,7.26,4.58,7.26,10.2,7.26h0ZM1408.7,736.8c6.4,0,11.61-3.69,11.61-8.26s-5.2-8.26-11.61-8.26-11.61,3.69-11.61,8.26,5.19,8.26,11.61,8.26h0ZM1352.11,737.92c7.27,0,13.19-4.2,13.19-9.39s-5.91-9.39-13.19-9.39-13.18,4.2-13.18,9.39,5.91,9.39,13.18,9.39h0ZM1295.53,738.92c8.06,0,14.6-4.65,14.6-10.38s-6.54-10.4-14.6-10.4-14.59,4.66-14.59,10.4,6.54,10.38,14.59,10.38h0ZM1238.96,739.82c8.75,0,15.83-5.06,15.83-11.29s-7.08-11.29-15.83-11.29-15.85,5.06-15.85,11.29,7.1,11.29,15.85,11.29h0ZM1182.39,740.7c9.45,0,17.09-5.44,17.09-12.17s-7.64-12.18-17.09-12.18-17.11,5.46-17.11,12.18,7.66,12.17,17.11,12.17h0ZM1125.8,741.49c10.05,0,18.21-5.8,18.21-12.96s-8.16-12.96-18.21-12.96-18.2,5.81-18.2,12.96,8.17,12.96,18.2,12.96h0ZM1069.23,742.06c10.49,0,18.99-6.05,18.99-13.52s-8.5-13.53-18.99-13.53-18.99,6.06-18.99,13.53,8.5,13.52,18.99,13.52h0ZM1012.65,742.5c10.84,0,19.62-6.25,19.62-13.97s-8.78-13.96-19.62-13.96-19.61,6.24-19.61,13.96,8.78,13.97,19.61,13.97h0ZM956.08,742.62c10.92,0,19.76-6.31,19.76-14.08s-8.85-14.08-19.76-14.08-19.77,6.31-19.77,14.08,8.85,14.08,19.77,14.08h0ZM899.51,742.5c10.83,0,19.6-6.25,19.6-13.97s-8.78-13.96-19.6-13.96-19.61,6.24-19.61,13.96,8.78,13.97,19.61,13.97h0ZM842.92,742.06c10.49,0,18.99-6.05,18.99-13.52s-8.5-13.53-18.99-13.53-18.99,6.06-18.99,13.53,8.51,13.52,18.99,13.52h0ZM786.35,741.38c9.97,0,18.05-5.75,18.05-12.85s-8.08-12.85-18.05-12.85-18.03,5.75-18.03,12.85,8.06,12.85,18.03,12.85h0ZM729.78,740.6c9.35,0,16.94-5.41,16.94-12.07s-7.59-12.07-16.94-12.07-16.95,5.4-16.95,12.07,7.59,12.07,16.95,12.07h0ZM673.21,739.71c8.66,0,15.67-5.01,15.67-11.18s-7.02-11.18-15.67-11.18-15.7,5.01-15.7,11.18,7.02,11.18,15.7,11.18h0ZM616.62,738.82c7.97,0,14.43-4.61,14.43-10.28s-6.46-10.28-14.43-10.28-14.43,4.61-14.43,10.28,6.45,10.28,14.43,10.28h0ZM560.04,737.81c7.19,0,13.03-4.15,13.03-9.27s-5.84-9.28-13.03-9.28-13.01,4.15-13.01,9.28,5.82,9.27,13.01,9.27h0ZM503.47,736.69c6.34,0,11.45-3.65,11.45-8.15s-5.11-8.15-11.45-8.15-11.46,3.65-11.46,8.15,5.14,8.15,11.46,8.15h0ZM446.89,735.69c5.55,0,10.05-3.2,10.05-7.15s-4.5-7.16-10.05-7.16-10.03,3.2-10.03,7.16,4.5,7.15,10.03,7.15h0ZM390.31,734.57c4.68,0,8.49-2.7,8.49-6.03s-3.81-6.04-8.49-6.04-8.46,2.7-8.46,6.04,3.79,6.03,8.46,6.03h0ZM333.73,733.45c3.82,0,6.91-2.2,6.91-4.91s-3.09-4.91-6.91-4.91-6.88,2.19-6.88,4.91,3.08,4.91,6.88,4.91h0ZM277.16,732.34c2.97,0,5.34-1.7,5.34-3.8s-2.37-3.8-5.34-3.8-5.32,1.7-5.32,3.8,2.38,3.8,5.32,3.8h0ZM220.59,731.21c2.08,0,3.76-1.2,3.76-2.68s-1.68-2.68-3.76-2.68-3.78,1.2-3.78,2.68,1.7,2.68,3.78,2.68h0ZM164,730.1c1.23,0,2.21-.7,2.21-1.57s-.98-1.57-2.21-1.57-2.19.7-2.19,1.57.99,1.57,2.19,1.57h0ZM107.44,728.98c.34,0,.62-.2.62-.44s-.28-.45-.62-.45-.64.2-.64.45.29.44.64.44h0ZM1804.72,689.03c.6,0,1.09-.36,1.09-.78s-.5-.79-1.09-.79-1.1.36-1.1.79.48.78,1.1.78h0ZM1748.15,690.15c1.47,0,2.65-.86,2.65-1.9s-1.19-1.9-2.65-1.9-2.67.86-2.67,1.9,1.2,1.9,2.67,1.9h0ZM1691.58,691.37c2.41,0,4.39-1.39,4.39-3.12s-1.97-3.14-4.39-3.14-4.39,1.41-4.39,3.14,1.95,3.12,4.39,3.12h0ZM1635.01,692.49c3.28,0,5.95-1.9,5.95-4.25s-2.67-4.25-5.95-4.25-5.98,1.9-5.98,4.25,2.68,4.25,5.98,4.25h0ZM1578.42,693.6c4.16,0,7.53-2.39,7.53-5.36s-3.37-5.36-7.53-5.36-7.53,2.39-7.53,5.36,3.38,5.36,7.53,5.36h0ZM1521.84,694.73c5.02,0,9.1-2.91,9.1-6.48s-4.08-6.48-9.1-6.48-9.11,2.9-9.11,6.48,4.08,6.48,9.11,6.48h0ZM1465.27,695.84c5.89,0,10.68-3.4,10.68-7.59s-4.79-7.6-10.68-7.6-10.68,3.4-10.68,7.6,4.78,7.59,10.68,7.59h0ZM1408.7,696.95c6.75,0,12.23-3.9,12.23-8.71s-5.48-8.71-12.23-8.71-12.24,3.9-12.24,8.71,5.47,8.71,12.24,8.71h0ZM1352.11,698.08c7.63,0,13.81-4.41,13.81-9.83s-6.18-9.83-13.81-9.83-13.81,4.39-13.81,9.83,6.19,9.83,13.81,9.83h0ZM1295.53,699.19c8.5,0,15.39-4.9,15.39-10.95s-6.88-10.94-15.39-10.94-15.37,4.89-15.37,10.94,6.87,10.95,15.37,10.95h0ZM1238.96,700.2c9.26,0,16.79-5.35,16.79-11.95s-7.53-11.95-16.79-11.95-16.79,5.35-16.79,11.95,7.51,11.95,16.79,11.95h0ZM1182.39,701.2c10.05,0,18.2-5.8,18.2-12.96s-8.15-12.96-18.2-12.96-18.22,5.8-18.22,12.96,8.17,12.96,18.22,12.96h0ZM1125.8,702.1c10.75,0,19.45-6.2,19.45-13.85s-8.7-13.86-19.45-13.86-19.46,6.21-19.46,13.86,8.71,13.85,19.46,13.85h0ZM1069.23,702.76c11.26,0,20.4-6.5,20.4-14.52s-9.14-14.53-20.4-14.53-20.39,6.51-20.39,14.53,9.13,14.52,20.39,14.52h0ZM1012.65,703.32c11.71,0,21.18-6.76,21.18-15.08s-9.48-15.08-21.18-15.08-21.17,6.75-21.17,15.08,9.47,15.08,21.17,15.08h0ZM956.08,703.55c11.86,0,21.5-6.85,21.5-15.31s-9.64-15.31-21.5-15.31-21.49,6.85-21.49,15.31,9.62,15.31,21.49,15.31h0ZM899.51,703.32c11.69,0,21.18-6.76,21.18-15.08s-9.49-15.08-21.18-15.08-21.17,6.75-21.17,15.08,9.47,15.08,21.17,15.08h0ZM842.92,702.76c11.27,0,20.4-6.5,20.4-14.52s-9.13-14.53-20.4-14.53-20.39,6.51-20.39,14.53,9.14,14.52,20.39,14.52h0ZM786.35,701.98c10.66,0,19.3-6.15,19.3-13.73s-8.63-13.74-19.3-13.74-19.29,6.15-19.29,13.74,8.63,13.73,19.29,13.73h0ZM729.78,701.09c9.97,0,18.04-5.75,18.04-12.85s-8.07-12.86-18.04-12.86-18.04,5.76-18.04,12.86,8.07,12.85,18.04,12.85h0ZM673.21,700.08c9.18,0,16.62-5.3,16.62-11.84s-7.44-11.85-16.62-11.85-16.63,5.31-16.63,11.85,7.44,11.84,16.63,11.84h0ZM616.62,699.08c8.4,0,15.22-4.85,15.22-10.83s-6.82-10.84-15.22-10.84-15.21,4.86-15.21,10.84,6.8,10.83,15.21,10.83h0ZM560.04,698.08c7.62,0,13.8-4.41,13.8-9.83s-6.19-9.83-13.8-9.83-13.8,4.39-13.8,9.83,6.18,9.83,13.8,9.83h0ZM503.47,696.84c6.67,0,12.08-3.85,12.08-8.6s-5.4-8.61-12.08-8.61-12.08,3.86-12.08,8.61,5.41,8.6,12.08,8.6h0ZM446.89,695.84c5.9,0,10.66-3.4,10.66-7.59s-4.76-7.6-10.66-7.6-10.66,3.4-10.66,7.6,4.76,7.59,10.66,7.59h0ZM390.31,694.73c5.03,0,9.11-2.91,9.11-6.48s-4.09-6.48-9.11-6.48-9.09,2.9-9.09,6.48,4.07,6.48,9.09,6.48h0ZM333.73,693.49c4.08,0,7.38-2.35,7.38-5.24s-3.3-5.25-7.38-5.25-7.37,2.36-7.37,5.25,3.31,5.24,7.37,5.24h0ZM277.16,692.38c3.2,0,5.82-1.85,5.82-4.13s-2.61-4.13-5.82-4.13-5.8,1.85-5.8,4.13,2.6,4.13,5.8,4.13h0ZM220.59,691.26c2.34,0,4.24-1.35,4.24-3.01s-1.89-3.02-4.24-3.02-4.24,1.36-4.24,3.02,1.91,3.01,4.24,3.01h0ZM164,690.15c1.49,0,2.68-.86,2.68-1.9s-1.19-1.9-2.68-1.9-2.66.86-2.66,1.9,1.19,1.9,2.66,1.9h0ZM107.44,688.91c.5,0,.94-.3.94-.67s-.44-.68-.94-.68c-.53,0-.95.31-.95.68s.42.67.95.67h0ZM1861.31,648.07c.06,0,.15-.05.15-.11s-.08-.11-.15-.11c-.09,0-.16.05-.16.11s.07.11.16.11h0ZM1804.72,648.96c.77,0,1.41-.45,1.41-1.01s-.64-1.01-1.41-1.01-1.42.45-1.42,1.01.64,1.01,1.42,1.01h0ZM1748.15,650.08c1.64,0,2.97-.95,2.97-2.12s-1.33-2.13-2.97-2.13-2.99.95-2.99,2.13,1.33,2.12,2.99,2.12h0ZM1691.58,651.3c2.59,0,4.7-1.5,4.7-3.35s-2.11-3.35-4.7-3.35-4.73,1.5-4.73,3.35,2.13,3.35,4.73,3.35h0ZM1635.01,652.42c3.45,0,6.26-2,6.26-4.47s-2.8-4.47-6.26-4.47-6.29,2-6.29,4.47,2.81,4.47,6.29,4.47h0ZM1578.42,653.54c4.33,0,7.84-2.5,7.84-5.59s-3.51-5.58-7.84-5.58-7.85,2.5-7.85,5.58,3.51,5.59,7.85,5.59h0ZM1521.84,654.77c5.28,0,9.57-3.05,9.57-6.82s-4.28-6.82-9.57-6.82-9.58,3.05-9.58,6.82,4.3,6.82,9.58,6.82h0ZM1465.27,655.88c6.15,0,11.14-3.55,11.14-7.93s-4.99-7.94-11.14-7.94-11.14,3.55-11.14,7.94,4.99,7.93,11.14,7.93h0ZM1408.7,657c7,0,12.7-4.05,12.7-9.05s-5.7-9.05-12.7-9.05-12.71,4.05-12.71,9.05,5.68,9.05,12.71,9.05h0ZM1352.11,658.23c7.98,0,14.44-4.6,14.44-10.28s-6.46-10.28-14.44-10.28-14.44,4.6-14.44,10.28,6.47,10.28,14.44,10.28h0ZM1295.53,659.35c8.84,0,16-5.1,16-11.4s-7.16-11.4-16-11.4-15.99,5.1-15.99,11.4,7.16,11.4,15.99,11.4h0ZM1238.96,660.47c9.7,0,17.56-5.61,17.56-12.51s-7.86-12.52-17.56-12.52-17.57,5.61-17.57,12.52,7.86,12.51,17.57,12.51h0ZM1182.39,661.47c10.49,0,18.99-6.05,18.99-13.52s-8.5-13.52-18.99-13.52-18.99,6.05-18.99,13.52,8.5,13.52,18.99,13.52h0ZM1125.8,662.48c11.26,0,20.4-6.5,20.4-14.52s-9.14-14.53-20.4-14.53-20.39,6.5-20.39,14.53,9.14,14.52,20.39,14.52h0ZM1069.23,663.48c12.05,0,21.82-6.95,21.82-15.53s-9.77-15.53-21.82-15.53-21.82,6.95-21.82,15.53,9.78,15.53,21.82,15.53h0ZM1012.65,664.15c12.56,0,22.75-7.25,22.75-16.19s-10.19-16.2-22.75-16.2-22.75,7.25-22.75,16.2,10.19,16.19,22.75,16.19h0ZM956.08,664.38c12.74,0,23.06-7.35,23.06-16.42s-10.32-16.43-23.06-16.43-23.07,7.36-23.07,16.43,10.34,16.42,23.07,16.42h0ZM899.51,664.15c12.56,0,22.75-7.25,22.75-16.19s-10.19-16.2-22.75-16.2-22.76,7.25-22.76,16.2,10.19,16.19,22.76,16.19h0ZM842.92,663.37c11.97,0,21.66-6.9,21.66-15.42s-9.69-15.42-21.66-15.42-21.64,6.9-21.64,15.42,9.69,15.42,21.64,15.42h0ZM786.35,662.48c11.27,0,20.39-6.5,20.39-14.52s-9.12-14.53-20.39-14.53-20.39,6.5-20.39,14.53,9.13,14.52,20.39,14.52h0ZM729.78,661.47c10.48,0,18.99-6.05,18.99-13.52s-8.5-13.52-18.99-13.52-18.99,6.05-18.99,13.52,8.51,13.52,18.99,13.52h0ZM673.21,660.36c9.6,0,17.41-5.56,17.41-12.41s-7.81-12.4-17.41-12.4-17.41,5.55-17.41,12.4,7.79,12.41,17.41,12.41h0ZM616.62,659.24c8.76,0,15.85-5.06,15.85-11.29s-7.09-11.28-15.85-11.28-15.84,5.04-15.84,11.28,7.1,11.29,15.84,11.29h0ZM560.04,658.12c7.88,0,14.27-4.55,14.27-10.16s-6.39-10.17-14.27-10.17-14.26,4.55-14.26,10.17,6.38,10.16,14.26,10.16h0ZM503.47,657c7.02,0,12.72-4.05,12.72-9.05s-5.7-9.05-12.72-9.05-12.7,4.05-12.7,9.05,5.69,9.05,12.7,9.05h0ZM446.89,655.78c6.07,0,10.98-3.5,10.98-7.82s-4.91-7.82-10.98-7.82-10.98,3.5-10.98,7.82,4.92,7.82,10.98,7.82h0ZM390.31,654.65c5.2,0,9.42-3,9.42-6.7s-4.22-6.71-9.42-6.71-9.41,3.01-9.41,6.71,4.22,6.7,9.41,6.7h0ZM333.73,653.54c4.34,0,7.84-2.5,7.84-5.59s-3.51-5.58-7.84-5.58-7.84,2.5-7.84,5.58,3.52,5.59,7.84,5.59h0ZM277.16,652.31c3.39,0,6.13-1.95,6.13-4.36s-2.74-4.36-6.13-4.36-6.11,1.95-6.11,4.36,2.73,4.36,6.11,4.36h0ZM220.59,651.19c2.5,0,4.56-1.45,4.56-3.23s-2.06-3.24-4.56-3.24-4.55,1.45-4.55,3.24,2.04,3.23,4.55,3.23h0ZM164,649.96c1.58,0,2.83-.9,2.83-2.01s-1.25-2.01-2.83-2.01-2.8.9-2.8,2.01,1.26,2.01,2.8,2.01h0ZM107.44,648.85c.69,0,1.25-.4,1.25-.89s-.56-.9-1.25-.9-1.26.4-1.26.9.55.89,1.26.89h0ZM1861.31,607.77c.06,0,.15-.05.15-.11,0-.07-.08-.11-.15-.11-.09,0-.16.04-.16.11,0,.06.07.11.16.11h0ZM1804.72,608.78c.87,0,1.56-.5,1.56-1.12s-.69-1.12-1.56-1.12-1.58.5-1.58,1.12.71,1.12,1.58,1.12h0ZM1748.15,609.89c1.73,0,3.12-1,3.12-2.23s-1.39-2.24-3.12-2.24-3.14,1.01-3.14,2.24,1.4,2.23,3.14,2.23h0ZM1691.58,611.12c2.68,0,4.86-1.55,4.86-3.46s-2.17-3.47-4.86-3.47-4.87,1.55-4.87,3.47,2.19,3.46,4.87,3.46h0ZM1635.01,612.24c3.53,0,6.41-2.04,6.41-4.58s-2.88-4.58-6.41-4.58-6.45,2.05-6.45,4.58,2.88,4.58,6.45,4.58h0ZM1578.42,613.48c4.49,0,8.16-2.61,8.16-5.81s-3.67-5.81-8.16-5.81-8.16,2.6-8.16,5.81,3.64,5.81,8.16,5.81h0ZM1521.84,614.7c5.46,0,9.88-3.15,9.88-7.04s-4.42-7.04-9.88-7.04-9.89,3.15-9.89,7.04,4.43,7.04,9.89,7.04h0ZM1465.27,615.82c6.32,0,11.45-3.65,11.45-8.16s-5.12-8.16-11.45-8.16-11.46,3.65-11.46,8.16,5.13,8.16,11.46,8.16h0ZM1408.7,616.93c7.19,0,13.01-4.15,13.01-9.27s-5.82-9.28-13.01-9.28-13.04,4.15-13.04,9.28,5.85,9.27,13.04,9.27h0ZM1352.11,618.16c8.15,0,14.76-4.7,14.76-10.5s-6.6-10.51-14.76-10.51-14.74,4.7-14.74,10.51,6.61,10.5,14.74,10.5h0ZM1295.53,619.28c9.01,0,16.32-5.2,16.32-11.62s-7.31-11.63-16.32-11.63-16.3,5.21-16.3,11.63,7.28,11.62,16.3,11.62h0ZM1238.96,620.51c9.97,0,18.03-5.75,18.03-12.84s-8.06-12.85-18.03-12.85-18.05,5.75-18.05,12.85,8.08,12.84,18.05,12.84h0ZM1182.39,621.63c10.82,0,19.6-6.25,19.6-13.96s-8.78-13.97-19.6-13.97-19.61,6.25-19.61,13.97,8.78,13.96,19.61,13.96h0ZM1125.8,622.75c11.7,0,21.17-6.76,21.17-15.08s-9.47-15.08-21.17-15.08-21.16,6.75-21.16,15.08,9.47,15.08,21.16,15.08h0ZM1069.23,623.86c12.57,0,22.75-7.25,22.75-16.2s-10.19-16.2-22.75-16.2-22.75,7.25-22.75,16.2,10.19,16.2,22.75,16.2h0ZM1012.65,624.76c13.25,0,24.01-7.65,24.01-17.09s-10.76-17.1-24.01-17.1-24,7.66-24,17.1,10.75,17.09,24,17.09h0ZM956.08,625.2c13.6,0,24.62-7.85,24.62-17.53s-11.02-17.55-24.62-17.55-24.63,7.86-24.63,17.55,11.02,17.53,24.63,17.53h0ZM899.51,624.76c13.25,0,23.99-7.65,23.99-17.09s-10.73-17.1-23.99-17.1-24,7.66-24,17.1,10.74,17.09,24,17.09h0ZM842.92,623.75c12.48,0,22.6-7.2,22.6-16.08s-10.12-16.09-22.6-16.09-22.59,7.21-22.59,16.09,10.13,16.08,22.59,16.08h0ZM786.35,622.63c11.61,0,21.03-6.7,21.03-14.97s-9.42-14.97-21.03-14.97-21.01,6.7-21.01,14.97,9.41,14.97,21.01,14.97h0ZM729.78,621.52c10.74,0,19.46-6.21,19.46-13.85s-8.72-13.86-19.46-13.86-19.45,6.2-19.45,13.86,8.71,13.85,19.45,13.85h0ZM673.21,620.4c9.87,0,17.87-5.7,17.87-12.73s-8.01-12.74-17.87-12.74-17.88,5.71-17.88,12.74,7.99,12.73,17.88,12.73h0ZM616.62,619.17c8.92,0,16.15-5.15,16.15-11.51s-7.23-11.51-16.15-11.51-16.17,5.15-16.17,11.51,7.23,11.51,16.17,11.51h0ZM560.04,618.05c8.07,0,14.59-4.64,14.59-10.39s-6.52-10.39-14.59-10.39-14.58,4.65-14.58,10.39,6.54,10.39,14.58,10.39h0ZM503.47,616.82c7.11,0,12.88-4.1,12.88-9.16s-5.76-9.16-12.88-9.16-12.86,4.1-12.86,9.16,5.76,9.16,12.86,9.16h0ZM446.89,615.71c6.23,0,11.29-3.61,11.29-8.04s-5.06-8.05-11.29-8.05-11.3,3.6-11.3,8.05,5.07,8.04,11.3,8.04h0ZM390.31,614.59c5.39,0,9.74-3.1,9.74-6.92s-4.35-6.93-9.74-6.93-9.71,3.1-9.71,6.93,4.35,6.92,9.71,6.92h0ZM333.73,613.36c4.43,0,8.01-2.55,8.01-5.7s-3.57-5.7-8.01-5.7-7.99,2.55-7.99,5.7,3.57,5.7,7.99,5.7h0ZM277.16,612.24c3.56,0,6.43-2.04,6.43-4.58s-2.87-4.58-6.43-4.58-6.42,2.05-6.42,4.58,2.87,4.58,6.42,4.58h0ZM220.59,611.01c2.6,0,4.71-1.5,4.71-3.35s-2.11-3.36-4.71-3.36-4.72,1.51-4.72,3.36,2.11,3.35,4.72,3.35h0ZM164,609.78c1.67,0,2.99-.95,2.99-2.12s-1.32-2.13-2.99-2.13-2.96.95-2.96,2.13,1.32,2.12,2.96,2.12h0ZM107.44,608.67c.77,0,1.41-.45,1.41-1s-.64-1.01-1.41-1.01-1.42.45-1.42,1.01.64,1,1.42,1h0ZM50.87,607.77c.08,0,.16-.05.16-.11,0-.07-.08-.11-.16-.11-.09,0-.16.04-.16.11,0,.06.07.11.16.11h0ZM1861.31,567.49c.06,0,.15-.05.15-.11s-.08-.11-.15-.11c-.09,0-.16.05-.16.11s.07.11.16.11h0ZM1804.72,568.49c.87,0,1.56-.5,1.56-1.12s-.69-1.12-1.56-1.12-1.58.5-1.58,1.12.71,1.12,1.58,1.12h0ZM1748.15,569.72c1.82,0,3.28-1.05,3.28-2.34s-1.47-2.35-3.28-2.35-3.3,1.06-3.3,2.35,1.47,2.34,3.3,2.34h0ZM1691.58,570.83c2.68,0,4.86-1.55,4.86-3.46s-2.17-3.47-4.86-3.47-4.87,1.56-4.87,3.47,2.19,3.46,4.87,3.46h0ZM1635.01,572.06c3.63,0,6.57-2.1,6.57-4.69s-2.95-4.69-6.57-4.69-6.61,2.1-6.61,4.69,2.95,4.69,6.61,4.69h0ZM1578.42,573.18c4.49,0,8.16-2.61,8.16-5.81s-3.67-5.81-8.16-5.81-8.16,2.6-8.16,5.81,3.64,5.81,8.16,5.81h0ZM1521.84,574.41c5.46,0,9.88-3.15,9.88-7.04s-4.42-7.04-9.88-7.04-9.89,3.15-9.89,7.04,4.43,7.04,9.89,7.04h0ZM1465.27,575.52c6.32,0,11.45-3.65,11.45-8.15s-5.12-8.16-11.45-8.16-11.46,3.65-11.46,8.16,5.13,8.15,11.46,8.15h0ZM1408.7,576.76c7.27,0,13.17-4.2,13.17-9.38s-5.9-9.39-13.17-9.39-13.2,4.21-13.2,9.39,5.91,9.38,13.2,9.38h0ZM1352.11,577.98c8.25,0,14.92-4.75,14.92-10.61s-6.67-10.62-14.92-10.62-14.9,4.75-14.9,10.62,6.67,10.61,14.9,10.61h0ZM1295.53,579.1c9.1,0,16.48-5.25,16.48-11.73s-7.37-11.74-16.48-11.74-16.46,5.25-16.46,11.74,7.38,11.73,16.46,11.73h0ZM1238.96,580.33c10.04,0,18.2-5.8,18.2-12.96s-8.16-12.96-18.2-12.96-18.2,5.8-18.2,12.96,8.15,12.96,18.2,12.96h0ZM1182.39,581.45c10.92,0,19.76-6.31,19.76-14.08s-8.85-14.08-19.76-14.08-19.78,6.3-19.78,14.08,8.85,14.08,19.78,14.08h0ZM1125.8,582.68c11.87,0,21.49-6.85,21.49-15.3s-9.62-15.31-21.49-15.31-21.5,6.85-21.5,15.31,9.63,15.3,21.5,15.3h0ZM1069.23,583.8c12.73,0,23.07-7.36,23.07-16.42s-10.34-16.42-23.07-16.42-23.05,7.35-23.05,16.42,10.32,16.42,23.05,16.42h0ZM1012.65,584.91c13.61,0,24.63-7.85,24.63-17.54s-11.02-17.54-24.63-17.54-24.63,7.86-24.63,17.54,11.02,17.54,24.63,17.54h0ZM956.08,585.7c14.21,0,25.73-8.2,25.73-18.32s-11.52-18.32-25.73-18.32-25.74,8.2-25.74,18.32,11.53,18.32,25.74,18.32h0ZM899.51,584.8c13.51,0,24.47-7.81,24.47-17.43s-10.96-17.43-24.47-17.43-24.47,7.81-24.47,17.43,10.95,17.43,24.47,17.43h0ZM842.92,583.69c12.66,0,22.91-7.31,22.91-16.31s-10.25-16.31-22.91-16.31-22.9,7.3-22.9,16.31,10.25,16.31,22.9,16.31h0ZM786.35,582.57c11.78,0,21.35-6.8,21.35-15.19s-9.57-15.19-21.35-15.19-21.33,6.8-21.33,15.19,9.55,15.19,21.33,15.19h0ZM729.78,581.34c10.82,0,19.61-6.25,19.61-13.97s-8.79-13.97-19.61-13.97-19.61,6.25-19.61,13.97,8.78,13.97,19.61,13.97h0ZM673.21,580.22c9.96,0,18.03-5.75,18.03-12.85s-8.07-12.85-18.03-12.85-18.04,5.75-18.04,12.85,8.09,12.85,18.04,12.85h0ZM616.62,578.99c9.02,0,16.31-5.2,16.31-11.61s-7.3-11.63-16.31-11.63-16.31,5.21-16.31,11.63,7.31,11.61,16.31,11.61h0ZM560.04,577.87c8.14,0,14.75-4.7,14.75-10.5s-6.62-10.5-14.75-10.5-14.73,4.7-14.73,10.5,6.59,10.5,14.73,10.5h0ZM503.47,576.64c7.19,0,13.02-4.15,13.02-9.27s-5.83-9.27-13.02-9.27-13.02,4.15-13.02,9.27,5.83,9.27,13.02,9.27h0ZM446.89,575.42c6.23,0,11.29-3.6,11.29-8.05s-5.06-8.05-11.29-8.05-11.3,3.6-11.3,8.05,5.07,8.05,11.3,8.05h0ZM390.31,574.3c5.39,0,9.74-3.1,9.74-6.93s-4.35-6.93-9.74-6.93-9.71,3.1-9.71,6.93,4.35,6.93,9.71,6.93h0ZM333.73,573.07c4.43,0,8.01-2.55,8.01-5.7s-3.57-5.7-8.01-5.7-7.99,2.55-7.99,5.7,3.57,5.7,7.99,5.7h0ZM277.16,571.95c3.56,0,6.43-2.05,6.43-4.58s-2.87-4.58-6.43-4.58-6.42,2.05-6.42,4.58,2.87,4.58,6.42,4.58h0ZM220.59,570.72c2.6,0,4.71-1.5,4.71-3.35s-2.11-3.35-4.71-3.35-4.72,1.51-4.72,3.35,2.11,3.35,4.72,3.35h0ZM164,569.61c1.74,0,3.15-1,3.15-2.23s-1.42-2.24-3.15-2.24-3.12,1-3.12,2.24,1.42,2.23,3.12,2.23h0ZM107.44,568.38c.77,0,1.41-.46,1.41-1.01s-.64-1.01-1.41-1.01-1.42.45-1.42,1.01.64,1.01,1.42,1.01h0ZM50.87,567.49c.08,0,.16-.05.16-.11s-.08-.11-.16-.11c-.09,0-.16.05-.16.11s.07.11.16.11h0ZM1861.31,527.19c.06,0,.15-.05.15-.11s-.08-.11-.15-.11c-.09,0-.16.05-.16.11s.07.11.16.11h0ZM1804.72,528.2c.87,0,1.56-.5,1.56-1.12s-.69-1.12-1.56-1.12-1.58.5-1.58,1.12.71,1.12,1.58,1.12h0ZM1748.15,529.31c1.73,0,3.12-1,3.12-2.23s-1.39-2.24-3.12-2.24-3.14,1-3.14,2.24,1.4,2.23,3.14,2.23h0ZM1691.58,530.54c2.68,0,4.86-1.55,4.86-3.46s-2.17-3.47-4.86-3.47-4.87,1.55-4.87,3.47,2.19,3.46,4.87,3.46h0ZM1635.01,531.66c3.53,0,6.41-2.05,6.41-4.58s-2.88-4.58-6.41-4.58-6.45,2.04-6.45,4.58,2.88,4.58,6.45,4.58h0ZM1578.42,532.89c4.49,0,8.16-2.61,8.16-5.81s-3.67-5.81-8.16-5.81-8.16,2.6-8.16,5.81,3.64,5.81,8.16,5.81h0ZM1521.84,534.01c5.36,0,9.73-3.1,9.73-6.92s-4.36-6.93-9.73-6.93-9.73,3.1-9.73,6.93,4.35,6.92,9.73,6.92h0ZM1465.27,535.24c6.32,0,11.45-3.65,11.45-8.15s-5.12-8.16-11.45-8.16-11.46,3.65-11.46,8.16,5.13,8.15,11.46,8.15h0ZM1408.7,536.35c7.19,0,13.01-4.15,13.01-9.27s-5.82-9.28-13.01-9.28-13.04,4.15-13.04,9.28,5.85,9.27,13.04,9.27h0ZM1352.11,537.58c8.15,0,14.76-4.7,14.76-10.49s-6.6-10.51-14.76-10.51-14.74,4.7-14.74,10.51,6.61,10.49,14.74,10.49h0ZM1295.53,538.7c9.01,0,16.32-5.2,16.32-11.62s-7.31-11.62-16.32-11.62-16.3,5.2-16.3,11.62,7.28,11.62,16.3,11.62h0ZM1238.96,539.93c9.97,0,18.03-5.76,18.03-12.85s-8.06-12.85-18.03-12.85-18.05,5.75-18.05,12.85,8.08,12.85,18.05,12.85h0ZM1182.39,541.05c10.82,0,19.6-6.26,19.6-13.97s-8.78-13.97-19.6-13.97-19.61,6.25-19.61,13.97,8.78,13.97,19.61,13.97h0ZM1125.8,542.16c11.7,0,21.17-6.75,21.17-15.08s-9.47-15.08-21.17-15.08-21.16,6.75-21.16,15.08,9.47,15.08,21.16,15.08h0ZM1069.23,543.28c12.57,0,22.75-7.26,22.75-16.2s-10.19-16.2-22.75-16.2-22.75,7.24-22.75,16.2,10.19,16.2,22.75,16.2h0ZM1012.65,544.18c13.25,0,24.01-7.65,24.01-17.09s-10.76-17.09-24.01-17.09-24,7.65-24,17.09,10.75,17.09,24,17.09h0ZM956.08,544.51c13.5,0,24.47-7.8,24.47-17.43s-10.97-17.44-24.47-17.44-24.47,7.81-24.47,17.44,10.96,17.43,24.47,17.43h0ZM899.51,544.06c13.17,0,23.85-7.6,23.85-16.98s-10.68-16.99-23.85-16.99-23.85,7.6-23.85,16.99,10.67,16.98,23.85,16.98h0ZM842.92,543.17c12.48,0,22.6-7.2,22.6-16.08s-10.12-16.09-22.6-16.09-22.59,7.21-22.59,16.09,10.13,16.08,22.59,16.08h0ZM786.35,542.05c11.61,0,21.03-6.7,21.03-14.97s-9.42-14.97-21.03-14.97-21.01,6.7-21.01,14.97,9.41,14.97,21.01,14.97h0ZM729.78,540.94c10.74,0,19.46-6.2,19.46-13.85s-8.72-13.86-19.46-13.86-19.45,6.2-19.45,13.86,8.71,13.85,19.45,13.85h0ZM673.21,539.82c9.87,0,17.87-5.7,17.87-12.73s-8.01-12.74-17.87-12.74-17.88,5.7-17.88,12.74,7.99,12.73,17.88,12.73h0ZM616.62,538.59c8.92,0,16.15-5.15,16.15-11.51s-7.23-11.51-16.15-11.51-16.17,5.15-16.17,11.51,7.23,11.51,16.17,11.51h0ZM560.04,537.47c8.07,0,14.59-4.65,14.59-10.39s-6.52-10.39-14.59-10.39-14.58,4.65-14.58,10.39,6.54,10.39,14.58,10.39h0ZM503.47,536.24c7.11,0,12.88-4.1,12.88-9.16s-5.76-9.17-12.88-9.17-12.86,4.1-12.86,9.17,5.76,9.16,12.86,9.16h0ZM446.89,535.13c6.23,0,11.29-3.6,11.29-8.04s-5.06-8.05-11.29-8.05-11.3,3.6-11.3,8.05,5.07,8.04,11.3,8.04h0ZM390.31,534.01c5.39,0,9.74-3.1,9.74-6.92s-4.35-6.93-9.74-6.93-9.71,3.1-9.71,6.93,4.35,6.92,9.71,6.92h0ZM333.73,532.78c4.43,0,8.01-2.55,8.01-5.7s-3.57-5.7-8.01-5.7-7.99,2.55-7.99,5.7,3.57,5.7,7.99,5.7h0ZM277.16,531.55c3.47,0,6.29-2,6.29-4.47s-2.81-4.47-6.29-4.47-6.27,2-6.27,4.47,2.8,4.47,6.27,4.47h0ZM220.59,530.43c2.6,0,4.71-1.5,4.71-3.35s-2.11-3.36-4.71-3.36-4.72,1.5-4.72,3.36,2.11,3.35,4.72,3.35h0ZM164,529.2c1.67,0,2.99-.95,2.99-2.12s-1.32-2.13-2.99-2.13-2.96.95-2.96,2.13,1.32,2.12,2.96,2.12h0ZM107.44,528.08c.77,0,1.41-.44,1.41-1s-.64-1.01-1.41-1.01-1.42.45-1.42,1.01.64,1,1.42,1h0ZM50.87,527.19c.08,0,.16-.05.16-.11s-.08-.11-.16-.11c-.09,0-.16.05-.16.11s.07.11.16.11h0ZM1861.31,486.91c.06,0,.15-.06.15-.12s-.08-.11-.15-.11c-.09,0-.16.05-.16.11s.07.12.16.12h0ZM1804.72,487.8c.77,0,1.41-.45,1.41-1.01s-.64-1.01-1.41-1.01-1.42.45-1.42,1.01.64,1.01,1.42,1.01h0ZM1748.15,488.91c1.64,0,2.97-.95,2.97-2.12s-1.33-2.12-2.97-2.12-2.99.95-2.99,2.12,1.33,2.12,2.99,2.12h0ZM1691.58,490.14c2.59,0,4.7-1.5,4.7-3.35s-2.11-3.35-4.7-3.35-4.73,1.5-4.73,3.35,2.13,3.35,4.73,3.35h0ZM1635.01,491.25c3.45,0,6.26-1.99,6.26-4.46s-2.8-4.47-6.26-4.47-6.29,2-6.29,4.47,2.81,4.46,6.29,4.46h0ZM1578.42,492.38c4.33,0,7.84-2.5,7.84-5.59s-3.51-5.59-7.84-5.59-7.85,2.5-7.85,5.59,3.51,5.59,7.85,5.59h0ZM1521.84,493.61c5.28,0,9.57-3.06,9.57-6.82s-4.28-6.82-9.57-6.82-9.58,3.05-9.58,6.82,4.3,6.82,9.58,6.82h0ZM1465.27,494.72c6.15,0,11.14-3.55,11.14-7.93s-4.99-7.94-11.14-7.94-11.14,3.56-11.14,7.94,4.99,7.93,11.14,7.93h0ZM1408.7,495.84c7,0,12.7-4.05,12.7-9.04s-5.7-9.06-12.7-9.06-12.71,4.06-12.71,9.06,5.68,9.04,12.71,9.04h0ZM1352.11,497.07c7.98,0,14.44-4.6,14.44-10.28s-6.46-10.28-14.44-10.28-14.44,4.6-14.44,10.28,6.47,10.28,14.44,10.28h0ZM1295.53,498.08c8.74,0,15.85-5.06,15.85-11.29s-7.11-11.28-15.85-11.28-15.84,5.05-15.84,11.28,7.08,11.29,15.84,11.29h0ZM1238.96,499.19c9.62,0,17.41-5.55,17.41-12.4s-7.79-12.41-17.41-12.41-17.43,5.56-17.43,12.41,7.81,12.4,17.43,12.4h0ZM1182.39,500.31c10.49,0,18.99-6.06,18.99-13.52s-8.5-13.52-18.99-13.52-18.99,6.05-18.99,13.52,8.5,13.52,18.99,13.52h0ZM1125.8,501.31c11.26,0,20.4-6.5,20.4-14.52s-9.14-14.53-20.4-14.53-20.39,6.51-20.39,14.53,9.14,14.52,20.39,14.52h0ZM1069.23,502.21c11.97,0,21.65-6.9,21.65-15.42s-9.68-15.42-21.65-15.42-21.66,6.91-21.66,15.42,9.7,15.42,21.66,15.42h0ZM1012.65,502.87c12.49,0,22.6-7.2,22.6-16.08s-10.1-16.09-22.6-16.09-22.58,7.2-22.58,16.09,10.1,16.08,22.58,16.08h0ZM956.08,503.11c12.65,0,22.91-7.3,22.91-16.31s-10.26-16.31-22.91-16.31-22.91,7.3-22.91,16.31,10.26,16.31,22.91,16.31h0ZM899.51,502.87c12.48,0,22.59-7.2,22.59-16.08s-10.11-16.09-22.59-16.09-22.6,7.2-22.6,16.09,10.13,16.08,22.6,16.08h0ZM842.92,502.1c11.88,0,21.51-6.85,21.51-15.3s-9.63-15.31-21.51-15.31-21.48,6.85-21.48,15.31,9.62,15.3,21.48,15.3h0ZM786.35,501.2c11.18,0,20.24-6.45,20.24-14.41s-9.06-14.41-20.24-14.41-20.24,6.45-20.24,14.41,9.06,14.41,20.24,14.41h0ZM729.78,500.2c10.39,0,18.82-6,18.82-13.41s-8.43-13.41-18.82-13.41-18.83,6.01-18.83,13.41,8.43,13.41,18.83,13.41h0ZM673.21,499.08c9.52,0,17.26-5.51,17.26-12.29s-7.74-12.29-17.26-12.29-17.26,5.51-17.26,12.29,7.73,12.29,17.26,12.29h0ZM616.62,498.08c8.76,0,15.85-5.06,15.85-11.29s-7.09-11.28-15.85-11.28-15.84,5.05-15.84,11.28,7.1,11.29,15.84,11.29h0ZM560.04,496.95c7.88,0,14.27-4.55,14.27-10.16s-6.39-10.16-14.27-10.16-14.26,4.55-14.26,10.16,6.38,10.16,14.26,10.16h0ZM503.47,495.72c6.93,0,12.55-4,12.55-8.93s-5.63-8.93-12.55-8.93-12.56,4-12.56,8.93,5.62,8.93,12.56,8.93h0ZM446.89,494.61c6.07,0,10.98-3.5,10.98-7.82s-4.91-7.82-10.98-7.82-10.98,3.5-10.98,7.82,4.92,7.82,10.98,7.82h0ZM390.31,493.49c5.2,0,9.42-3,9.42-6.7s-4.22-6.71-9.42-6.71-9.41,3-9.41,6.71,4.22,6.7,9.41,6.7h0ZM333.73,492.27c4.25,0,7.68-2.45,7.68-5.48s-3.43-5.47-7.68-5.47-7.69,2.45-7.69,5.47,3.45,5.48,7.69,5.48h0ZM277.16,491.15c3.39,0,6.13-1.95,6.13-4.36s-2.74-4.36-6.13-4.36-6.11,1.95-6.11,4.36,2.73,4.36,6.11,4.36h0ZM220.59,490.03c2.5,0,4.56-1.45,4.56-3.24s-2.06-3.24-4.56-3.24-4.55,1.45-4.55,3.24,2.04,3.24,4.55,3.24h0ZM164,488.8c1.58,0,2.83-.9,2.83-2.01s-1.25-2.01-2.83-2.01-2.8.91-2.8,2.01,1.26,2.01,2.8,2.01h0ZM107.44,487.69c.69,0,1.25-.4,1.25-.89s-.56-.9-1.25-.9-1.26.4-1.26.9.55.89,1.26.89h0ZM1804.72,447.28c.6,0,1.09-.35,1.09-.78s-.5-.79-1.09-.79-1.1.35-1.1.79.48.78,1.1.78h0ZM1748.15,448.4c1.47,0,2.65-.85,2.65-1.89s-1.19-1.9-2.65-1.9-2.67.85-2.67,1.9,1.2,1.89,2.67,1.89h0ZM1691.58,449.63c2.41,0,4.39-1.41,4.39-3.12s-1.97-3.14-4.39-3.14-4.39,1.41-4.39,3.14,1.95,3.12,4.39,3.12h0ZM1635.01,450.74c3.28,0,5.95-1.9,5.95-4.24s-2.67-4.25-5.95-4.25-5.98,1.9-5.98,4.25,2.68,4.24,5.98,4.24h0ZM1578.42,451.86c4.16,0,7.53-2.4,7.53-5.36s-3.37-5.37-7.53-5.37-7.53,2.41-7.53,5.37,3.38,5.36,7.53,5.36h0ZM1521.84,452.98c5.02,0,9.1-2.91,9.1-6.48s-4.08-6.49-9.1-6.49-9.11,2.91-9.11,6.49,4.08,6.48,9.11,6.48h0ZM1465.27,454.09c5.89,0,10.68-3.4,10.68-7.59s-4.79-7.6-10.68-7.6-10.68,3.4-10.68,7.6,4.78,7.59,10.68,7.59h0ZM1408.7,455.22c6.75,0,12.23-3.9,12.23-8.71s-5.48-8.71-12.23-8.71-12.24,3.9-12.24,8.71,5.47,8.71,12.24,8.71h0ZM1352.11,456.33c7.63,0,13.81-4.4,13.81-9.82s-6.18-9.84-13.81-9.84-13.81,4.4-13.81,9.84,6.19,9.82,13.81,9.82h0ZM1295.53,457.33c8.41,0,15.23-4.85,15.23-10.83s-6.82-10.84-15.23-10.84-15.2,4.86-15.2,10.84,6.8,10.83,15.2,10.83h0ZM1238.96,458.34c9.18,0,16.62-5.3,16.62-11.84s-7.44-11.85-16.62-11.85-16.63,5.3-16.63,11.85,7.44,11.84,16.63,11.84h0ZM1182.39,459.35c9.97,0,18.04-5.76,18.04-12.84s-8.07-12.86-18.04-12.86-18.05,5.76-18.05,12.86,8.09,12.84,18.05,12.84h0ZM1125.8,460.24c10.66,0,19.31-6.15,19.31-13.74s-8.65-13.75-19.31-13.75-19.3,6.16-19.3,13.75,8.65,13.74,19.3,13.74h0ZM1069.23,461.02c11.26,0,20.4-6.5,20.4-14.52s-9.14-14.53-20.4-14.53-20.39,6.5-20.39,14.53,9.13,14.52,20.39,14.52h0ZM1012.65,461.47c11.61,0,21.02-6.7,21.02-14.97s-9.41-14.98-21.02-14.98-21.01,6.7-21.01,14.98,9.41,14.97,21.01,14.97h0ZM956.08,461.7c11.79,0,21.34-6.8,21.34-15.19s-9.55-15.19-21.34-15.19-21.33,6.79-21.33,15.19,9.55,15.19,21.33,15.19h0ZM899.51,461.47c11.61,0,21.02-6.7,21.02-14.97s-9.41-14.98-21.02-14.98-21.02,6.7-21.02,14.98,9.41,14.97,21.02,14.97h0ZM842.92,460.91c11.18,0,20.24-6.44,20.24-14.4s-9.06-14.42-20.24-14.42-20.23,6.45-20.23,14.42,9.05,14.4,20.23,14.4h0ZM786.35,460.13c10.57,0,19.15-6.1,19.15-13.62s-8.58-13.64-19.15-13.64-19.15,6.1-19.15,13.64,8.58,13.62,19.15,13.62h0ZM729.78,459.35c9.97,0,18.04-5.76,18.04-12.84s-8.07-12.86-18.04-12.86-18.04,5.76-18.04,12.86,8.07,12.84,18.04,12.84h0ZM673.21,458.34c9.18,0,16.62-5.3,16.62-11.84s-7.44-11.85-16.62-11.85-16.63,5.3-16.63,11.85,7.44,11.84,16.63,11.84h0ZM616.62,457.33c8.4,0,15.22-4.85,15.22-10.83s-6.82-10.84-15.22-10.84-15.21,4.86-15.21,10.84,6.8,10.83,15.21,10.83h0ZM560.04,456.21c7.55,0,13.66-4.34,13.66-9.71s-6.11-9.72-13.66-9.72-13.64,4.34-13.64,9.72,6.12,9.71,13.64,9.71h0ZM503.47,455.1c6.67,0,12.08-3.85,12.08-8.6s-5.4-8.61-12.08-8.61-12.08,3.86-12.08,8.61,5.41,8.6,12.08,8.6h0ZM446.89,453.98c5.81,0,10.52-3.36,10.52-7.48s-4.71-7.49-10.52-7.49-10.5,3.35-10.5,7.49,4.7,7.48,10.5,7.48h0ZM390.31,452.87c4.95,0,8.95-2.85,8.95-6.36s-4-6.38-8.95-6.38-8.93,2.85-8.93,6.38,3.99,6.36,8.93,6.36h0ZM333.73,451.75c4.08,0,7.38-2.35,7.38-5.25s-3.3-5.25-7.38-5.25-7.37,2.35-7.37,5.25,3.31,5.25,7.37,5.25h0ZM277.16,450.63c3.2,0,5.82-1.85,5.82-4.12s-2.61-4.13-5.82-4.13-5.8,1.84-5.8,4.13,2.6,4.12,5.8,4.12h0ZM220.59,449.51c2.34,0,4.24-1.35,4.24-3.01s-1.89-3.02-4.24-3.02-4.24,1.35-4.24,3.02,1.91,3.01,4.24,3.01h0ZM164,448.29c1.4,0,2.52-.8,2.52-1.79s-1.12-1.8-2.52-1.8-2.49.8-2.49,1.8,1.12,1.79,2.49,1.79h0ZM107.44,447.17c.5,0,.94-.3.94-.67s-.44-.68-.94-.68c-.53,0-.95.3-.95.68s.42.67.95.67h0ZM1804.72,406.76c.44,0,.79-.25.79-.56s-.35-.55-.79-.55-.79.25-.79.55.35.56.79.56h0ZM1748.15,407.89c1.29,0,2.35-.75,2.35-1.68s-1.05-1.67-2.35-1.67-2.36.75-2.36,1.67,1.06,1.68,2.36,1.68h0ZM1691.58,409c2.16,0,3.92-1.25,3.92-2.79s-1.76-2.79-3.92-2.79-3.92,1.26-3.92,2.79,1.74,2.79,3.92,2.79h0ZM1635.01,410.12c3.01,0,5.48-1.75,5.48-3.92s-2.47-3.9-5.48-3.9-5.51,1.75-5.51,3.9,2.47,3.92,5.51,3.92h0ZM1578.42,411.24c3.89,0,7.07-2.25,7.07-5.04s-3.18-5.03-7.07-5.03-7.06,2.25-7.06,5.03,3.14,5.04,7.06,5.04h0ZM1521.84,412.24c4.68,0,8.47-2.7,8.47-6.03s-3.79-6.02-8.47-6.02-8.48,2.7-8.48,6.02,3.81,6.03,8.48,6.03h0ZM1465.27,413.36c5.54,0,10.03-3.2,10.03-7.16s-4.5-7.15-10.03-7.15-10.05,3.2-10.05,7.15,4.5,7.16,10.05,7.16h0ZM1408.7,414.47c6.4,0,11.61-3.7,11.61-8.27s-5.2-8.27-11.61-8.27-11.61,3.71-11.61,8.27,5.19,8.27,11.61,8.27h0ZM1352.11,415.48c7.19,0,13.02-4.15,13.02-9.27s-5.83-9.27-13.02-9.27-13,4.15-13,9.27,5.81,9.27,13,9.27h0ZM1295.53,416.49c7.98,0,14.44-4.6,14.44-10.28s-6.46-10.27-14.44-10.27-14.44,4.6-14.44,10.27,6.47,10.28,14.44,10.28h0ZM1238.96,417.49c8.75,0,15.83-5.05,15.83-11.29s-7.08-11.28-15.83-11.28-15.85,5.06-15.85,11.28,7.1,11.29,15.85,11.29h0ZM1182.39,418.27c9.35,0,16.93-5.4,16.93-12.07s-7.58-12.07-16.93-12.07-16.94,5.41-16.94,12.07,7.6,12.07,16.94,12.07h0ZM1125.8,419.05c9.98,0,18.05-5.75,18.05-12.85s-8.07-12.85-18.05-12.85-18.04,5.76-18.04,12.85,8.07,12.85,18.04,12.85h0ZM1069.23,419.73c10.49,0,18.99-6.05,18.99-13.52s-8.5-13.52-18.99-13.52-18.99,6.06-18.99,13.52,8.5,13.52,18.99,13.52h0ZM1012.65,420.06c10.76,0,19.46-6.2,19.46-13.86s-8.7-13.85-19.46-13.85-19.45,6.2-19.45,13.85,8.7,13.86,19.45,13.86h0ZM956.08,420.17c10.82,0,19.6-6.25,19.6-13.97s-8.78-13.96-19.6-13.96-19.62,6.25-19.62,13.96,8.79,13.97,19.62,13.97h0ZM899.51,420.06c10.74,0,19.46-6.2,19.46-13.86s-8.71-13.85-19.46-13.85-19.45,6.2-19.45,13.85,8.71,13.86,19.45,13.86h0ZM842.92,419.61c10.41,0,18.82-6,18.82-13.41s-8.42-13.4-18.82-13.4-18.83,6-18.83,13.4,8.43,13.41,18.83,13.41h0ZM786.35,419.05c9.97,0,18.05-5.75,18.05-12.85s-8.08-12.85-18.05-12.85-18.03,5.76-18.03,12.85,8.06,12.85,18.03,12.85h0ZM729.78,418.27c9.35,0,16.94-5.4,16.94-12.07s-7.59-12.07-16.94-12.07-16.95,5.41-16.95,12.07,7.59,12.07,16.95,12.07h0ZM673.21,417.38c8.66,0,15.67-5,15.67-11.18s-7.02-11.16-15.67-11.16-15.7,5-15.7,11.16,7.02,11.18,15.7,11.18h0ZM616.62,416.37c7.88,0,14.29-4.55,14.29-10.17s-6.41-10.16-14.29-10.16-14.27,4.54-14.27,10.16,6.39,10.17,14.27,10.17h0ZM560.04,415.38c7.11,0,12.87-4.11,12.87-9.17s-5.76-9.16-12.87-9.16-12.86,4.11-12.86,9.16,5.76,9.17,12.86,9.17h0ZM503.47,414.37c6.34,0,11.45-3.66,11.45-8.16s-5.11-8.16-11.45-8.16-11.46,3.65-11.46,8.16,5.14,8.16,11.46,8.16h0ZM446.89,413.25c5.46,0,9.89-3.15,9.89-7.04s-4.43-7.04-9.89-7.04-9.89,3.15-9.89,7.04,4.42,7.04,9.89,7.04h0ZM390.31,412.24c4.68,0,8.49-2.7,8.49-6.03s-3.81-6.02-8.49-6.02-8.46,2.7-8.46,6.02,3.79,6.03,8.46,6.03h0ZM333.73,411.13c3.82,0,6.91-2.21,6.91-4.92s-3.09-4.91-6.91-4.91-6.88,2.21-6.88,4.91,3.08,4.92,6.88,4.92h0ZM277.16,410c2.97,0,5.34-1.7,5.34-3.8s-2.37-3.8-5.34-3.8-5.32,1.71-5.32,3.8,2.38,3.8,5.32,3.8h0ZM220.59,408.9c2.08,0,3.76-1.21,3.76-2.69s-1.68-2.68-3.76-2.68-3.78,1.21-3.78,2.68,1.7,2.69,3.78,2.69h0ZM164,407.77c1.23,0,2.21-.7,2.21-1.57s-.98-1.56-2.21-1.56-2.19.69-2.19,1.56.99,1.57,2.19,1.57h0ZM107.44,406.65c.34,0,.62-.2.62-.45s-.28-.44-.62-.44-.64.19-.64.44.29.45.64.45h0ZM1804.72,366.14c.17,0,.32-.1.32-.22,0-.13-.15-.22-.32-.22s-.31.1-.31.22c0,.12.14.22.31.22h0ZM1748.15,367.15c.95,0,1.72-.56,1.72-1.23s-.78-1.23-1.72-1.23-1.74.55-1.74,1.23.78,1.23,1.74,1.23h0ZM1691.58,368.26c1.81,0,3.28-1.06,3.28-2.34s-1.47-2.35-3.28-2.35-3.3,1.06-3.3,2.35,1.47,2.34,3.3,2.34h0ZM1635.01,369.39c2.67,0,4.85-1.56,4.85-3.47s-2.18-3.46-4.85-3.46-4.89,1.55-4.89,3.46,2.19,3.47,4.89,3.47h0ZM1578.42,370.5c3.54,0,6.43-2.05,6.43-4.58s-2.88-4.59-6.43-4.59-6.44,2.05-6.44,4.59,2.88,4.58,6.44,4.58h0ZM1521.84,371.5c4.32,0,7.84-2.5,7.84-5.58s-3.52-5.59-7.84-5.59-7.84,2.5-7.84,5.59,3.51,5.58,7.84,5.58h0ZM1465.27,372.62c5.2,0,9.41-3,9.41-6.7s-4.21-6.71-9.41-6.71-9.42,3-9.42,6.71,4.21,6.7,9.42,6.7h0ZM1408.7,373.52c5.88,0,10.66-3.4,10.66-7.6s-4.78-7.6-10.66-7.6-10.68,3.4-10.68,7.6,4.78,7.6,10.68,7.6h0ZM1352.11,374.52c6.67,0,12.09-3.85,12.09-8.6s-5.42-8.6-12.09-8.6-12.07,3.85-12.07,8.6,5.4,8.6,12.07,8.6h0ZM1295.53,375.52c7.46,0,13.49-4.29,13.49-9.6s-6.03-9.61-13.49-9.61-13.5,4.3-13.5,9.61,6.06,9.6,13.5,9.6h0ZM1238.96,376.42c8.14,0,14.74-4.71,14.74-10.5s-6.61-10.5-14.74-10.5-14.76,4.71-14.76,10.5,6.62,10.5,14.76,10.5h0ZM1182.39,377.09c8.66,0,15.68-5,15.68-11.17s-7.02-11.18-15.68-11.18-15.69,5.01-15.69,11.18,7.02,11.17,15.69,11.17h0ZM1125.8,377.77c9.19,0,16.64-5.3,16.64-11.85s-7.45-11.85-16.64-11.85-16.63,5.3-16.63,11.85,7.44,11.85,16.63,11.85h0ZM1069.23,378.32c9.62,0,17.41-5.55,17.41-12.4s-7.8-12.4-17.41-12.4-17.4,5.56-17.4,12.4,7.79,12.4,17.4,12.4h0ZM1012.65,378.65c9.88,0,17.9-5.7,17.9-12.73s-8.02-12.74-17.9-12.74-17.89,5.7-17.89,12.74,8.02,12.73,17.89,12.73h0ZM956.08,378.76c9.97,0,18.04-5.75,18.04-12.84s-8.07-12.85-18.04-12.85-18.05,5.75-18.05,12.85,8.09,12.84,18.05,12.84h0ZM899.51,378.65c9.87,0,17.88-5.7,17.88-12.73s-8.01-12.74-17.88-12.74-17.88,5.7-17.88,12.74,7.99,12.73,17.88,12.73h0ZM842.92,378.21c9.54,0,17.27-5.51,17.27-12.29s-7.72-12.29-17.27-12.29-17.25,5.5-17.25,12.29,7.72,12.29,17.25,12.29h0ZM786.35,377.77c9.19,0,16.62-5.3,16.62-11.85s-7.43-11.85-16.62-11.85-16.62,5.3-16.62,11.85,7.44,11.85,16.62,11.85h0ZM729.78,377.09c8.66,0,15.69-5,15.69-11.17s-7.03-11.18-15.69-11.18-15.69,5.01-15.69,11.18,7.02,11.17,15.69,11.17h0ZM673.21,376.31c8.06,0,14.58-4.66,14.58-10.39s-6.52-10.39-14.58-10.39-14.6,4.65-14.6,10.39,6.54,10.39,14.6,10.39h0ZM616.62,375.41c7.36,0,13.34-4.25,13.34-9.49s-5.98-9.5-13.34-9.5-13.34,4.25-13.34,9.5,5.98,9.49,13.34,9.49h0ZM560.04,374.41c6.58,0,11.93-3.8,11.93-8.49s-5.34-8.49-11.93-8.49-11.92,3.8-11.92,8.49,5.34,8.49,11.92,8.49h0ZM503.47,373.52c5.89,0,10.67-3.4,10.67-7.6s-4.79-7.6-10.67-7.6-10.66,3.4-10.66,7.6,4.77,7.6,10.66,7.6h0ZM446.89,372.51c5.11,0,9.26-2.95,9.26-6.59s-4.15-6.6-9.26-6.6-9.26,2.96-9.26,6.6,4.15,6.59,9.26,6.59h0ZM390.31,371.39c4.25,0,7.7-2.44,7.7-5.47s-3.44-5.48-7.7-5.48-7.69,2.45-7.69,5.48,3.46,5.47,7.69,5.47h0ZM333.73,370.38c3.47,0,6.29-2,6.29-4.46s-2.82-4.47-6.29-4.47-6.27,2-6.27,4.47,2.8,4.46,6.27,4.46h0ZM277.16,369.27c2.6,0,4.71-1.5,4.71-3.35s-2.11-3.35-4.71-3.35-4.71,1.49-4.71,3.35,2.12,3.35,4.71,3.35h0ZM220.59,368.15c1.73,0,3.14-1,3.14-2.23s-1.4-2.24-3.14-2.24-3.14,1-3.14,2.24,1.4,2.23,3.14,2.23h0ZM164,367.15c.97,0,1.74-.56,1.74-1.23s-.76-1.23-1.74-1.23-1.7.55-1.7,1.23.76,1.23,1.7,1.23h0ZM107.44,366.14c.17,0,.32-.1.32-.22,0-.13-.15-.22-.32-.22s-.32.1-.32.22c0,.12.15.22.32.22h0ZM1804.72,325.74c.08,0,.16-.06.16-.11,0-.07-.08-.12-.16-.12-.09,0-.15.05-.15.12,0,.06.06.11.15.11h0ZM1748.15,326.52c.69,0,1.25-.4,1.25-.89s-.56-.89-1.25-.89-1.27.4-1.27.89.56.89,1.27.89h0ZM1691.58,327.53c1.47,0,2.65-.85,2.65-1.9s-1.19-1.9-2.65-1.9-2.67.85-2.67,1.9,1.19,1.9,2.67,1.9h0ZM1635.01,328.64c2.31,0,4.23-1.35,4.23-3.01s-1.91-3.02-4.23-3.02-4.25,1.36-4.25,3.02,1.89,3.01,4.25,3.01h0ZM1578.42,329.64c3.12,0,5.64-1.79,5.64-4.02s-2.52-4.02-5.64-4.02-5.65,1.8-5.65,4.02,2.52,4.02,5.65,4.02h0ZM1521.84,330.65c3.9,0,7.06-2.25,7.06-5.03s-3.16-5.03-7.06-5.03-7.06,2.25-7.06,5.03,3.16,5.03,7.06,5.03h0ZM1465.27,331.66c4.67,0,8.47-2.71,8.47-6.03s-3.8-6.04-8.47-6.04-8.47,2.7-8.47,6.04,3.79,6.03,8.47,6.03h0ZM1408.7,332.67c5.45,0,9.87-3.15,9.87-7.04s-4.42-7.04-9.87-7.04-9.9,3.15-9.9,7.04,4.43,7.04,9.9,7.04h0ZM1352.11,333.56c6.15,0,11.14-3.55,11.14-7.93s-4.99-7.94-11.14-7.94-11.14,3.56-11.14,7.94,4.99,7.93,11.14,7.93h0ZM1295.53,334.34c6.77,0,12.24-3.9,12.24-8.71s-5.47-8.71-12.24-8.71-12.23,3.89-12.23,8.71,5.47,8.71,12.23,8.71h0ZM1238.96,335.23c7.46,0,13.49-4.29,13.49-9.6s-6.03-9.61-13.49-9.61-13.5,4.29-13.5,9.61,6.04,9.6,13.5,9.6h0ZM1182.39,335.91c7.97,0,14.44-4.6,14.44-10.28s-6.47-10.28-14.44-10.28-14.44,4.61-14.44,10.28,6.45,10.28,14.44,10.28h0ZM1125.8,336.47c8.4,0,15.22-4.86,15.22-10.84s-6.82-10.84-15.22-10.84-15.21,4.86-15.21,10.84,6.82,10.84,15.21,10.84h0ZM1069.23,336.92c8.75,0,15.85-5.07,15.85-11.29s-7.1-11.28-15.85-11.28-15.84,5.05-15.84,11.28,7.09,11.29,15.84,11.29h0ZM1012.65,337.13c8.93,0,16.16-5.15,16.16-11.51s-7.23-11.51-16.16-11.51-16.15,5.15-16.15,11.51,7.23,11.51,16.15,11.51h0ZM956.08,337.25c9.02,0,16.31-5.2,16.31-11.62s-7.28-11.62-16.31-11.62-16.31,5.21-16.31,11.62,7.29,11.62,16.31,11.62h0ZM899.51,337.13c8.91,0,16.15-5.15,16.15-11.51s-7.24-11.51-16.15-11.51-16.16,5.15-16.16,11.51,7.23,11.51,16.16,11.51h0ZM842.92,336.92c8.77,0,15.85-5.07,15.85-11.29s-7.08-11.28-15.85-11.28-15.84,5.05-15.84,11.28,7.1,11.29,15.84,11.29h0ZM786.35,336.47c8.41,0,15.23-4.86,15.23-10.84s-6.82-10.84-15.23-10.84-15.22,4.86-15.22,10.84,6.82,10.84,15.22,10.84h0ZM729.78,335.79c7.89,0,14.27-4.55,14.27-10.17s-6.38-10.17-14.27-10.17-14.28,4.55-14.28,10.17,6.39,10.17,14.28,10.17h0ZM673.21,335.12c7.35,0,13.34-4.25,13.34-9.49s-5.99-9.5-13.34-9.5-13.33,4.26-13.33,9.5,5.96,9.49,13.33,9.49h0ZM616.62,334.34c6.76,0,12.23-3.9,12.23-8.71s-5.46-8.71-12.23-8.71-12.24,3.89-12.24,8.71,5.5,8.71,12.24,8.71h0ZM560.04,333.45c6.07,0,10.98-3.51,10.98-7.82s-4.91-7.82-10.98-7.82-10.98,3.5-10.98,7.82,4.92,7.82,10.98,7.82h0ZM503.47,332.56c5.38,0,9.73-3.1,9.73-6.93s-4.35-6.93-9.73-6.93-9.72,3.11-9.72,6.93,4.36,6.93,9.72,6.93h0ZM446.89,331.55c4.59,0,8.31-2.65,8.31-5.92s-3.72-5.92-8.31-5.92-8.31,2.64-8.31,5.92,3.72,5.92,8.31,5.92h0ZM390.31,330.55c3.83,0,6.91-2.2,6.91-4.92s-3.08-4.91-6.91-4.91-6.88,2.2-6.88,4.91,3.08,4.92,6.88,4.92h0ZM333.73,329.53c3.04,0,5.5-1.75,5.5-3.91s-2.46-3.91-5.5-3.91-5.48,1.76-5.48,3.91,2.47,3.91,5.48,3.91h0ZM277.16,328.53c2.26,0,4.08-1.29,4.08-2.9s-1.83-2.91-4.08-2.91-4.08,1.3-4.08,2.91,1.84,2.9,4.08,2.9h0ZM220.59,327.41c1.38,0,2.5-.8,2.5-1.79s-1.12-1.79-2.5-1.79-2.51.8-2.51,1.79,1.12,1.79,2.51,1.79h0ZM164,326.41c.61,0,1.11-.35,1.11-.78s-.5-.78-1.11-.78-1.09.34-1.09.78.51.78,1.09.78h0ZM1748.15,285.67c.26,0,.46-.15.46-.33,0-.19-.2-.33-.46-.33s-.48.14-.48.33c0,.18.23.33.48.33h0ZM1691.58,286.68c1.03,0,1.87-.6,1.87-1.34s-.84-1.35-1.87-1.35-1.9.61-1.9,1.35.86,1.34,1.9,1.34h0ZM1635.01,287.69c1.8,0,3.29-1.05,3.29-2.35s-1.5-2.35-3.29-2.35-3.3,1.04-3.3,2.35,1.46,2.35,3.3,2.35h0ZM1578.42,288.8c2.69,0,4.87-1.55,4.87-3.46s-2.18-3.47-4.87-3.47-4.88,1.56-4.88,3.47,2.19,3.46,4.88,3.46h0ZM1521.84,289.69c3.38,0,6.11-1.95,6.11-4.35s-2.73-4.36-6.11-4.36-6.12,1.95-6.12,4.36,2.74,4.35,6.12,4.35h0ZM1465.27,290.7c4.15,0,7.53-2.39,7.53-5.36s-3.38-5.37-7.53-5.37-7.53,2.4-7.53,5.37,3.37,5.36,7.53,5.36h0ZM1408.7,291.59c4.84,0,8.78-2.8,8.78-6.25s-3.94-6.26-8.78-6.26-8.8,2.8-8.8,6.26,3.93,6.25,8.8,6.25h0ZM1352.11,292.37c5.47,0,9.89-3.15,9.89-7.04s-4.41-7.04-9.89-7.04-9.89,3.15-9.89,7.04,4.43,7.04,9.89,7.04h0ZM1295.53,293.27c6.15,0,11.14-3.56,11.14-7.94s-4.99-7.94-11.14-7.94-11.14,3.56-11.14,7.94,4.99,7.94,11.14,7.94h0ZM1238.96,293.94c6.67,0,12.07-3.85,12.07-8.6s-5.4-8.61-12.07-8.61-12.08,3.86-12.08,8.61,5.41,8.6,12.08,8.6h0ZM1182.39,294.61c7.19,0,13.01-4.15,13.01-9.27s-5.82-9.27-13.01-9.27-13.02,4.15-13.02,9.27,5.83,9.27,13.02,9.27h0ZM1125.8,295.16c7.63,0,13.81-4.4,13.81-9.82s-6.18-9.84-13.81-9.84-13.81,4.4-13.81,9.84,6.19,9.82,13.81,9.82h0ZM1069.23,295.51c7.88,0,14.28-4.56,14.28-10.17s-6.4-10.17-14.28-10.17-14.28,4.55-14.28,10.17,6.39,10.17,14.28,10.17h0ZM1012.65,295.73c8.06,0,14.6-4.65,14.6-10.39s-6.54-10.39-14.6-10.39-14.59,4.65-14.59,10.39,6.54,10.39,14.59,10.39h0ZM956.08,295.84c8.14,0,14.74-4.7,14.74-10.5s-6.6-10.5-14.74-10.5-14.75,4.69-14.75,10.5,6.6,10.5,14.75,10.5h0ZM899.51,295.73c8.05,0,14.58-4.65,14.58-10.39s-6.54-10.39-14.58-10.39-14.6,4.65-14.6,10.39,6.54,10.39,14.6,10.39h0ZM842.92,295.51c7.88,0,14.29-4.56,14.29-10.17s-6.4-10.17-14.29-10.17-14.28,4.55-14.28,10.17,6.39,10.17,14.28,10.17h0ZM786.35,295.05c7.55,0,13.67-4.34,13.67-9.71s-6.12-9.72-13.67-9.72-13.63,4.36-13.63,9.72,6.11,9.71,13.63,9.71h0ZM729.78,294.5c7.1,0,12.86-4.1,12.86-9.16s-5.76-9.16-12.86-9.16-12.86,4.09-12.86,9.16,5.77,9.16,12.86,9.16h0ZM673.21,293.82c6.59,0,11.91-3.8,11.91-8.48s-5.32-8.5-11.91-8.5-11.93,3.8-11.93,8.5,5.34,8.48,11.93,8.48h0ZM616.62,293.16c6.07,0,10.99-3.5,10.99-7.82s-4.92-7.82-10.99-7.82-10.99,3.5-10.99,7.82,4.92,7.82,10.99,7.82h0ZM560.04,292.37c5.46,0,9.89-3.15,9.89-7.04s-4.43-7.04-9.89-7.04-9.88,3.15-9.88,7.04,4.42,7.04,9.88,7.04h0ZM503.47,291.49c4.76,0,8.63-2.76,8.63-6.15s-3.87-6.15-8.63-6.15-8.63,2.76-8.63,6.15,3.87,6.15,8.63,6.15h0ZM446.89,290.59c4.07,0,7.37-2.36,7.37-5.25s-3.3-5.25-7.37-5.25-7.38,2.35-7.38,5.25,3.31,5.25,7.38,5.25h0ZM390.31,289.69c3.39,0,6.12-1.95,6.12-4.35s-2.73-4.36-6.12-4.36-6.11,1.95-6.11,4.36,2.73,4.35,6.11,4.35h0ZM333.73,288.69c2.62,0,4.72-1.51,4.72-3.35s-2.1-3.35-4.72-3.35-4.7,1.5-4.7,3.35,2.11,3.35,4.7,3.35h0ZM277.16,287.69c1.83,0,3.3-1.05,3.3-2.35s-1.47-2.35-3.3-2.35-3.28,1.04-3.28,2.35,1.47,2.35,3.28,2.35h0ZM220.59,286.68c1.04,0,1.88-.6,1.88-1.34s-.84-1.35-1.88-1.35-1.88.61-1.88,1.35.85,1.34,1.88,1.34h0ZM164,285.67c.27,0,.5-.15.5-.33,0-.19-.23-.33-.5-.33-.24,0-.46.14-.46.33,0,.18.23.33.46.33h0ZM1748.15,245.15c.08,0,.16-.05.16-.11,0-.06-.08-.11-.16-.11-.09,0-.16.05-.16.11,0,.06.07.11.16.11h0ZM1691.58,245.83c.6,0,1.09-.35,1.09-.78s-.5-.78-1.09-.78-1.11.34-1.11.78.5.78,1.11.78h0ZM1635.01,246.84c1.37,0,2.49-.81,2.49-1.79s-1.12-1.79-2.49-1.79-2.53.81-2.53,1.79,1.12,1.79,2.53,1.79h0ZM1578.42,247.73c2.08,0,3.77-1.21,3.77-2.68s-1.69-2.69-3.77-2.69-3.77,1.21-3.77,2.69,1.68,2.68,3.77,2.68h0ZM1521.84,248.73c2.86,0,5.18-1.64,5.18-3.68s-2.32-3.68-5.18-3.68-5.19,1.65-5.19,3.68,2.32,3.68,5.19,3.68h0ZM1465.27,249.63c3.55,0,6.42-2.06,6.42-4.59s-2.87-4.58-6.42-4.58-6.44,2.04-6.44,4.58,2.88,4.59,6.44,4.59h0ZM1408.7,250.52c4.24,0,7.69-2.45,7.69-5.48s-3.44-5.48-7.69-5.48-7.7,2.46-7.7,5.48,3.44,5.48,7.7,5.48h0ZM1352.11,251.3c4.86,0,8.79-2.8,8.79-6.25s-3.94-6.26-8.79-6.26-8.78,2.8-8.78,6.26,3.92,6.25,8.78,6.25h0ZM1295.53,251.97c5.38,0,9.73-3.1,9.73-6.92s-4.35-6.93-9.73-6.93-9.72,3.1-9.72,6.93,4.36,6.92,9.72,6.92h0ZM1238.96,252.64c5.88,0,10.67-3.4,10.67-7.6s-4.79-7.6-10.67-7.6-10.68,3.4-10.68,7.6,4.79,7.6,10.68,7.6h0ZM1182.39,253.2c6.31,0,11.45-3.66,11.45-8.16s-5.14-8.16-11.45-8.16-11.46,3.64-11.46,8.16,5.14,8.16,11.46,8.16h0ZM1125.8,253.65c6.67,0,12.09-3.85,12.09-8.6s-5.42-8.61-12.09-8.61-12.08,3.86-12.08,8.61,5.4,8.6,12.08,8.6h0ZM1069.23,254.1c7.03,0,12.7-4.05,12.7-9.05s-5.67-9.05-12.7-9.05-12.7,4.05-12.7,9.05,5.69,9.05,12.7,9.05h0ZM1012.65,254.21c7.1,0,12.87-4.11,12.87-9.16s-5.76-9.16-12.87-9.16-12.86,4.1-12.86,9.16,5.76,9.16,12.86,9.16h0ZM956.08,254.31c7.19,0,13.01-4.14,13.01-9.27s-5.82-9.27-13.01-9.27-13.02,4.14-13.02,9.27,5.83,9.27,13.02,9.27h0ZM899.51,254.21c7.1,0,12.85-4.11,12.85-9.16s-5.76-9.16-12.85-9.16-12.86,4.1-12.86,9.16,5.75,9.16,12.86,9.16h0ZM842.92,253.98c6.94,0,12.56-4,12.56-8.93s-5.62-8.94-12.56-8.94-12.54,4-12.54,8.94,5.62,8.93,12.54,8.93h0ZM786.35,253.65c6.67,0,12.08-3.85,12.08-8.6s-5.4-8.61-12.08-8.61-12.07,3.86-12.07,8.61,5.4,8.6,12.07,8.6h0ZM729.78,253.2c6.32,0,11.45-3.66,11.45-8.16s-5.12-8.16-11.45-8.16-11.46,3.64-11.46,8.16,5.14,8.16,11.46,8.16h0ZM673.21,252.64c5.88,0,10.66-3.4,10.66-7.6s-4.78-7.6-10.66-7.6-10.68,3.4-10.68,7.6,4.78,7.6,10.68,7.6h0ZM616.62,251.97c5.39,0,9.74-3.1,9.74-6.92s-4.35-6.93-9.74-6.93-9.72,3.1-9.72,6.93,4.35,6.92,9.72,6.92h0ZM560.04,251.19c4.78,0,8.63-2.75,8.63-6.14s-3.85-6.14-8.63-6.14-8.62,2.76-8.62,6.14,3.87,6.14,8.62,6.14h0ZM503.47,250.41c4.15,0,7.53-2.41,7.53-5.36s-3.38-5.37-7.53-5.37-7.53,2.41-7.53,5.37,3.37,5.36,7.53,5.36h0ZM446.89,249.52c3.46,0,6.27-2.01,6.27-4.47s-2.81-4.47-6.27-4.47-6.27,2-6.27,4.47,2.8,4.47,6.27,4.47h0ZM390.31,248.62c2.77,0,5.03-1.61,5.03-3.58s-2.26-3.58-5.03-3.58-5.02,1.61-5.02,3.58,2.26,3.58,5.02,3.58h0ZM333.73,247.73c2.08,0,3.76-1.21,3.76-2.68s-1.68-2.69-3.76-2.69-3.76,1.21-3.76,2.69,1.69,2.68,3.76,2.68h0ZM277.16,246.72c1.31,0,2.36-.75,2.36-1.68s-1.05-1.68-2.36-1.68-2.35.75-2.35,1.68,1.06,1.68,2.35,1.68h0ZM220.59,245.72c.52,0,.95-.3.95-.67s-.43-.67-.95-.67-.95.3-.95.67.44.67.95.67h0ZM1691.58,204.98c.17,0,.31-.1.31-.23s-.14-.23-.31-.23c-.19,0-.32.1-.32.23s.14.23.32.23h0ZM1635.01,205.87c.85,0,1.56-.5,1.56-1.12s-.71-1.11-1.56-1.11-1.59.5-1.59,1.11.71,1.12,1.59,1.12h0ZM1578.42,206.77c1.56,0,2.81-.89,2.81-2.01s-1.25-2-2.81-2-2.83.9-2.83,2,1.27,2.01,2.83,2.01h0ZM1521.84,207.66c2.25,0,4.09-1.31,4.09-2.91s-1.83-2.91-4.09-2.91-4.08,1.32-4.08,2.91,1.83,2.91,4.08,2.91h0ZM1465.27,208.55c2.95,0,5.33-1.7,5.33-3.8s-2.38-3.79-5.33-3.79-5.35,1.7-5.35,3.79,2.41,3.8,5.35,3.8h0ZM1408.7,209.34c3.53,0,6.41-2.05,6.41-4.59s-2.88-4.58-6.41-4.58-6.45,2.05-6.45,4.58,2.88,4.59,6.45,4.59h0ZM1352.11,210.01c4.07,0,7.38-2.36,7.38-5.25s-3.31-5.24-7.38-5.24-7.36,2.35-7.36,5.24,3.29,5.25,7.36,5.25h0ZM1295.53,210.79c4.69,0,8.48-2.7,8.48-6.03s-3.79-6.02-8.48-6.02-8.47,2.7-8.47,6.02,3.8,6.03,8.47,6.03h0ZM1238.96,211.35c5.11,0,9.24-2.94,9.24-6.59s-4.13-6.59-9.24-6.59-9.25,2.95-9.25,6.59,4.14,6.59,9.25,6.59h0ZM1182.39,211.91c5.55,0,10.03-3.2,10.03-7.15s-4.49-7.14-10.03-7.14-10.05,3.2-10.05,7.14,4.5,7.15,10.05,7.15h0ZM1125.8,212.35c5.9,0,10.68-3.4,10.68-7.6s-4.78-7.59-10.68-7.59-10.66,3.4-10.66,7.59,4.77,7.6,10.66,7.6h0ZM1069.23,212.57c6.05,0,10.98-3.5,10.98-7.82s-4.93-7.82-10.98-7.82-10.98,3.5-10.98,7.82,4.93,7.82,10.98,7.82h0ZM1012.65,212.8c6.25,0,11.31-3.6,11.31-8.05s-5.06-8.04-11.31-8.04-11.3,3.6-11.3,8.04,5.06,8.05,11.3,8.05h0ZM956.08,212.8c6.24,0,11.29-3.6,11.29-8.05s-5.05-8.04-11.29-8.04-11.3,3.6-11.3,8.04,5.06,8.05,11.3,8.05h0ZM899.51,212.8c6.23,0,11.29-3.6,11.29-8.05s-5.06-8.04-11.29-8.04-11.3,3.6-11.3,8.04,5.06,8.05,11.3,8.05h0ZM842.92,212.57c6.07,0,10.99-3.5,10.99-7.82s-4.93-7.82-10.99-7.82-10.98,3.5-10.98,7.82,4.92,7.82,10.98,7.82h0ZM786.35,212.24c5.82,0,10.52-3.36,10.52-7.49s-4.7-7.49-10.52-7.49-10.51,3.35-10.51,7.49,4.71,7.49,10.51,7.49h0ZM729.78,211.79c5.45,0,9.89-3.15,9.89-7.04s-4.43-7.04-9.89-7.04-9.88,3.15-9.88,7.04,4.42,7.04,9.88,7.04h0ZM673.21,211.35c5.11,0,9.26-2.94,9.26-6.59s-4.15-6.59-9.26-6.59-9.26,2.95-9.26,6.59,4.15,6.59,9.26,6.59h0ZM616.62,210.68c4.6,0,8.31-2.66,8.31-5.93s-3.71-5.92-8.31-5.92-8.32,2.66-8.32,5.92,3.74,5.93,8.32,5.93h0ZM560.04,210.01c4.08,0,7.38-2.36,7.38-5.25s-3.3-5.24-7.38-5.24-7.38,2.35-7.38,5.24,3.31,5.25,7.38,5.25h0ZM503.47,209.23c3.47,0,6.29-2,6.29-4.47s-2.82-4.47-6.29-4.47-6.27,2-6.27,4.47,2.8,4.47,6.27,4.47h0ZM446.89,208.44c2.87,0,5.18-1.65,5.18-3.69s-2.31-3.69-5.18-3.69-5.18,1.65-5.18,3.69,2.32,3.69,5.18,3.69h0ZM390.31,207.55c2.19,0,3.92-1.24,3.92-2.79s-1.73-2.8-3.92-2.8-3.93,1.25-3.93,2.8,1.76,2.79,3.93,2.79h0ZM333.73,206.65c1.48,0,2.67-.85,2.67-1.9s-1.19-1.9-2.67-1.9-2.66.86-2.66,1.9,1.19,1.9,2.66,1.9h0ZM277.16,205.76c.79,0,1.41-.45,1.41-1.01s-.63-1-1.41-1-1.42.45-1.42,1,.64,1.01,1.42,1.01h0ZM220.59,204.98c.17,0,.32-.1.32-.23s-.15-.23-.32-.23-.32.1-.32.23.15.23.32.23h0ZM1635.01,164.91c.33,0,.61-.2.61-.45s-.28-.45-.61-.45c-.36,0-.63.2-.63.45s.27.45.63.45h0ZM1578.42,165.69c.96,0,1.72-.54,1.72-1.23s-.76-1.23-1.72-1.23-1.74.55-1.74,1.23.79,1.23,1.74,1.23h0ZM1521.84,166.59c1.64,0,2.99-.95,2.99-2.13s-1.35-2.12-2.99-2.12-2.99.95-2.99,2.12,1.34,2.13,2.99,2.13h0ZM1465.27,167.37c2.26,0,4.08-1.3,4.08-2.91s-1.83-2.91-4.08-2.91-4.08,1.3-4.08,2.91,1.83,2.91,4.08,2.91h0ZM1408.7,168.15c2.85,0,5.16-1.65,5.16-3.69s-2.31-3.69-5.16-3.69-5.19,1.65-5.19,3.69,2.32,3.69,5.19,3.69h0ZM1352.11,168.82c3.38,0,6.11-1.96,6.11-4.36s-2.73-4.36-6.11-4.36-6.12,1.95-6.12,4.36,2.75,4.36,6.12,4.36h0ZM1295.53,169.49c3.9,0,7.06-2.25,7.06-5.03s-3.16-5.03-7.06-5.03-7.06,2.25-7.06,5.03,3.16,5.03,7.06,5.03h0ZM1238.96,170.05c4.32,0,7.84-2.5,7.84-5.59s-3.52-5.59-7.84-5.59-7.85,2.5-7.85,5.59,3.51,5.59,7.85,5.59h0ZM1182.39,170.5c4.67,0,8.46-2.7,8.46-6.03s-3.79-6.03-8.46-6.03-8.47,2.7-8.47,6.03,3.79,6.03,8.47,6.03h0ZM1125.8,170.95c5.03,0,9.1-2.9,9.1-6.48s-4.07-6.48-9.1-6.48-9.09,2.91-9.09,6.48,4.07,6.48,9.09,6.48h0ZM1069.23,171.17c5.21,0,9.41-3,9.41-6.71s-4.2-6.7-9.41-6.7-9.41,2.99-9.41,6.7,4.22,6.71,9.41,6.71h0ZM1012.65,171.39c5.37,0,9.73-3.1,9.73-6.93s-4.37-6.93-9.73-6.93-9.72,3.11-9.72,6.93,4.36,6.93,9.72,6.93h0ZM956.08,171.39c5.36,0,9.73-3.1,9.73-6.93s-4.36-6.93-9.73-6.93-9.72,3.11-9.72,6.93,4.35,6.93,9.72,6.93h0ZM899.51,171.39c5.36,0,9.73-3.1,9.73-6.93s-4.36-6.93-9.73-6.93-9.72,3.11-9.72,6.93,4.35,6.93,9.72,6.93h0ZM842.92,171.17c5.2,0,9.42-3,9.42-6.71s-4.22-6.7-9.42-6.7-9.41,2.99-9.41,6.7,4.22,6.71,9.41,6.71h0ZM786.35,170.83c4.94,0,8.94-2.85,8.94-6.37s-4-6.37-8.94-6.37-8.94,2.85-8.94,6.37,4,6.37,8.94,6.37h0ZM729.78,170.5c4.67,0,8.47-2.7,8.47-6.03s-3.81-6.03-8.47-6.03-8.48,2.7-8.48,6.03,3.79,6.03,8.48,6.03h0ZM673.21,169.94c4.24,0,7.68-2.45,7.68-5.47s-3.44-5.47-7.68-5.47-7.7,2.45-7.7,5.47,3.44,5.47,7.7,5.47h0ZM616.62,169.38c3.81,0,6.91-2.2,6.91-4.92s-3.1-4.91-6.91-4.91-6.9,2.2-6.9,4.91,3.09,4.92,6.9,4.92h0ZM560.04,168.82c3.39,0,6.12-1.96,6.12-4.36s-2.73-4.36-6.12-4.36-6.11,1.95-6.11,4.36,2.74,4.36,6.11,4.36h0ZM503.47,168.03c2.78,0,5.03-1.59,5.03-3.57s-2.25-3.57-5.03-3.57-5.01,1.59-5.01,3.57,2.25,3.57,5.01,3.57h0ZM446.89,167.26c2.17,0,3.92-1.24,3.92-2.79s-1.75-2.79-3.92-2.79-3.93,1.25-3.93,2.79,1.77,2.79,3.93,2.79h0ZM390.31,166.48c1.57,0,2.83-.9,2.83-2.01s-1.26-2.01-2.83-2.01-2.81.9-2.81,2.01,1.26,2.01,2.81,2.01h0ZM333.73,165.69c.96,0,1.74-.54,1.74-1.23s-.78-1.23-1.74-1.23-1.72.55-1.72,1.23.78,1.23,1.72,1.23h0ZM277.16,164.8c.25,0,.48-.15.48-.34,0-.18-.23-.33-.48-.33s-.47.15-.47.33c0,.19.2.34.47.34h0ZM1578.42,124.62c.34,0,.62-.2.62-.44s-.28-.44-.62-.44-.63.2-.63.44.28.44.63.44h0ZM1521.84,125.4c.95,0,1.72-.55,1.72-1.23s-.77-1.23-1.72-1.23-1.74.54-1.74,1.23.79,1.23,1.74,1.23h0ZM1465.27,126.19c1.55,0,2.82-.9,2.82-2.01s-1.27-2.01-2.82-2.01-2.83.91-2.83,2.01,1.27,2.01,2.83,2.01h0ZM1408.7,126.86c2.06,0,3.76-1.2,3.76-2.68s-1.7-2.68-3.76-2.68-3.78,1.2-3.78,2.68,1.68,2.68,3.78,2.68h0ZM1352.11,127.53c2.6,0,4.71-1.51,4.71-3.35s-2.11-3.35-4.71-3.35-4.7,1.5-4.7,3.35,2.09,3.35,4.7,3.35h0ZM1295.53,128.2c3.12,0,5.65-1.81,5.65-4.02s-2.52-4.02-5.65-4.02-5.65,1.8-5.65,4.02,2.53,4.02,5.65,4.02h0ZM1238.96,128.65c3.47,0,6.28-2.01,6.28-4.48s-2.81-4.47-6.28-4.47-6.29,2-6.29,4.47,2.81,4.48,6.29,4.48h0ZM1182.39,129.09c3.82,0,6.9-2.2,6.9-4.91s-3.08-4.91-6.9-4.91-6.91,2.2-6.91,4.91,3.09,4.91,6.91,4.91h0ZM1125.8,129.43c4.07,0,7.37-2.36,7.37-5.25s-3.3-5.24-7.37-5.24-7.37,2.34-7.37,5.24,3.3,5.25,7.37,5.25h0ZM1069.23,129.76c4.33,0,7.84-2.51,7.84-5.59s-3.52-5.59-7.84-5.59-7.85,2.51-7.85,5.59,3.52,5.59,7.85,5.59h0ZM1012.65,129.88c4.42,0,8.01-2.55,8.01-5.7s-3.59-5.7-8.01-5.7-8,2.56-8,5.7,3.58,5.7,8,5.7h0ZM956.08,129.88c4.42,0,8-2.55,8-5.7s-3.58-5.7-8-5.7-8,2.56-8,5.7,3.59,5.7,8,5.7h0ZM899.51,129.88c4.42,0,8-2.55,8-5.7s-3.57-5.7-8-5.7-8,2.56-8,5.7,3.57,5.7,8,5.7h0ZM842.92,129.64c4.26,0,7.69-2.45,7.69-5.47s-3.43-5.47-7.69-5.47-7.69,2.45-7.69,5.47,3.44,5.47,7.69,5.47h0ZM786.35,129.43c4.09,0,7.38-2.36,7.38-5.25s-3.3-5.24-7.38-5.24-7.38,2.34-7.38,5.24,3.31,5.25,7.38,5.25h0ZM729.78,129.09c3.82,0,6.9-2.2,6.9-4.91s-3.08-4.91-6.9-4.91-6.91,2.2-6.91,4.91,3.11,4.91,6.91,4.91h0ZM673.21,128.65c3.45,0,6.27-2.01,6.27-4.48s-2.81-4.47-6.27-4.47-6.28,2-6.28,4.47,2.81,4.48,6.28,4.48h0ZM616.62,128.08c3.03,0,5.49-1.75,5.49-3.91s-2.46-3.9-5.49-3.9-5.49,1.75-5.49,3.9,2.47,3.91,5.49,3.91h0ZM560.04,127.53c2.6,0,4.71-1.51,4.71-3.35s-2.1-3.35-4.71-3.35-4.7,1.5-4.7,3.35,2.1,3.35,4.7,3.35h0ZM503.47,126.86c2.08,0,3.76-1.2,3.76-2.68s-1.68-2.68-3.76-2.68-3.76,1.2-3.76,2.68,1.69,2.68,3.76,2.68h0ZM446.89,126.07c1.47,0,2.67-.86,2.67-1.9s-1.2-1.9-2.67-1.9-2.67.85-2.67,1.9,1.19,1.9,2.67,1.9h0ZM390.31,125.4c.97,0,1.74-.55,1.74-1.23s-.76-1.23-1.74-1.23-1.71.54-1.71,1.23.76,1.23,1.71,1.23h0ZM333.73,124.62c.36,0,.64-.2.64-.44s-.28-.44-.64-.44c-.33,0-.63.2-.63.44s.29.44.63.44h0ZM1521.84,84.22c.27,0,.47-.15.47-.33,0-.19-.2-.34-.47-.34-.25,0-.46.15-.46.34,0,.18.21.33.46.33h0ZM1465.27,85c.85,0,1.56-.5,1.56-1.11s-.71-1.12-1.56-1.12-1.57.5-1.57,1.12.69,1.11,1.57,1.11h0ZM1408.7,85.67c1.37,0,2.49-.8,2.49-1.78s-1.12-1.8-2.49-1.8-2.52.81-2.52,1.8,1.12,1.78,2.52,1.78h0ZM1352.11,86.22c1.82,0,3.29-1.04,3.29-2.34s-1.48-2.35-3.29-2.35-3.29,1.04-3.29,2.35,1.48,2.34,3.29,2.34h0ZM1295.53,86.78c2.26,0,4.09-1.3,4.09-2.9s-1.83-2.91-4.09-2.91-4.07,1.3-4.07,2.91,1.82,2.9,4.07,2.9h0ZM1238.96,87.35c2.68,0,4.86-1.55,4.86-3.46s-2.18-3.47-4.86-3.47-4.86,1.55-4.86,3.47,2.18,3.46,4.86,3.46h0ZM1182.39,87.68c2.93,0,5.32-1.69,5.32-3.79s-2.39-3.8-5.32-3.8-5.34,1.7-5.34,3.8,2.39,3.79,5.34,3.79h0ZM1125.8,88.02c3.22,0,5.8-1.85,5.8-4.13s-2.59-4.13-5.8-4.13-5.8,1.84-5.8,4.13,2.6,4.13,5.8,4.13h0ZM1069.23,88.25c3.37,0,6.12-1.96,6.12-4.36s-2.75-4.36-6.12-4.36-6.12,1.95-6.12,4.36,2.74,4.36,6.12,4.36h0ZM1012.65,88.47c3.57,0,6.43-2.05,6.43-4.58s-2.87-4.58-6.43-4.58-6.43,2.04-6.43,4.58,2.87,4.58,6.43,4.58h0ZM956.08,88.47c3.55,0,6.43-2.05,6.43-4.58s-2.88-4.58-6.43-4.58-6.44,2.04-6.44,4.58,2.88,4.58,6.44,4.58h0ZM899.51,88.35c3.46,0,6.28-2,6.28-4.47s-2.82-4.48-6.28-4.48-6.28,2.01-6.28,4.48,2.81,4.47,6.28,4.47h0ZM842.92,88.25c3.38,0,6.12-1.96,6.12-4.36s-2.75-4.36-6.12-4.36-6.11,1.95-6.11,4.36,2.74,4.36,6.11,4.36h0ZM786.35,88.02c3.2,0,5.82-1.85,5.82-4.13s-2.62-4.13-5.82-4.13-5.8,1.84-5.8,4.13,2.6,4.13,5.8,4.13h0ZM729.78,87.68c2.95,0,5.34-1.69,5.34-3.79s-2.39-3.8-5.34-3.8-5.34,1.7-5.34,3.8,2.39,3.79,5.34,3.79h0ZM673.21,87.23c2.6,0,4.69-1.49,4.69-3.34s-2.1-3.36-4.69-3.36-4.71,1.51-4.71,3.36,2.11,3.34,4.71,3.34h0ZM616.62,86.78c2.26,0,4.08-1.3,4.08-2.9s-1.82-2.91-4.08-2.91-4.07,1.3-4.07,2.91,1.81,2.9,4.07,2.9h0ZM560.04,86.22c1.83,0,3.29-1.04,3.29-2.34s-1.47-2.35-3.29-2.35-3.3,1.04-3.3,2.35,1.48,2.34,3.3,2.34h0ZM503.47,85.55c1.31,0,2.36-.75,2.36-1.67s-1.05-1.68-2.36-1.68-2.35.75-2.35,1.68,1.06,1.67,2.35,1.67h0ZM446.89,84.88c.78,0,1.42-.45,1.42-1s-.64-1.01-1.42-1.01-1.41.44-1.41,1.01.63,1,1.41,1h0ZM390.31,84.22c.26,0,.48-.15.48-.33,0-.19-.22-.34-.48-.34s-.47.15-.47.34c0,.18.22.33.47.33h0ZM1465.27,43.82c.17,0,.31-.11.31-.22,0-.13-.14-.23-.31-.23-.19,0-.31.09-.31.23,0,.11.12.22.31.22h0ZM1408.7,44.38c.6,0,1.09-.35,1.09-.78s-.5-.79-1.09-.79-1.1.35-1.1.79.48.78,1.1.78h0ZM1352.11,44.94c1.06,0,1.88-.6,1.88-1.34s-.83-1.34-1.88-1.34-1.88.6-1.88,1.34.84,1.34,1.88,1.34h0ZM1295.53,45.49c1.48,0,2.67-.85,2.67-1.89s-1.19-1.91-2.67-1.91-2.67.85-2.67,1.91,1.2,1.89,2.67,1.89h0ZM1238.96,45.94c1.83,0,3.29-1.04,3.29-2.34s-1.47-2.35-3.29-2.35-3.3,1.05-3.3,2.35,1.46,2.34,3.3,2.34h0ZM1182.39,46.28c2.08,0,3.76-1.2,3.76-2.68s-1.68-2.69-3.76-2.69-3.77,1.2-3.77,2.69,1.68,2.68,3.77,2.68h0ZM1125.8,46.61c2.35,0,4.24-1.35,4.24-3.01s-1.89-3.02-4.24-3.02-4.23,1.35-4.23,3.02,1.9,3.01,4.23,3.01h0ZM1069.23,46.83c2.52,0,4.55-1.44,4.55-3.23s-2.03-3.25-4.55-3.25-4.55,1.45-4.55,3.25,2.04,3.23,4.55,3.23h0ZM1012.65,46.94c2.61,0,4.71-1.49,4.71-3.35s-2.11-3.36-4.71-3.36-4.7,1.51-4.7,3.36,2.12,3.35,4.7,3.35h0ZM956.08,46.94c2.6,0,4.7-1.49,4.7-3.35s-2.1-3.36-4.7-3.36-4.71,1.51-4.71,3.36,2.11,3.35,4.71,3.35h0ZM899.51,46.94c2.6,0,4.7-1.49,4.7-3.35s-2.1-3.36-4.7-3.36-4.71,1.51-4.71,3.36,2.11,3.35,4.71,3.35h0ZM842.92,46.83c2.53,0,4.55-1.44,4.55-3.23s-2.02-3.25-4.55-3.25-4.55,1.45-4.55,3.25,2.04,3.23,4.55,3.23h0ZM786.35,46.61c2.35,0,4.23-1.35,4.23-3.01s-1.89-3.02-4.23-3.02-4.23,1.35-4.23,3.02,1.9,3.01,4.23,3.01h0ZM729.78,46.28c2.08,0,3.76-1.2,3.76-2.68s-1.68-2.69-3.76-2.69-3.76,1.2-3.76,2.69,1.7,2.68,3.76,2.68h0ZM673.21,45.83c1.72,0,3.13-1.01,3.13-2.23s-1.42-2.24-3.13-2.24-3.15,1.01-3.15,2.24,1.42,2.23,3.15,2.23h0ZM616.62,45.38c1.4,0,2.52-.81,2.52-1.79s-1.12-1.8-2.52-1.8-2.5.81-2.5,1.8,1.12,1.79,2.5,1.79h0ZM560.04,44.94c1.04,0,1.89-.6,1.89-1.34s-.85-1.34-1.89-1.34-1.87.6-1.87,1.34.83,1.34,1.87,1.34h0ZM503.47,44.26c.52,0,.95-.3.95-.67s-.42-.68-.95-.68-.93.3-.93.68.41.67.93.67h0ZM446.89,43.82c.17,0,.31-.11.31-.22,0-.13-.13-.23-.31-.23s-.32.09-.32.23c0,.11.14.22.32.22h0ZM1352.11,3.64c.27,0,.48-.15.48-.33,0-.19-.21-.35-.48-.35-.25,0-.46.15-.46.35,0,.18.21.33.46.33h0ZM1295.53,4.09c.6,0,1.09-.35,1.09-.78s-.49-.79-1.09-.79-1.09.35-1.09.79.48.78,1.09.78h0ZM1238.96,4.53c.94,0,1.72-.55,1.72-1.22s-.78-1.24-1.72-1.24-1.74.55-1.74,1.24.79,1.22,1.74,1.22h0ZM1182.39,4.86c1.21,0,2.19-.7,2.19-1.55s-.97-1.57-2.19-1.57-2.2.69-2.2,1.57.99,1.55,2.2,1.55h0ZM1125.8,5.2c1.48,0,2.68-.85,2.68-1.89s-1.2-1.91-2.68-1.91-2.67.85-2.67,1.91,1.2,1.89,2.67,1.89h0ZM1069.23,5.31c1.56,0,2.83-.9,2.83-2s-1.27-2.03-2.83-2.03-2.83.9-2.83,2.03,1.27,2,2.83,2h0ZM1012.65,5.43c1.65,0,2.99-.95,2.99-2.12s-1.35-2.13-2.99-2.13-2.98.95-2.98,2.13,1.35,2.12,2.98,2.12h0ZM956.08,5.53c1.74,0,3.14-1,3.14-2.22s-1.4-2.25-3.14-2.25-3.15,1-3.15,2.25,1.42,2.22,3.15,2.22h0ZM899.51,5.43c1.65,0,2.98-.95,2.98-2.12s-1.33-2.13-2.98-2.13-2.99.95-2.99,2.13,1.34,2.12,2.99,2.12h0ZM842.92,5.31c1.56,0,2.83-.9,2.83-2s-1.27-2.03-2.83-2.03-2.83.9-2.83,2.03,1.27,2,2.83,2h0ZM786.35,5.09c1.4,0,2.52-.8,2.52-1.78s-1.12-1.8-2.52-1.8-2.49.81-2.49,1.8,1.12,1.78,2.49,1.78h0ZM729.78,4.86c1.21,0,2.21-.7,2.21-1.55s-.99-1.57-2.21-1.57-2.19.69-2.19,1.57.98,1.55,2.19,1.55h0ZM673.21,4.53c.94,0,1.72-.55,1.72-1.22s-.78-1.24-1.72-1.24-1.72.55-1.72,1.24.76,1.22,1.72,1.22h0ZM616.62,4.09c.61,0,1.1-.35,1.1-.78s-.49-.79-1.1-.79-1.1.35-1.1.79.5.78,1.1.78h0ZM560.04,3.64c.26,0,.46-.15.46-.33,0-.19-.2-.35-.46-.35s-.47.15-.47.35c0,.18.21.33.47.33Z"/>
</svg>