<?xml version="1.0" encoding="UTF-8"?>
<svg id="Capa_1" data-name="Capa 1" xmlns="http://www.w3.org/2000/svg" xmlns:xlink="http://www.w3.org/1999/xlink" viewBox="0 0 2122 2122">
  <defs>
    <style>
      .cls-1 {
        fill: url(#radial-gradient);
      }
    </style>
    <radialGradient id="radial-gradient" cx="-2342.16" cy="-573.95" fx="-2342.16" fy="-573.95" r="6.19" gradientTransform="translate(666533.98 -162021.98) scale(284.11 -284.11)" gradientUnits="userSpaceOnUse">
      <stop offset=".26" stop-color="#b9e5f4"/>
      <stop offset=".32" stop-color="#b9e5f3" stop-opacity=".76"/>
      <stop offset=".52" stop-color="#bae5f3" stop-opacity="0"/>
      <stop offset=".59" stop-color="#fff" stop-opacity="0"/>
    </radialGradient>
  </defs>
  <path class="cls-1" d="M1065.25,2122h-4.25c-80.81,0-161.5-9.2-239.85-27.34l226.56-978.5c4.09.95,8.32,1.42,12.89,1.44h.71v502.45l8.2,501.87-4.25.08ZM1233.76,2107.92l-162.9-991.08c4.08-.68,7.91-1.77,11.69-3.34l385.09,927.63c-75.01,31.15-153.69,53.62-233.88,66.79ZM655.36,2041.55c-74.83-30.98-146.21-70.64-212.15-117.92l585.17-816.31c3.51,2.51,7.25,4.6,11.12,6.2l-384.14,928.03ZM1621.93,1961.68l-531.38-852.3c3.75-2.35,7.29-5.16,10.48-8.36l710.31,710.11c-57.16,57.17-120.89,107.83-189.42,150.55ZM311.27,1811.75c-57.19-57.12-107.88-120.82-150.64-189.32l852-531.86c2.35,3.76,5.16,7.29,8.37,10.49l-709.73,710.7ZM1923.3,1679.26l-816-585.62c2.52-3.51,4.62-7.25,6.21-11.11l927.82,384.64c-31.02,74.81-70.73,146.17-118.03,212.08ZM81.08,1468.18c-31.18-74.99-53.69-153.66-66.91-233.84l991-163.45c.66,4.03,1.79,7.96,3.34,11.7L81.08,1468.18ZM2094.53,1301.4l-978.38-227.08c.98-4.23,1.46-8.59,1.46-13.32v-1.24s502.19,0,502.19,0l502.19.18v-1.13,2.19c0,80.99-9.24,161.88-27.47,240.4ZM.02,1065.37l-.02-4.37c0-80.62,9.15-161.13,27.2-239.29l978.63,226.03c-.95,4.11-1.43,8.34-1.44,12.95v.92s-1004.39,0-1004.39,0l.02,3.76ZM1116.81,1051.04c-.66-4.03-1.79-7.95-3.34-11.68l926.99-386.63c31.26,74.96,53.87,153.61,67.18,233.79l-990.82,164.52ZM1008.46,1039.53L80.22,655.89c30.93-74.83,70.55-146.22,117.78-212.18l816.68,584.66c-2.53,3.53-4.62,7.29-6.22,11.16ZM1109.35,1031.4c-2.37-3.78-5.19-7.31-8.4-10.51l708.95-711.47c57.25,57.05,108,120.68,150.84,189.13l-851.39,532.85ZM1020.92,1021.02L309.82,311.69c57.09-57.23,120.76-107.95,189.24-150.76l532.35,851.7c-3.77,2.36-7.3,5.17-10.5,8.38ZM1093.57,1014.63c-3.51-2.5-7.26-4.59-11.12-6.19L1465.57,80c74.87,30.9,146.29,70.49,212.28,117.69l-584.27,816.95ZM1039.4,1008.51L653.27,81.31c74.98-31.22,153.65-53.78,233.82-67.05l163.98,990.91c-4.08.68-7.9,1.76-11.68,3.33ZM1074.22,1005.82c-4.19-.97-8.52-1.43-13.22-1.43h-.92V0h.92c80.41,0,160.73,9.11,238.71,27.08l-225.49,978.74Z"/>
</svg>