<?xml version="1.0" encoding="UTF-8"?>
<svg id="Layer_1" data-name="Layer 1" xmlns="http://www.w3.org/2000/svg" viewBox="0 0 2000 2000">
  <defs>
    <style>
      .cls-1 {
        fill: #fff;
      }

      .cls-1, .cls-2 {
        fill-rule: evenodd;
      }
    </style>
  </defs>
  <path class="cls-2" d="M1520.37,548.46c38.64,32.6,3.75,206.03-3.46,254.85-31.81,189.14-76.02,443.21-105.5,617.88-11.88,46.37-32.69,98.43-82.22,98.82-49.71-1.2-136.75-63.29-179.4-92.56l-159.38-110.68c-33.16-23.57-81.24-49-104.7-75.99-37.84-43.57,6.14-84.08,36.47-115.09,102.23-97.63,254.18-240.95,321.29-310.18,7.57-10.02,8.45-22.57,1.57-28.35-27.52-15.29-177.61,96.34-203.97,113.52-88.51,58.31-181.15,122.48-268.19,182.51-34.34,23.68-75.54,50.84-131.63,48.48-50.17-2.11-102.26-19.27-147.54-32.36-36.37-10.51-109.66-30.89-128.24-52.32-33.41-38.52,45.77-75.93,75.35-88.8,294.87-125.76,634.3-269.88,887.22-375.95,41.34-15.93,153.41-66.62,192.34-33.77h0ZM1999.75,1612.82c.59,232.89-212.07,379.56-386.36,387.18H391.96c-177.07-7.62-389.72-172.08-383.67-394.19-2.33-87.89-15.67-1109.24-2.71-1216.61C24.4,143.36,192.75-12.2,392.72,2.77,509.35.49,1486.39-1.74,1613.39,2.01c169.86-5.33,360.37,128.02,386.36,387.19.39,180.08.27,1144.69,0,1223.62h0Z"/>
  <path class="cls-1" d="M1328.05,583.24c-228.43,94.33-595.77,250.42-887.68,375.87-29.6,12.84-108.85,50.16-75.41,88.59,18.6,21.38,91.95,41.71,128.36,52.2,45.31,13.06,97.46,30.18,147.67,32.28,56.14,2.36,97.38-24.74,131.75-48.36,87.12-59.89,179.83-123.9,268.42-182.07,21.93-14.25,119.07-84.59,169.83-108.34,25.92-14.59,54.67-5,32.75,23.38-66.76,70.75-231.1,217.22-321.57,309.43-30.36,30.94-74.38,71.35-36.51,114.81,23.47,26.93,71.6,52.29,104.79,75.8l159.52,110.42c42.69,29.2,129.79,91.14,179.56,92.33,39.93.21,65.53-36.3,80.83-95.15,27.83-161.59,74.15-425.17,107.05-619.82,7.21-48.66,42.21-222.18,3.22-254.44-40.26-33.3-149.99,16.71-192.56,33.06h0Z"/>
</svg>