<?xml version="1.0" encoding="UTF-8"?>
<svg id="Layer_1" data-name="Layer 1" xmlns="http://www.w3.org/2000/svg" viewBox="0 0 2026 32.16">
  <defs>
    <style>
      .cls-1 {
        fill: #fff;
      }
    </style>
  </defs>
  <path class="cls-1" d="M2023.63,5.93c2.99.15,1.92-1.59,2.37-1.91-5.01.39-2.24,2.36-2.37,1.91Z"/>
  <polygon class="cls-1" points="1974.26 9.9 1975.13 9.18 1967.85 10.93 1974.26 9.9"/>
  <path class="cls-1" d="M1928.08,9.86c4.37,2.97,16.73-.48,24.96.58l1.36.68,3.71-2.39c-10,.38-22.98,1.97-30.02,1.14Z"/>
  <path class="cls-1" d="M1903.46,3.43c1.52,1.16-5.33,1,5.74.36-.56-.13-.72-.2-1.04-.29-1,.02-2.37.01-4.7-.07Z"/>
  <path class="cls-1" d="M1908.16,3.5c4.86-.08-3.18-.97,0,0h0Z"/>
  <path class="cls-1" d="M1885.71,4.16l6.4-1.03c-1.34-.68-7.04-.84-4.92-1.33-6.57.57-5.22,1.25-1.48,2.37Z"/>
  <path class="cls-1" d="M1879.63,6.33l3.32-.44c-.58-.29-1.46-.39-3.32.44Z"/>
  <path class="cls-1" d="M1889.99,4.97l-7.04.92c.93.48,1.03,1.44,3.23-.33-.58.88.82.03,3.81-.59Z"/>
  <path class="cls-1" d="M1893.98,5.43c3.59.65,8.23,1.05,1.81,2.08,12.25-.41,10.45-2.5-1.81-2.08Z"/>
  <path class="cls-1" d="M1925.72,12.94l4.8.87,4.16-1c-2.08.49-9.26-.81-8.96.13Z"/>
  <path class="cls-1" d="M1845.81,2.62c-.4.63,2.15,1.69,2.63,2.5l4.73-.73c-2.43-.43-7.04-.83-7.36-1.77Z"/>
  <path class="cls-1" d="M1848.44,5.12l-7.08,1.09c6.32.13,7.48-.39,7.08-1.09Z"/>
  <polygon class="cls-1" points="1878.49 9.64 1890.12 7.35 1876.25 9.67 1878.49 9.64"/>
  <polygon class="cls-1" points="1818.77 2.54 1822.78 1.08 1815.64 3.29 1818.77 2.54"/>
  <path class="cls-1" d="M1800.84,2.8c2.97-1.21-4.07-2.05-.93-2.8-4.87.22-9.03,1.26-12.78,2.2,3.98-.52,8.22-.39,13.71.6Z"/>
  <path class="cls-1" d="M1780.84,3.56c1.99-.29,4.05-.81,6.29-1.37-2.11.28-4.19.68-6.29,1.37Z"/>
  <path class="cls-1" d="M1829.3,5.89c-.55-.38-1.6-1.38-5.57-1.81l2.78,1.78c.85.01,1.81.02,2.79.03Z"/>
  <path class="cls-1" d="M1826.61,5.92l-.1-.06c-3.02-.04-5.12-.08-6.01-.1.77.02,2.61.06,6.11.16Z"/>
  <path class="cls-1" d="M1830,5.9c-.26,0-.45,0-.7,0,.27.18.43.23.7,0Z"/>
  <path class="cls-1" d="M1859.94,8.02c-4.16,1-12.83,2.06-4.44,3.58,2.98-1.22-1.82-2.08,4.44-3.58Z"/>
  <path class="cls-1" d="M1833.46,8.13l7.52.41c-.15-.47-1.5-1.16.56-1.65l-8.07,1.24Z"/>
  <polygon class="cls-1" points="1829.78 8.69 1833.46 8.13 1830.67 7.98 1829.78 8.69"/>
  <path class="cls-1" d="M1793.72,5.23c-3.25.78-6.8.84-10.81.96,4.3.35,8.75.54,12.97.54.6-.56,2.45-1.56-2.16-1.5Z"/>
  <path class="cls-1" d="M1809.71,5.72c-.22.04-.51.06-.72.1.44.15.8.2.72-.1Z"/>
  <path class="cls-1" d="M1743.4,6.18c.22.1.41.22.63.32.05-.1.08-.2.15-.31l-.78-.02Z"/>
  <path class="cls-1" d="M1796.6,7.06c3.23.34,5.16-.09,7.01-.64-2.42.18-4.98.3-7.73.31-.27.25-.32.42.72.33Z"/>
  <path class="cls-1" d="M1769.82,4.39c1.68.37,3.59.69,5.6.98-1.65-.56-5-1.44-5.6-.98Z"/>
  <path class="cls-1" d="M1807.89,5.33c.16-.03.31-.06.48-.08-1.06-.38-.93-.2-.48.08Z"/>
  <path class="cls-1" d="M1807.89,5.33c-1.66.26-2.97.7-4.28,1.09,1.97-.14,3.79-.33,5.37-.59-.4-.13-.8-.32-1.09-.49Z"/>
  <path class="cls-1" d="M1731.43,17.61c.57-1.65,9.07-3.18,16.41-1.41,7.22-1.24,2.5-6.67-3.8-9.7-.22.72-.22,1.39-7.65,2.36,2.6.9,16.49,2.11,10.22,3.6-9.84.85-8.06-.58-12.85-1.46,4.07,2.06-12.52,2.99-10.38,6.02l8.63-1.06c.16.47-2.97,1.22-.57,1.65Z"/>
  <path class="cls-1" d="M1758.19,6.67l3.06-.2c-3.49-.29-5.98-.95-10.57-2.24-5.09.81-6.14,1.42-6.49,1.97l15.06.23-1.05.25Z"/>
  <path class="cls-1" d="M1774.98,6.46c-2.39,1.8-9.73,2.56-5.23,4.5,8.97-.12,6.29-1.5,11.65-2.28-14.48.45,4.16-1-6.3-2.02,2.85-.31,5.4-.4,7.82-.47-2.61-.22-5.12-.49-7.49-.82.13.04.22.07.33.11h.07s-.01.01-.01.02c.62.22.83.36.13.23-.05.02-.22.03-.3.04-.1.25-.37.47-.65.68-4.19-.37-.66-.47.65-.68.05-.09.16-.17.18-.27-.01,0-.03-.02-.05-.02l-14.5.98c3.07.25,6.91.2,13.73,0Z"/>
  <path class="cls-1" d="M1847.76,15.47c-.45-.16-.43-.29-.46-.42-.94.22-1.29.37.46.42Z"/>
  <path class="cls-1" d="M1841.79,14.38c1.06-.25,1.93-.97,5.36-.78,2.97.54-.01.86.14,1.45,2.07-.48,7.23-1.29.75-2.16l-1.03.24c-5.84-.62-13.34-2.86-12.32-3.1,1.7,1.62,3.21,2.77,7.09,4.35Z"/>
  <path class="cls-1" d="M1807.97,10.88l-12.08.88,6.15,1.55-.31-.93c6.87.37,5.38-.78,6.24-1.5Z"/>
  <polygon class="cls-1" points="1742.02 5.29 1743.62 3.39 1736.64 6.07 1742.02 5.29"/>
  <polygon class="cls-1" points="1726.32 5.51 1726.9 3.86 1722.76 4.86 1726.32 5.51"/>
  <path class="cls-1" d="M840.61,25.97l-3.55.47c1.68-.14,2.76-.3,3.55-.47Z"/>
  <path class="cls-1" d="M866.31,26.09l.63-.81c-1.19.45-1.68.78-.63.81Z"/>
  <path class="cls-1" d="M1340.84,5.7c-5.17-1.54-10.94-3.93-10.32-2.07l1.59,1.81c3.61-.32,6.38-.12,8.73.27Z"/>
  <path class="cls-1" d="M1076.85,16.49c.49.18,1,.36,1.51.55,1.26-.62,2.44-1.19,3.49-1.73-1.5.37-3.21.77-5,1.18Z"/>
  <path class="cls-1" d="M1073.2,23.97l-6.81-1.17c1.53.41,3.72.8,6.81,1.17Z"/>
  <path class="cls-1" d="M700.29,27.89l-4.14,1.84c6.48-.01,3.63-.94,4.14-1.84Z"/>
  <path class="cls-1" d="M1565.57,6.18c-4.46-.71-8.01-1-11.13-1.09,5.37,1.04,9.71,2.6,11.13,1.09Z"/>
  <path class="cls-1" d="M850.72,6.79c-2.17.33-3.1.7-3.04,1.1,2.24-.31,3.5-.66,3.04-1.1Z"/>
  <path class="cls-1" d="M1541.56,5.09c.79.18,1.56.27,2.36.43,3.26-.3,6.54-.55,10.53-.43-3.97-.77-8.51-1.25-12.88,0Z"/>
  <path class="cls-1" d="M191.37,26.39c-.37-.08-.82-.12-1.15-.22-.11.24.4.26,1.15.22Z"/>
  <path class="cls-1" d="M43.11,8.15c1.46-.11,3.84-.11,6.09-.14-1.09-.12-2.93-.11-6.09.14Z"/>
  <path class="cls-1" d="M1663.17,4.72c3.33-.12.53-.2,0,0h0Z"/>
  <path class="cls-1" d="M1679.36,11.87c-.71.2-1.25.46-1.33.88.27-.44.74-.71,1.33-.88Z"/>
  <path class="cls-1" d="M1508.4,16.35c-.1,0-.18,0-.29,0,.99.35.82.29.29,0Z"/>
  <path class="cls-1" d="M1668.18,5.55c-1.25-.22-2.69-.41-4.26-.54.69.14,1.98.32,4.26.54Z"/>
  <path class="cls-1" d="M1667.51,4.69c1.15.08,2.05.13,2.91.18.42-.3.05-.49-2.91-.18Z"/>
  <path class="cls-1" d="M1658.53,4.82c1.9-.03,3.68.06,5.39.19-.65-.12-.93-.22-.75-.29-.98.03-2.35.07-4.64.1Z"/>
  <path class="cls-1" d="M464.05,21.56c-.22-.06-.47-.09-.71-.17-3.36.75-1.88.63.71.17Z"/>
  <path class="cls-1" d="M1254.21,24.47c.16-.02.24-.07.38-.09-.16-.02-.35-.04-.49-.06l.11.15Z"/>
  <path class="cls-1" d="M1242.25,25.82c5.09-2.25,7.99-1.97,11.84-1.5l-3.96-5.21-7.89,6.71Z"/>
  <path class="cls-1" d="M779.09,26.49l8.4,1.62c-10.13,2.67-17.47,1.75-9.58,4.04,1.19-5.66,32.64-.58,33.8-6.23l5.53,1.19c-1.59-.05-1.84.28-3.41.22,10.76,2.71,8-4.09,21.87-3.29,4.83.43,8.21,1.26,4.91,1.93l10.77-1.4c3.13.11,2.37,1.09-.75.98l16.43-.45-.12.17c2.34-.89,7.65-2.26,10.25-2.84,4.17.81-2.09.6-1.03,1.31l9.1-1.37c3.71,1.47-3.83,2.89-10.12,2.68,8.49,5.65,7.55-1.42,25.88,1.88l-8.59.72c5.54,3.21,12.24,2.05,21.95,4.05-2.3-1.05-19.44-5.04-9.57-6.45,2.78.43,6.45.63,11.77-.51.05,2.01,5.25,1.52,11.76,1.4l-.44,2.67c7.03-.77,6.48-2.13,10.62-3.33,7.84.26,9.47,2.33,11.31,4.07,12.56.42-8.67-3.31,6.19-3.81,10.44,1.02,17.77-.07,30.27-1.66,7.31.92-1.28,1.63,1.34,2.39l6.48-2.13c1.59.05,1.07.7.81,1.03,5.46-.82.45-2.66,9.03-3.39,2.31-2.94,17.62,4.29,28.24.96,2.62.76-1.26,1.63-.46,2.67,14.57-2.19,12.49-1.59,24.46-4.53l10.19,1.75c-7.49-2,2.08-4.37,10.46-6.32-2.66-.97-4.93-1.81-6.45-2.22l13.38-1.43c1.62.44.27,1.35-1.92,2.47.91-.22,1.78-.44,2.45-.64,4.78.98,2.3,2.52-1.12,4.01-1.63-.53-3.25-1.09-4.82-1.64-3.3,1.62-6.39,3.41-5.71,4.97.87-.31,2.54-.57,4.39-.72-.86.44-1.42.83-1.02,1.1.45.28,1.85-.31,4.04-.99l3.04,2.97.74-1.18,17.5,1.86c12.52-2.99,23.41-7.39,43.29-8.62-4.93,2.18-1.06,3.56-1.33,6.14-5.42-2.73-15.39,1.16-25.69.61,5.37.29,4.19,1.52,2.83,1.95l18.37-2.49c-.41,2.11,3.9,1.58,8.7,2.46-3.63-4.17,13.69-2.78,21.17-4.06.46,1.4-1.33,2.83-10.45,2.49,10.06,3.14,13-4.9,22.88-2.23-2.23.03-3.43-.18-4.31.53,5.2-1.25,17.92-.26,14.93.96l-2.22.03c14.78.49,45,.03,47.21-3.51.15.46-1.94,4.27-2.83,4.99l26.38-11.93c-2.32,3.04,6.6,10.29-5.66,12.01,3.52.43,7.87.94,15.3-.13-2.4-.43-5.98-4.4-2.7-4.68,9.01,3.39,6.25,1.81,17.35,4.7-3.6-.65.4-5.43,6.09-5.27-.89.71.47,4.71-1.61,5.21l14.16-4.69c-3.53.84-.62,3.97,2.54,5.3-1.47-.92,12.24.09,16.01-.38l-6-1.09c15.99.71,15.79-6.59,31.65-6.34-1.92.97-4.74,5.96,3.32,6.55,3.7-2.4,16.37-11.54,30.39-13.39l2.69,1.37,10.76-1.56c-6.7,3.61-25.51,11.21-35.79,14.17,5.98,1.09,1.67,1.62,10.62,1.49,3.16,1.29-4.88,1.95-7.52,2.03l20.86.83c-.93-2.8,15.95-2.81,15.15-5.14l-22.65,2.9c-.92-2.8,13.1-7.95,27.87-7.46,3.76,1.11-2.81,4.99-2.5,5.92,1.92-.96,14.03-1.84,15.38-1.16l-6.27,1.5c8.23,1.05,13.43-3.71,23.31-1.04,3.41.18,10.19,3.61,10.78,1.95-5.57-3.2-6.65-13.08-2.94-15.49,1.2.22,17.92,3.06,21.81,4.63,5.62,2.51-8.43,5.97-3.65,8.13.21-.77,3.31-1.71,4.6-2.01,3.58.65-1.48,2.37,6.3,2.02,1.3-2.84,15.84.24,3.68-2.4,7.62-.81,8.09.58,17.04.46-2.85-1.84,8.03-6.25,15.66-7.06-.45.72,1.26,1.66,2.09,2.09,15.61.26,23.99,1.55,38.55,1.57,1.34.69,8.37,1.52,5.37,2.74,2.09-.5,4.02-1.47,8.51-1.53,8.69,2.46-10.01.38-3.39,3.33.57-1.65,11.61-2.28,18.01-3.31-1.97-2.55-14.78-.49-21.18.54-.03-3.52,11.12-7.2,26.34-8.82,12.09-.87,5.24,2.27,7.34,1.77,22.72.61,19.35-6.14,38.21-3.6,7.48,2.24.34,4.46,2,6.07-9.85.85-15.12-1.42-21.8-1.33l8.22,1.06c-3.13.74-9.71,1.31-13.29.66,6.27,2.01,38.38.39,55.9,2.24,3.11-.75,8.49-1.53,5.94-2.43l-5.54.31c-5.1-1.81,10.44-2.5,3.42-3.34,7.44-1.27,15.78-3.27,26.25-2.24l1.97,2.56c-.22-.75-6.84-1.52-9.79-.74,4.37-1.13,16.06,3.46,20.84.11l-7.34-1.77c7.47-1.28,16.7-4,25.98-3.19-4.22-2.52-2.14.29-8.73-2.66,5.72,3.67-23.74-.15-14.56,3.71-6.77-3.43-11.71-1.45-20.56-4.37.27.84,3.13,1.61-4.66,1.2-.35.25-1.18.56-1.71.74-.24-.02-.32-.04-.53-.06.16.03.27.07.43.1-.34.13-.37.15.16.03,1.86.37,3.36.81,3.97,1.28-3.87,1.94-16.26,1.87-20.45,2.87-4.62-.4,1.93-.97-.59-1.87l-6.26,1.5c-.62-1.87-12.28-3.11-1.39-4.21l-9.8-.08c-5.77-1.05-13.71-1.47-18.6-.68-4.62-.41-11.68,2.07-7.65.61l-15.37,1.16-.14-.47c-15.17-.24-31.22,3.1-48.57-.28-5.11.47-10.38,1.05-18.93.52l-1.67-1.62c-6.55.57-19.69-1.62-22.51.07-7.07-4.36-31.82-.95-43.35-1.72l-.44,2.11c-7.94-.12-15.55.48-25.4,1.33l.61,1.87c-8.49,1.53-21.84-1.33-35.27-1.14.91-.71,4.32-.53,6.73-.1-16.05-4.22-33.87,3.07-48.42,0-3.63.68-6.25.45-8.8-.02.34,0,.64-.04.9-.1-.37-.02-.92-.03-1.49-.02-1.6-.32-3.25-.7-5.04-.99,1.52.45,2.97.83,4.24,1-2.8.04-7.04.27-11.2.74l-1.77-2.01c-.34.03-.61.02-.96.06-4.08-.74-3.28.95-1.1,2.46-2.09.33-4.01.73-5.5,1.21-3.32-3.24-10.91,1.09-15.44-2.36-2.8,1.68-20.91,1.27-23.13,4.81-.14-.46-1.37-.68.88-.71-4.64-.4-9.27-.81-13.43.19l-1.97-2.55-10.12,3.43c-6.15-1.55-8.7-2.46-2.59-4.42-14.75,3.02-11.97,1.14-24.51,4.13l.61-1.65c-4.48.06-11.65,2.27-14.35.91-10.03-3.14-49.62-.43-75.36-3.35,4.99,4.86-11.97-2.18-12.99,1.59-1.5-1.15-5.09-1.8-.92-2.8-13.14,1.13-19.74-1.82-28.81,1.35-1.5-1.15,2.81-1.68,1.47-2.37-1.05.25-4.17,1-5.54.31-1.34-.68,1.92-.96,4-1.47-13.42.19-14.78,3.73-15.75,7.06-6.8-1.57-10.19-1.35-15.11.83-2.37-1.09-6.32-2.22,2.02-2.61-4.69-.16-28.66-1.59-29.13,1.07-1.47-.68-6.56-.2-7.79.11-10.53-.16-11.45-.4-21.79-.15l2.87.44c-4.08,3.21-8.59.72-16.92,1.1l.24-.33c-19.11-2.32-8.25,1.11-27.1-1.53l1.03,2c-1.76,4.3-16.7-2.54-27.64-.89l3.95,1.14c-5.97,1.47-16.7-5.85-22.7-6.38-1.31-.37,2.07-.6,3.89-.88-15.71-2.54-2.04,2.62-13.74,3.23-2.16-1.41,2.78-3.59-5.1-3.85-3.93-1.14-22.85,4.58-33.6,1.88,2.37,1.09,4.72,2.17-.72,2.99-8.33.39-22.53-4.11-30.06-.68-1.06-.3-1.46-.58-1.5-.85-6.37.89-20.7,1.47-24.54,3.33-5.89-6.9-39.61,3.36-39.46-3.01l-19.6.34.51-.65c-12.53-.42-16.96,1.1-21.36,2.63-2.9-.43-.78-1.03-.54-1.36-18.3-1.28-20.12-1.01-35.47,2.16l-1.6-2.07c-4.16,1.2-26.46-3.24-44.41-.83.18-.23.55-.63,1.97-.93-20.2,2.42-48.35-5.73-55.75,1.79l-13.33,1.85c17.24.58-2.57,3.26,4.53,4.51-6.78.44-17.53-2.27-9.2-2.66l1.3.38c3.06-3.92-21.43-1.39-20.96-4.06-33.93.19-67-1.98-98.78-2.14l3.66,3.05-11.09-.18c-2.91-.71-3.91-2.38,4-2.26-4.16-1.73-13.26,1.45-13.49,2.11-15.49-1.24,6.05-3.55,1.3-3.63l-6.45.23,1.45.36c-5.23,1.25-5.69,2.57-15.2,2.41-6.01-.61-3.09-1.88-5.45-2,.01-.22-.79-.32-3.63-.09l-13.97-.26,5.59,2.41c-6.19,1.19-13.13-.13-6.69,2.6-9.46-4.2-52.1-1.51-57.91-2.81-8.67,1.75-17.23,1.72-27.83,1.51,2.64.5,4.21,3.21-4.93,2.88,3.34-5.58-16.74-2.42-24.14-6.44,6.6,2.66-26,.66-15.63,4.44-7.63-.45-.46-2.09-6.25-3.4-18.16,2.16-40.02-1.41-62.47-.68-.35.73,3.41,1.85-1.41,2.94l-11.85-3.66c-4.43.36-4.08,4.23-12.18,1.69,1.14.62,2.85,1.55-.12,1.78-43.98-3.57-89.86,2.93-134.52-3.78,6.05,1.42,2.02,1.56-2.6,1.61,3,.34-.07,1.81.52,2.8l-18.7-2.76c-3.41,2.76-20.05.19-22,2.82l5.92-.47c-7.87,3.11,11.02,6.91,9.87,10.91,8.82-3.54,23.25,5.24,37.71.18,3.19.81-2.72,1.29-1.02,2.21,3.67-1.71,8.09-2.07,16.3-1.3l-.93.42c23.05-.42,32.94,1.27,58.84,2.39l-1.92-1.97c5.56.26,6.74.88,9.34,1.38,6.39-2.99-15.63-.17-9.81-3.47,7.38,4.02,39.25.06,44.24,4.62,8.56.02-2.51-2.29,6.05-2.26l2.27,1.24,2.16-1.59c5.61.26,8.44,1.81,8.65,2.85-1.36-.12-3.87.29-5.33.38,7.28,1.45,20.52-.5,23.02-.02l-8.23-.76c23.37-1.16,51.89.47,74.47-2.04l-1.71-.93c17.24-1.72,13.81,1.02,32.73.23l-.69.22c3.79-.93,8.85-1.4,14.03-1.29-4.78,1.09,8.99,2.12,2.72,3.33,18.69-1.85,9.25-1.45,21.59-4.91l2.85,1.54c4.21-1.4,4.56-2.13,14.01-2.54-7.75,1.33,6.03,2.35-2.65,4.11,19.83,3.38,29.45-3.41,38.55,1.53,9.11-4.28-17.16-2.37-12.06-3.29-4.27-1.4,7.52-3.2,13.74-2.77,6.34.1,10.77,5.47,26.71,5.39-1.59-.02-1.69.3-3.28.29,5.97,1.09,11.69-1.48,19,.3,4.1-2.59,9.5.15,10.68-3.15l-14.62.76c8.29-.86,16.06-4.72,29.72-2.85-1.06.67-5.13,1.54-7.92,2.03,3.99.97,7.69-.65,11.83.35-1.18,3.3-17.77.72-26.65,3.24,4.29,1.39,16.8-2.39,12.34,1.18,6.41-4.55,15.71.57,26.5-2.9l-.71,1.98c1.71-.31,5.25-1.25,8.39-1.19l-5.69,2.56c8.74-2.19,16.85,1.91,25.23.72-17.55.06-3.94-2.38-11.36-3.83,21.65-2.65,12.45,5.17,36.68,4.22-3.28.28-12.32-1.19-7.19-2.1,4.61.41,10.71,1.17,13.54,2.2,16.06-.41-2.47-2.03,4.37-3.25,5.47,2.41,7.88-.98,14.92-1.75l.05,2.01c18.3,1.29,4.85-4.19,21.32-2.63l-6.96,2.79,8.59-.72-1.77,2.29c9.34-1.7,12.25-1.26,21.41-.62-2.13-1.42,1.2-3.65,9.3-3.71,5.53,1.19-3.1,1.91,8.39,1.62-2.59,1.26-5.43,2.84-10.43.98-.51.66-2.56,1.26-3.09,1.91,5.95,1.37,14.96.31,19.12.3-1.6-.08-3.52-.18-4.5-.47l16.65-2.79c2.62.76.54,1.36-1.52,1.96,3.37-.22,5.71-1.14,10.67-1.31-1.28,1.63-.98,3.32-8,4.09l15.87-1.81c1.06.71,8.14,1.95,6.08,2.55,8.8.96,21.58-3.17,33.24-1.9.61-.32,1.82-.62,4.3-.85,10.96.37,20.67,2.37,33.66.13l7.37,2.93c10.17-.67-9.98-3.69,6.96-4.8,11.99-.93,4.48,2.5,8.68,3.31,5.97-1.48,16.34-4.48,27.35-2.1-3.65.55-6.51.12-9.91.34ZM904.57,25.2c-2.43.42-7.28,1.72-9.06.54,2.77-2.3,4.91-1.2,9.06-.54ZM1095.32,20.36c-1.81.67-4.6.34-7.76-.43,2.29-.16,4.88-.09,7.76.43ZM1626.68,6.36c-.1.03-.18.06-.26.1-5.42-.78-3.5-.47.26-.1ZM1637.94,7.23c1.13-.28,1.05-.56.58-.84-.79.51-3.32.54-6.19.4.8.53,2.26.89,5.62.44ZM428.5,8.02l2.19.53c-4.95.58-3.56.06-2.19-.53Z"/>
  <path class="cls-1" d="M1073.69,23.11c-.69-.34-.88-.71-1.04-1.09-.96.34-.98.73,1.04,1.09Z"/>
  <path class="cls-1" d="M701.05,27.55c-.13-.02-.25,0-.38-.02-.21.12-.32.24-.38.36l.77-.34Z"/>
  <path class="cls-1" d="M1463.49,24.28c-2.32-.29-3.61-.66-4.47-1.04-.13.49.93.91,4.47,1.04Z"/>
  <path class="cls-1" d="M1697.63,3.82l-7.21.52c3.49-.1,4.74.34,6.5.66-.16-.47-1.54-1.15.72-1.18Z"/>
  <path class="cls-1" d="M1760.24,16.26c1.05-.25,2.24-.03,3.28-.28l-.29-.93c-4.49.06-7.63.81-2.99,1.21Z"/>
  <path class="cls-1" d="M1704.3,10.5c.57,1.69,5.1,1.12,10.15.8-.3,0-.59.02-.89,0,1.49-2.37-3.9-1.58-9.26-.8Z"/>
  <path class="cls-1" d="M1715.63,11.24c1.56-.08,3.15-.12,4.67-.04.59-.95-1.89-.2-4.67.04Z"/>
  <path class="cls-1" d="M1652.23,6.11c2.4.44,1.5-2.16,2.86-1.47,2.68-2.15-15.98,2.6-2.86,1.47Z"/>
  <polygon class="cls-1" points="1708.4 16.07 1706.58 13.98 1703.75 15.66 1708.4 16.07"/>
  <path class="cls-1" d="M1668.5,14.54l8.07.58c-.12-.35.9-.56,2.16-.71-4.98-.07-10.43-.48-10.24.13Z"/>
  <path class="cls-1" d="M1678.73,14.4c2.59.04,5.06,0,6.5-.35-1.4.02-4.42.09-6.5.35Z"/>
  <polygon class="cls-1" points="1697.36 16.69 1694.97 16.26 1689.27 16.11 1697.36 16.69"/>
  <path class="cls-1" d="M1581.69,14.13l-8.81.6c-.9.72,1.5,1.15,4.79.87,2.11-.5,5.38-.78,4.03-1.47Z"/>
  <path class="cls-1" d="M1608.35,19.85c-2.38-.43-2.54-.9-3.89-1.59l-.27,2.59,4.16-1Z"/>
  <path class="cls-1" d="M1582.65,20.45c-.88.72-12.79,2.06-1.62,1.9.89-.71,9.72-1.31,1.62-1.9Z"/>
  <polygon class="cls-1" points="1449.86 17.18 1452.1 17.15 1451.78 12.9 1449.86 17.18"/>
  <path class="cls-1" d="M1332.83,27.33c10.44,1.02,2.48-2.62,11.92-1.35,2.45-1-7.71-1.04-5.2-1.9-6.3,1.06-9.61.46-6.72,3.25Z"/>
  <path class="cls-1" d="M1339.55,24.08c1.01-.17,2.08-.37,3.22-.65-1.83.26-2.69.47-3.22.65Z"/>
  <polygon class="cls-1" points="18.51 5.87 11.79 4.99 16.13 6.41 18.51 5.87"/>
  <path class="cls-1" d="M5.62,9.02l-1.58-2.7L0,8.76c1.52-.12,4.46-.35,5.62.26Z"/>
  <path class="cls-1" d="M923.23,30.65l.51-.65c-1.04-.7-2.61-.76-5.76-.87l5.25,1.52Z"/>
  <polygon class="cls-1" points="832.15 28.62 833.72 28.68 830.79 26.23 832.15 28.62"/>
  <path class="cls-1" d="M755.72,31.74c3.12.1,6.79-.44,9.92-.34-6.8.44-10.76-2.71-9.92.34Z"/>
</svg>