<?xml version="1.0" encoding="UTF-8"?>
<svg id="Layer_1" data-name="Layer 1" xmlns="http://www.w3.org/2000/svg" viewBox="0 0 2000 2000">
  <defs>
    <style>
      .cls-1 {
        fill: #fff;
      }

      .cls-1, .cls-2 {
        fill-rule: evenodd;
      }
    </style>
  </defs>
  <path class="cls-2" d="M840.38,1070.34c-12.48-17.38-403.94-574.47-418.42-592.13,58.11,2.98,395.92,1.76,414.29,1.76,33.13,46.8,226.98,327.46,245.18,339.73,35.75-37.81,264.15-276.2,324.89-341.25,28.47-.01,134.51-.2,153.04-.05-40.96,41.47-366.31,381.54-418.38,442.6,22.59,45.72,438.57,579.07,450.59,609.97-97.58.22-294.07-.12-420.8-.12-8.24-11.83-241.27-327.93-266.78-362.38-64.26,65.19-232.21,241.84-347.96,362.3-36.07,0-118.56.06-154.62.06,51.09-53.74,391.84-403.81,438.98-460.49h0ZM2.7,1607.29c0,225.94,177.86,387.33,383.68,392.71h1221.5c168.09,0,372.9-123.73,386.38-385.73,12.9-102.26,0-1077.94,0-1218.98-2.7-197.45-159.01-385.74-386.38-385.74S471.62-11.95,386.38,9.56C212.9,9.56,24.26,117.16,0,395.3c0,140.73,0,1051.26,2.7,1211.99h0ZM632.18,591.86h146.49l598.69,825.92h-143.54l-601.64-825.92h0Z"/>
  <path class="cls-1" d="M1233.86,1418.65c-18.37-24.53-591.69-817.31-599.44-827.66,6.67-.1,136.44,0,144.21,0,8.94,11.86,575.51,795.34,598.79,827.66h-143.56ZM1141.01,920.84c65.94-76.28,390.53-408.36,419.89-443.53l-154.5.05c-44.09,50.78-305.43,320.54-324.95,341.96-25.6-32.23-233.59-324.93-245.23-340.43-135.41,0-275.61,0-414.36-1.76,42.49,54.88,402.64,572.67,418.49,593.37-87.92,100.85-408.27,423.9-440.6,461.39h156.2s347.23-363.15,347.23-363.15c42.57,54.56,240.92,336.38,267.62,363.24,28.46,0,412.64.13,422.16.11-37.5-49.13-426.49-578.04-451.96-611.24h0Z"/>
</svg>